Prestige Elite.ufo
<glyph name="exclam" format="1">
  <advance width="1229"/>
  <unicode hex="0021"/>
  <outline>
    <contour>
      <point x="717" y="1167" type="curve" smooth="yes"/>
      <point x="649.001" y="326" type="line"/>
      <point x="575.001" y="326" type="line"/>
      <point x="508.001" y="1167" type="line" smooth="yes"/>
      <point x="508.001" y="1195.67"/>
      <point x="518.168" y="1219.33"/>
      <point x="538.501" y="1238" type="curve" smooth="yes"/>
      <point x="558.834" y="1256.67"/>
      <point x="583.334" y="1266"/>
      <point x="612.001" y="1266" type="curve" smooth="yes"/>
      <point x="641.334" y="1266"/>
      <point x="666.167" y="1256.67"/>
      <point x="686.5" y="1238" type="curve" smooth="yes"/>
      <point x="706.833" y="1219.33"/>
      <point x="717" y="1195.67"/>
    </contour>
    <contour>
      <point x="729.001" y="92" type="curve" smooth="yes"/>
      <point x="729.001" y="59.333"/>
      <point x="717.669" y="31.667"/>
      <point x="695.002" y="9" type="curve" smooth="yes"/>
      <point x="672.335" y="-13.667"/>
      <point x="644.668" y="-25"/>
      <point x="612.001" y="-25" type="curve" smooth="yes"/>
      <point x="580.668" y="-25"/>
      <point x="553.835" y="-13.5"/>
      <point x="531.502" y="9.5" type="curve" smooth="yes"/>
      <point x="509.169" y="32.5"/>
      <point x="498.002" y="60"/>
      <point x="498.002" y="92" type="curve" smooth="yes"/>
      <point x="498.002" y="124"/>
      <point x="509.169" y="151.167"/>
      <point x="531.502" y="173.5" type="curve" smooth="yes"/>
      <point x="553.835" y="195.833"/>
      <point x="580.668" y="207"/>
      <point x="612.001" y="207" type="curve" smooth="yes"/>
      <point x="632.668" y="207"/>
      <point x="652.001" y="202"/>
      <point x="670.001" y="192" type="curve" smooth="yes"/>
      <point x="688.001" y="182"/>
      <point x="702.334" y="168"/>
      <point x="713.001" y="150" type="curve" smooth="yes"/>
      <point x="723.668" y="132"/>
      <point x="729.001" y="112.667"/>
    </contour>
  </outline>
</glyph>
<glyph name="quotedbl" format="1">
  <advance width="1229"/>
  <unicode hex="0022"/>
  <outline>
    <contour>
      <point x="928" y="1182" type="curve" smooth="yes"/>
      <point x="928" y="1150.67"/>
      <point x="922.333" y="1098.67"/>
      <point x="911" y="1026" type="curve" smooth="yes"/>
      <point x="854" y="655" type="line"/>
      <point x="760" y="655" type="line"/>
      <point x="702" y="1026" type="line" smooth="yes"/>
      <point x="691.333" y="1106"/>
      <point x="686" y="1158"/>
      <point x="686" y="1182" type="curve" smooth="yes"/>
      <point x="686" y="1200"/>
      <point x="698.333" y="1218.5"/>
      <point x="723" y="1237.5" type="curve" smooth="yes"/>
      <point x="747.667" y="1256.5"/>
      <point x="775.667" y="1266"/>
      <point x="807" y="1266" type="curve" smooth="yes"/>
      <point x="838.333" y="1266"/>
      <point x="866.333" y="1256.5"/>
      <point x="891" y="1237.5" type="curve" smooth="yes"/>
      <point x="915.667" y="1218.5"/>
      <point x="928" y="1200"/>
    </contour>
    <contour>
      <point x="543" y="1182" type="curve" smooth="yes"/>
      <point x="543" y="1163.33"/>
      <point x="537.333" y="1111.33"/>
      <point x="526" y="1026" type="curve" smooth="yes"/>
      <point x="469" y="655" type="line"/>
      <point x="375" y="655" type="line"/>
      <point x="317" y="1026" type="line" smooth="yes"/>
      <point x="306.333" y="1106"/>
      <point x="301" y="1158"/>
      <point x="301" y="1182" type="curve" smooth="yes"/>
      <point x="301" y="1200"/>
      <point x="313.333" y="1218.5"/>
      <point x="338" y="1237.5" type="curve" smooth="yes"/>
      <point x="362.667" y="1256.5"/>
      <point x="390.667" y="1266"/>
      <point x="422" y="1266" type="curve" smooth="yes"/>
      <point x="453.333" y="1266"/>
      <point x="481.333" y="1256.5"/>
      <point x="506" y="1237.5" type="curve" smooth="yes"/>
      <point x="530.667" y="1218.5"/>
      <point x="543" y="1200"/>
    </contour>
  </outline>
</glyph>
<glyph name="numbersign" format="1">
  <advance width="1229"/>
  <unicode hex="0023"/>
  <outline>
    <contour>
      <point x="1176" y="1004" type="line"/>
      <point x="1151" y="901" type="line"/>
      <point x="881" y="901" type="line"/>
      <point x="825" y="592" type="line"/>
      <point x="1100" y="592" type="line"/>
      <point x="1077" y="492" type="line"/>
      <point x="807" y="489" type="line"/>
      <point x="717" y="-31" type="line"/>
      <point x="614" y="-33" type="line"/>
      <point x="874" y="1434" type="line"/>
      <point x="977" y="1436" type="line"/>
      <point x="899" y="1004" type="line"/>
    </contour>
    <contour>
      <point x="604" y="1438" type="line"/>
      <point x="348" y="-31" type="line"/>
      <point x="246" y="-33" type="line"/>
      <point x="330" y="489" type="line"/>
      <point x="55" y="489" type="line"/>
      <point x="76" y="592" type="line"/>
      <point x="348" y="592" type="line"/>
      <point x="403" y="901" type="line"/>
      <point x="129" y="901" type="line"/>
      <point x="150" y="1001" type="line"/>
      <point x="422" y="1004" type="line"/>
      <point x="502" y="1434" type="line"/>
    </contour>
  </outline>
</glyph>
<glyph name="dollar" format="1">
  <advance width="1229"/>
  <unicode hex="0024"/>
  <outline>
    <contour>
      <point x="1006" y="360" type="curve" smooth="yes"/>
      <point x="1006" y="299.333"/>
      <point x="990.172" y="244.667"/>
      <point x="958.505" y="196" type="curve" smooth="yes"/>
      <point x="926.838" y="147.333"/>
      <point x="885.171" y="108.333"/>
      <point x="833.504" y="79" type="curve" smooth="yes"/>
      <point x="781.837" y="49.667"/>
      <point x="726.004" y="33"/>
      <point x="666.004" y="29" type="curve"/>
      <point x="666.004" y="-184" type="line"/>
      <point x="573.004" y="-184" type="line"/>
      <point x="573.004" y="29" type="line"/>
      <point x="522.337" y="33.667"/>
      <point x="474.504" y="41.5"/>
      <point x="429.504" y="52.5" type="curve" smooth="yes"/>
      <point x="384.504" y="63.5"/>
      <point x="320.004" y="80.667"/>
      <point x="236.004" y="104" type="curve"/>
      <point x="242.004" y="217" type="line" smooth="yes"/>
      <point x="242.004" y="271"/>
      <point x="234.337" y="325"/>
      <point x="219.004" y="379" type="curve"/>
      <point x="315.004" y="379" type="line"/>
      <point x="321.004" y="296.333"/>
      <point x="334.671" y="239.666"/>
      <point x="356.004" y="208.999" type="curve" smooth="yes"/>
      <point x="378.671" y="177.666"/>
      <point x="416.671" y="154.166"/>
      <point x="470.004" y="138.499" type="curve" smooth="yes"/>
      <point x="523.337" y="122.832"/>
      <point x="573.67" y="114.999"/>
      <point x="621.003" y="114.999" type="curve" smooth="yes"/>
      <point x="697.67" y="114.999"/>
      <point x="764.503" y="136.499"/>
      <point x="821.503" y="179.499" type="curve" smooth="yes"/>
      <point x="878.503" y="222.499"/>
      <point x="907.003" y="281.332"/>
      <point x="907.003" y="355.999" type="curve" smooth="yes"/>
      <point x="907.003" y="427.332"/>
      <point x="880.17" y="480.999"/>
      <point x="826.503" y="516.999" type="curve" smooth="yes"/>
      <point x="772.836" y="552.999"/>
      <point x="693.169" y="588.999"/>
      <point x="587.502" y="624.999" type="curve" smooth="yes"/>
      <point x="481.835" y="660.999"/>
      <point x="401.835" y="698.666"/>
      <point x="347.502" y="737.999" type="curve" smooth="yes"/>
      <point x="293.169" y="777.332"/>
      <point x="266.002" y="836.332"/>
      <point x="266.002" y="914.999" type="curve" smooth="yes"/>
      <point x="266.002" y="968.999"/>
      <point x="280.169" y="1020.33"/>
      <point x="308.502" y="1069" type="curve" smooth="yes"/>
      <point x="336.835" y="1117.67"/>
      <point x="374.502" y="1157.67"/>
      <point x="421.502" y="1189" type="curve" smooth="yes"/>
      <point x="468.502" y="1220.33"/>
      <point x="519.002" y="1240.33"/>
      <point x="573.002" y="1249" type="curve"/>
      <point x="573.002" y="1464" type="line"/>
      <point x="666.002" y="1464" type="line"/>
      <point x="666.002" y="1249" type="line"/>
      <point x="726.669" y="1249"/>
      <point x="782.169" y="1240.67"/>
      <point x="832.502" y="1224" type="curve" smooth="yes"/>
      <point x="882.835" y="1207.33"/>
      <point x="924.668" y="1179"/>
      <point x="958.001" y="1139" type="curve"/>
      <point x="954.001" y="1119.67"/>
      <point x="952.001" y="1088"/>
      <point x="952.001" y="1044" type="curve" smooth="yes"/>
      <point x="961.001" y="904.999" type="line"/>
      <point x="868.001" y="904.999" type="line"/>
      <point x="868.001" y="955.999" type="line" smooth="yes"/>
      <point x="868.001" y="1034.67"/>
      <point x="853.834" y="1088.83"/>
      <point x="825.501" y="1118.5" type="curve" smooth="yes"/>
      <point x="797.168" y="1148.17"/>
      <point x="742.668" y="1163"/>
      <point x="662.001" y="1163" type="curve" smooth="yes"/>
      <point x="582.001" y="1163"/>
      <point x="512.501" y="1143"/>
      <point x="453.501" y="1103" type="curve" smooth="yes"/>
      <point x="394.501" y="1063"/>
      <point x="365.001" y="1003.33"/>
      <point x="365.001" y="924" type="curve" smooth="yes"/>
      <point x="365.001" y="860.667"/>
      <point x="389.668" y="813.667"/>
      <point x="439.001" y="783" type="curve" smooth="yes"/>
      <point x="488.334" y="752.333"/>
      <point x="567.667" y="717.333"/>
      <point x="677" y="678" type="curve" smooth="yes"/>
      <point x="786.333" y="638.667"/>
      <point x="868.5" y="597"/>
      <point x="923.5" y="553" type="curve" smooth="yes"/>
      <point x="978.5" y="509"/>
      <point x="1006" y="444.667"/>
    </contour>
  </outline>
</glyph>
<glyph name="percent" format="1">
  <advance width="1229"/>
  <unicode hex="0025"/>
  <outline>
    <contour>
      <point x="502" y="991" type="curve" smooth="yes"/>
      <point x="502" y="945"/>
      <point x="495.832" y="901.333"/>
      <point x="483.499" y="860" type="curve" smooth="yes"/>
      <point x="471.166" y="818.667"/>
      <point x="450.499" y="784.5"/>
      <point x="421.499" y="757.5" type="curve" smooth="yes"/>
      <point x="392.499" y="730.5"/>
      <point x="354.332" y="717"/>
      <point x="306.999" y="717" type="curve" smooth="yes"/>
      <point x="261.666" y="717"/>
      <point x="224.166" y="730.5"/>
      <point x="194.499" y="757.5" type="curve" smooth="yes"/>
      <point x="164.832" y="784.5"/>
      <point x="143.832" y="818.833"/>
      <point x="131.499" y="860.5" type="curve" smooth="yes"/>
      <point x="119.166" y="902.167"/>
      <point x="112.999" y="945.667"/>
      <point x="112.999" y="991" type="curve" smooth="yes"/>
      <point x="112.999" y="1065.67"/>
      <point x="128.332" y="1130.17"/>
      <point x="158.999" y="1184.5" type="curve" smooth="yes"/>
      <point x="189.666" y="1238.83"/>
      <point x="238.999" y="1266"/>
      <point x="306.999" y="1266" type="curve" smooth="yes"/>
      <point x="375.666" y="1266"/>
      <point x="425.333" y="1238.83"/>
      <point x="456" y="1184.5" type="curve" smooth="yes"/>
      <point x="486.667" y="1130.17"/>
      <point x="502" y="1065.67"/>
    </contour>
    <contour>
      <point x="933.999" y="1266" type="line"/>
      <point x="364.999" y="-59" type="line"/>
      <point x="296.999" y="-20" type="line"/>
      <point x="865.999" y="1305" type="line"/>
    </contour>
    <contour>
      <point x="1116" y="250" type="curve" smooth="yes"/>
      <point x="1116" y="204"/>
      <point x="1109.83" y="160.167"/>
      <point x="1097.5" y="118.5" type="curve" smooth="yes"/>
      <point x="1085.17" y="76.833"/>
      <point x="1064.17" y="42.5"/>
      <point x="1034.5" y="15.5" type="curve" smooth="yes"/>
      <point x="1004.83" y="-11.5"/>
      <point x="967.332" y="-25"/>
      <point x="921.999" y="-25" type="curve" smooth="yes"/>
      <point x="853.999" y="-25"/>
      <point x="804.499" y="2.5"/>
      <point x="773.499" y="57.5" type="curve" smooth="yes"/>
      <point x="742.499" y="112.5"/>
      <point x="726.999" y="176.667"/>
      <point x="726.999" y="250" type="curve" smooth="yes"/>
      <point x="726.999" y="296"/>
      <point x="733.166" y="339.667"/>
      <point x="745.499" y="381" type="curve" smooth="yes"/>
      <point x="757.832" y="422.333"/>
      <point x="778.499" y="456.5"/>
      <point x="807.499" y="483.5" type="curve" smooth="yes"/>
      <point x="836.499" y="510.5"/>
      <point x="874.666" y="524"/>
      <point x="921.999" y="524" type="curve" smooth="yes"/>
      <point x="989.999" y="524"/>
      <point x="1039.33" y="497"/>
      <point x="1070" y="443" type="curve" smooth="yes"/>
      <point x="1100.67" y="389"/>
      <point x="1116" y="324.667"/>
    </contour>
    <contour>
      <point x="417.999" y="991" type="curve" smooth="yes"/>
      <point x="417.999" y="1049.67"/>
      <point x="410.999" y="1098.5"/>
      <point x="396.999" y="1137.5" type="curve" smooth="yes"/>
      <point x="382.999" y="1176.5"/>
      <point x="352.999" y="1196"/>
      <point x="306.999" y="1196" type="curve" smooth="yes"/>
      <point x="261.666" y="1196"/>
      <point x="231.999" y="1176"/>
      <point x="217.999" y="1136" type="curve" smooth="yes"/>
      <point x="203.999" y="1096"/>
      <point x="196.999" y="1047.67"/>
      <point x="196.999" y="991" type="curve" smooth="yes"/>
      <point x="196.999" y="935"/>
      <point x="204.166" y="886.833"/>
      <point x="218.499" y="846.5" type="curve" smooth="yes"/>
      <point x="232.832" y="806.167"/>
      <point x="262.332" y="786"/>
      <point x="306.999" y="786" type="curve" smooth="yes"/>
      <point x="352.999" y="786"/>
      <point x="382.999" y="805.5"/>
      <point x="396.999" y="844.5" type="curve" smooth="yes"/>
      <point x="410.999" y="883.5"/>
      <point x="417.999" y="932.333"/>
    </contour>
    <contour>
      <point x="1032" y="250" type="curve" smooth="yes"/>
      <point x="1032" y="308.667"/>
      <point x="1025.33" y="357.5"/>
      <point x="1012" y="396.5" type="curve" smooth="yes"/>
      <point x="998.667" y="435.5"/>
      <point x="968.667" y="455"/>
      <point x="922" y="455" type="curve" smooth="yes"/>
      <point x="876" y="455"/>
      <point x="846" y="435"/>
      <point x="832" y="395" type="curve" smooth="yes"/>
      <point x="818" y="355"/>
      <point x="811" y="306.667"/>
      <point x="811" y="250" type="curve" smooth="yes"/>
      <point x="811" y="194"/>
      <point x="818.167" y="145.833"/>
      <point x="832.5" y="105.5" type="curve" smooth="yes"/>
      <point x="846.833" y="65.167"/>
      <point x="876.666" y="45"/>
      <point x="921.999" y="45" type="curve" smooth="yes"/>
      <point x="967.999" y="45"/>
      <point x="997.832" y="64.5"/>
      <point x="1011.5" y="103.5" type="curve" smooth="yes"/>
      <point x="1025.17" y="142.5"/>
      <point x="1032" y="191.333"/>
    </contour>
  </outline>
</glyph>
<glyph name="ampersand" format="1">
  <advance width="1229"/>
  <unicode hex="0026"/>
  <outline>
    <contour>
      <point x="1094" y="127" type="line"/>
      <point x="1080" y="38.333"/>
      <point x="1039.67" y="-5.99902"/>
      <point x="973" y="-5.99902" type="curve" smooth="yes"/>
      <point x="940.333" y="-5.99902"/>
      <point x="913.5" y="2.83398"/>
      <point x="892.5" y="20.501" type="curve" smooth="yes"/>
      <point x="871.5" y="38.168"/>
      <point x="849" y="64.001"/>
      <point x="825" y="98.001" type="curve"/>
      <point x="792.333" y="57.334"/>
      <point x="750.333" y="26.667"/>
      <point x="699" y="6" type="curve" smooth="yes"/>
      <point x="647.667" y="-14.667"/>
      <point x="594.334" y="-25"/>
      <point x="539.001" y="-25" type="curve" smooth="yes"/>
      <point x="473.668" y="-25"/>
      <point x="415.001" y="-7"/>
      <point x="363.001" y="29" type="curve" smooth="yes"/>
      <point x="311.001" y="65"/>
      <point x="271.001" y="112.5"/>
      <point x="243.001" y="171.5" type="curve" smooth="yes"/>
      <point x="215.001" y="230.5"/>
      <point x="201.001" y="292"/>
      <point x="201.001" y="356" type="curve" smooth="yes"/>
      <point x="201.001" y="443.333"/>
      <point x="222.834" y="521.5"/>
      <point x="266.501" y="590.5" type="curve" smooth="yes"/>
      <point x="310.168" y="659.5"/>
      <point x="371.001" y="709.667"/>
      <point x="449.001" y="741" type="curve"/>
      <point x="372.334" y="845"/>
      <point x="334.001" y="943.333"/>
      <point x="334.001" y="1036" type="curve" smooth="yes"/>
      <point x="334.001" y="1103.33"/>
      <point x="359.168" y="1158.5"/>
      <point x="409.501" y="1201.5" type="curve" smooth="yes"/>
      <point x="459.834" y="1244.5"/>
      <point x="518.667" y="1266"/>
      <point x="586" y="1266" type="curve" smooth="yes"/>
      <point x="629.333" y="1266"/>
      <point x="670.333" y="1255"/>
      <point x="709" y="1233" type="curve" smooth="yes"/>
      <point x="747.667" y="1211"/>
      <point x="780.334" y="1181.67"/>
      <point x="807.001" y="1145" type="curve"/>
      <point x="739.001" y="1075" type="line"/>
      <point x="713.001" y="1108.33"/>
      <point x="687.668" y="1134.17"/>
      <point x="663.001" y="1152.5" type="curve" smooth="yes"/>
      <point x="638.334" y="1170.83"/>
      <point x="610.667" y="1180"/>
      <point x="580" y="1180" type="curve" smooth="yes"/>
      <point x="538.667" y="1180"/>
      <point x="503.667" y="1165.67"/>
      <point x="475" y="1137" type="curve" smooth="yes"/>
      <point x="446.333" y="1108.33"/>
      <point x="432" y="1074"/>
      <point x="432" y="1034" type="curve" smooth="yes"/>
      <point x="432" y="1002"/>
      <point x="449.333" y="956.666"/>
      <point x="484" y="897.999" type="curve" smooth="yes"/>
      <point x="518.667" y="839.332"/>
      <point x="570" y="760.332"/>
      <point x="638" y="660.999" type="curve" smooth="yes"/>
      <point x="706" y="561.666"/>
      <point x="758" y="480.999"/>
      <point x="794" y="418.999" type="curve" smooth="yes"/>
      <point x="830" y="356.999"/>
      <point x="848" y="309.332"/>
      <point x="848" y="275.999" type="curve"/>
      <point x="884" y="359.999"/>
      <point x="904.333" y="471.332"/>
      <point x="909" y="609.999" type="curve"/>
      <point x="1075" y="609.999" type="line"/>
      <point x="1075" y="523.999" type="line"/>
      <point x="991" y="523.999" type="line"/>
      <point x="989.667" y="489.999"/>
      <point x="985.5" y="452.499"/>
      <point x="978.5" y="411.499" type="curve" smooth="yes"/>
      <point x="971.5" y="370.499"/>
      <point x="961" y="329.332"/>
      <point x="947" y="287.999" type="curve" smooth="yes"/>
      <point x="933" y="246.666"/>
      <point x="915" y="207.333"/>
      <point x="893" y="170" type="curve"/>
      <point x="915" y="110"/>
      <point x="941.667" y="80"/>
      <point x="973" y="80" type="curve" smooth="yes"/>
      <point x="989" y="80"/>
      <point x="1000.5" y="87.167"/>
      <point x="1007.5" y="101.5" type="curve" smooth="yes"/>
      <point x="1014.5" y="115.833"/>
      <point x="1021.33" y="137.333"/>
      <point x="1028" y="166" type="curve"/>
    </contour>
    <contour>
      <point x="786" y="182.001" type="curve"/>
      <point x="770.667" y="221.334"/>
      <point x="747.834" y="275.334"/>
      <point x="717.501" y="344.001" type="curve" smooth="yes"/>
      <point x="687.168" y="412.668"/>
      <point x="661.001" y="462.001"/>
      <point x="639.001" y="492.001" type="curve" smooth="yes"/>
      <point x="502.001" y="672.001" type="line"/>
      <point x="456.668" y="657.334"/>
      <point x="418.668" y="634.834"/>
      <point x="388.001" y="604.501" type="curve" smooth="yes"/>
      <point x="357.334" y="574.168"/>
      <point x="334.834" y="538.335"/>
      <point x="320.501" y="497.002" type="curve" smooth="yes"/>
      <point x="306.168" y="455.669"/>
      <point x="299.001" y="410.669"/>
      <point x="299.001" y="362.002" type="curve" smooth="yes"/>
      <point x="299.001" y="310.002"/>
      <point x="308.668" y="261.169"/>
      <point x="328.001" y="215.502" type="curve" smooth="yes"/>
      <point x="347.334" y="169.835"/>
      <point x="376.334" y="132.668"/>
      <point x="415.001" y="104.001" type="curve" smooth="yes"/>
      <point x="453.668" y="75.334"/>
      <point x="499.001" y="61.001"/>
      <point x="551.001" y="61.001" type="curve" smooth="yes"/>
      <point x="638.334" y="61.001"/>
      <point x="716.667" y="101.334"/>
    </contour>
  </outline>
</glyph>
<glyph name="quotesingle" format="1">
  <advance width="1229"/>
  <unicode hex="0027"/>
  <outline>
    <contour>
      <point x="735" y="1182" type="curve" smooth="yes"/>
      <point x="735" y="1158"/>
      <point x="729.666" y="1106"/>
      <point x="718.999" y="1026" type="curve" smooth="yes"/>
      <point x="661.999" y="655" type="line"/>
      <point x="566.999" y="655" type="line"/>
      <point x="509.999" y="1026" type="line" smooth="yes"/>
      <point x="499.332" y="1106"/>
      <point x="493.999" y="1158"/>
      <point x="493.999" y="1182" type="curve" smooth="yes"/>
      <point x="493.999" y="1200"/>
      <point x="506.332" y="1218.5"/>
      <point x="530.999" y="1237.5" type="curve" smooth="yes"/>
      <point x="555.666" y="1256.5"/>
      <point x="583.333" y="1266"/>
      <point x="614" y="1266" type="curve" smooth="yes"/>
      <point x="645.333" y="1266"/>
      <point x="673.333" y="1256.5"/>
      <point x="698" y="1237.5" type="curve" smooth="yes"/>
      <point x="722.667" y="1218.5"/>
      <point x="735" y="1200"/>
    </contour>
  </outline>
</glyph>
<glyph name="parenleft" format="1">
  <advance width="1229"/>
  <unicode hex="0028"/>
  <outline>
    <contour>
      <point x="952" y="-156" type="curve"/>
      <point x="893" y="-224.999" type="line"/>
      <point x="756.333" y="-121.666"/>
      <point x="657.333" y="0.666992"/>
      <point x="596" y="142" type="curve" smooth="yes"/>
      <point x="534.667" y="283.333"/>
      <point x="504" y="443"/>
      <point x="504" y="621" type="curve" smooth="yes"/>
      <point x="504" y="735.667"/>
      <point x="517.167" y="844"/>
      <point x="543.5" y="946" type="curve" smooth="yes"/>
      <point x="569.833" y="1048"/>
      <point x="611.333" y="1142.33"/>
      <point x="668" y="1229" type="curve" smooth="yes"/>
      <point x="724.667" y="1315.67"/>
      <point x="799.667" y="1394.67"/>
      <point x="893" y="1466" type="curve"/>
      <point x="952" y="1395" type="line"/>
      <point x="887.333" y="1351"/>
      <point x="833" y="1300.67"/>
      <point x="789" y="1244" type="curve" smooth="yes"/>
      <point x="745" y="1187.33"/>
      <point x="709" y="1125"/>
      <point x="681" y="1057" type="curve" smooth="yes"/>
      <point x="653" y="989"/>
      <point x="632.833" y="918.167"/>
      <point x="620.5" y="844.5" type="curve" smooth="yes"/>
      <point x="608.167" y="770.833"/>
      <point x="602" y="696.333"/>
      <point x="602" y="621" type="curve" smooth="yes"/>
      <point x="602" y="546.333"/>
      <point x="608.167" y="472"/>
      <point x="620.5" y="398" type="curve" smooth="yes"/>
      <point x="632.833" y="324"/>
      <point x="652.833" y="252.833"/>
      <point x="680.5" y="184.5" type="curve" smooth="yes"/>
      <point x="708.167" y="116.167"/>
      <point x="744" y="53.667"/>
      <point x="788" y="-3" type="curve" smooth="yes"/>
      <point x="832" y="-59.667"/>
      <point x="886.667" y="-110.667"/>
    </contour>
  </outline>
</glyph>
<glyph name="parenright" format="1">
  <advance width="1229"/>
  <unicode hex="0029"/>
  <outline>
    <contour>
      <point x="725" y="621" type="curve" smooth="yes"/>
      <point x="725" y="505.667"/>
      <point x="711.833" y="397.335"/>
      <point x="685.5" y="296.002" type="curve" smooth="yes"/>
      <point x="659.167" y="194.669"/>
      <point x="617.667" y="100.169"/>
      <point x="561" y="12.502" type="curve" smooth="yes"/>
      <point x="504.333" y="-75.165"/>
      <point x="430" y="-154.332"/>
      <point x="338" y="-224.999" type="curve"/>
      <point x="279" y="-153.999" type="line"/>
      <point x="402.333" y="-67.999"/>
      <point x="491.166" y="41.668"/>
      <point x="545.499" y="175.001" type="curve" smooth="yes"/>
      <point x="599.832" y="308.334"/>
      <point x="626.999" y="457.001"/>
      <point x="626.999" y="621.001" type="curve" smooth="yes"/>
      <point x="626.999" y="701.001"/>
      <point x="620.999" y="777.168"/>
      <point x="608.999" y="849.501" type="curve" smooth="yes"/>
      <point x="596.999" y="921.834"/>
      <point x="577.332" y="991.334"/>
      <point x="549.999" y="1058" type="curve" smooth="yes"/>
      <point x="522.666" y="1124.67"/>
      <point x="486.499" y="1187"/>
      <point x="441.499" y="1245" type="curve" smooth="yes"/>
      <point x="396.499" y="1303"/>
      <point x="342.332" y="1353.67"/>
      <point x="278.999" y="1397" type="curve"/>
      <point x="337.999" y="1466" type="line"/>
      <point x="406.666" y="1415.33"/>
      <point x="465.666" y="1358.17"/>
      <point x="514.999" y="1294.5" type="curve" smooth="yes"/>
      <point x="564.332" y="1230.83"/>
      <point x="604.332" y="1164.17"/>
      <point x="634.999" y="1094.5" type="curve" smooth="yes"/>
      <point x="665.666" y="1024.83"/>
      <point x="688.333" y="949.832"/>
      <point x="703" y="869.499" type="curve" smooth="yes"/>
      <point x="717.667" y="789.166"/>
      <point x="725" y="706.333"/>
    </contour>
  </outline>
</glyph>
<glyph name="asterisk" format="1">
  <advance width="1229"/>
  <unicode hex="002A"/>
  <outline>
    <contour>
      <point x="909" y="1044" type="curve"/>
      <point x="909" y="1018.67"/>
      <point x="904.5" y="999.33"/>
      <point x="895.5" y="985.997" type="curve" smooth="yes"/>
      <point x="886.5" y="972.664"/>
      <point x="872.667" y="962.664"/>
      <point x="854" y="955.997" type="curve" smooth="yes"/>
      <point x="825.333" y="947.997"/>
      <point x="770.666" y="943.997"/>
      <point x="689.999" y="943.997" type="curve"/>
      <point x="688.666" y="935.33"/>
      <point x="683.999" y="924.997"/>
      <point x="675.999" y="912.997" type="curve"/>
      <point x="707.999" y="890.33"/>
      <point x="733.999" y="871.33"/>
      <point x="753.999" y="855.997" type="curve" smooth="yes"/>
      <point x="773.999" y="840.664"/>
      <point x="788.999" y="824.997"/>
      <point x="798.999" y="808.997" type="curve" smooth="yes"/>
      <point x="812.332" y="788.997"/>
      <point x="818.999" y="771.33"/>
      <point x="818.999" y="755.997" type="curve" smooth="yes"/>
      <point x="818.999" y="735.33"/>
      <point x="810.332" y="718.33"/>
      <point x="792.999" y="704.997" type="curve" smooth="yes"/>
      <point x="780.332" y="696.33"/>
      <point x="767.999" y="691.997"/>
      <point x="755.999" y="691.997" type="curve" smooth="yes"/>
      <point x="734.666" y="691.997"/>
      <point x="713.333" y="704.33"/>
      <point x="692" y="728.997" type="curve" smooth="yes"/>
      <point x="680" y="744.997"/>
      <point x="669.333" y="765.164"/>
      <point x="660" y="789.497" type="curve" smooth="yes"/>
      <point x="650.667" y="813.83"/>
      <point x="641" y="843.663"/>
      <point x="631" y="878.996" type="curve"/>
      <point x="600" y="878.996" type="line"/>
      <point x="580" y="804.329"/>
      <point x="559.667" y="752.996"/>
      <point x="539" y="724.996" type="curve" smooth="yes"/>
      <point x="518.333" y="700.329"/>
      <point x="497" y="687.996"/>
      <point x="475" y="687.996" type="curve" smooth="yes"/>
      <point x="462.333" y="687.996"/>
      <point x="449.333" y="691.996"/>
      <point x="436" y="699.996" type="curve" smooth="yes"/>
      <point x="420" y="714.663"/>
      <point x="412" y="731.996"/>
      <point x="412" y="751.996" type="curve" smooth="yes"/>
      <point x="412" y="767.996"/>
      <point x="418" y="785.663"/>
      <point x="430" y="804.996" type="curve" smooth="yes"/>
      <point x="438.667" y="816.329"/>
      <point x="449.667" y="827.829"/>
      <point x="463" y="839.496" type="curve" smooth="yes"/>
      <point x="476.333" y="851.163"/>
      <point x="492" y="863.33"/>
      <point x="510" y="875.997" type="curve" smooth="yes"/>
      <point x="528" y="888.664"/>
      <point x="543" y="899.664"/>
      <point x="555" y="908.997" type="curve"/>
      <point x="545.667" y="923.664"/>
      <point x="539.667" y="935.331"/>
      <point x="537" y="943.998" type="curve"/>
      <point x="456.333" y="943.998"/>
      <point x="402.333" y="947.998"/>
      <point x="375" y="955.998" type="curve" smooth="yes"/>
      <point x="355" y="963.998"/>
      <point x="340.333" y="974.665"/>
      <point x="331" y="987.998" type="curve" smooth="yes"/>
      <point x="321.667" y="1001.33"/>
      <point x="317" y="1021"/>
      <point x="317" y="1047" type="curve"/>
      <point x="330.333" y="1075.67"/>
      <point x="353" y="1090"/>
      <point x="385" y="1090" type="curve" smooth="yes"/>
      <point x="389" y="1090"/>
      <point x="399.333" y="1088.33"/>
      <point x="416" y="1085" type="curve" smooth="yes"/>
      <point x="450" y="1073.67"/>
      <point x="495.667" y="1044.33"/>
      <point x="553" y="996.999" type="curve"/>
      <point x="564.333" y="1011.67"/>
      <point x="576" y="1021.33"/>
      <point x="588" y="1026" type="curve"/>
      <point x="562" y="1100.67"/>
      <point x="549" y="1154"/>
      <point x="549" y="1186" type="curve" smooth="yes"/>
      <point x="549" y="1209.33"/>
      <point x="555.167" y="1228.5"/>
      <point x="567.5" y="1243.5" type="curve" smooth="yes"/>
      <point x="579.833" y="1258.5"/>
      <point x="596" y="1266"/>
      <point x="616" y="1266" type="curve" smooth="yes"/>
      <point x="637.333" y="1266"/>
      <point x="654" y="1258.67"/>
      <point x="666" y="1244" type="curve" smooth="yes"/>
      <point x="678" y="1229.33"/>
      <point x="684" y="1210"/>
      <point x="684" y="1186" type="curve" smooth="yes"/>
      <point x="684" y="1168"/>
      <point x="679.5" y="1143.67"/>
      <point x="670.5" y="1113" type="curve" smooth="yes"/>
      <point x="661.5" y="1082.33"/>
      <point x="653" y="1054"/>
      <point x="645" y="1028" type="curve"/>
      <point x="659" y="1018.67"/>
      <point x="668.667" y="1009"/>
      <point x="674" y="999" type="curve"/>
      <point x="734" y="1046.33"/>
      <point x="779.667" y="1075"/>
      <point x="811" y="1085" type="curve" smooth="yes"/>
      <point x="827.667" y="1088.33"/>
      <point x="838" y="1090"/>
      <point x="842" y="1090" type="curve" smooth="yes"/>
      <point x="876.667" y="1090"/>
      <point x="899" y="1074.67"/>
    </contour>
  </outline>
</glyph>
<glyph name="plus" format="1">
  <advance width="1229"/>
  <unicode hex="002B"/>
  <outline>
    <contour>
      <point x="1145" y="672" type="line"/>
      <point x="666" y="672" type="line"/>
      <point x="666" y="172" type="line"/>
      <point x="563" y="172" type="line"/>
      <point x="563" y="672" type="line"/>
      <point x="84" y="672" type="line"/>
      <point x="84" y="774" type="line"/>
      <point x="563" y="774" type="line"/>
      <point x="563" y="1274" type="line"/>
      <point x="666" y="1274" type="line"/>
      <point x="666" y="774" type="line"/>
      <point x="1145" y="774" type="line"/>
    </contour>
  </outline>
</glyph>
<glyph name="comma" format="1">
  <advance width="1229"/>
  <unicode hex="002C"/>
  <outline>
    <contour>
      <point x="745" y="80" type="curve" smooth="yes"/>
      <point x="745" y="17.333"/>
      <point x="718.999" y="-39.001"/>
      <point x="666.999" y="-89.001" type="curve" smooth="yes"/>
      <point x="614.999" y="-139.001"/>
      <point x="554.999" y="-173.668"/>
      <point x="486.999" y="-193.001" type="curve"/>
      <point x="488.999" y="-100.001" type="line"/>
      <point x="517.666" y="-92.001"/>
      <point x="544.166" y="-80.334"/>
      <point x="568.499" y="-65.001" type="curve" smooth="yes"/>
      <point x="592.832" y="-49.668"/>
      <point x="610.999" y="-30.668"/>
      <point x="622.999" y="-8.00098" type="curve"/>
      <point x="618.332" y="-9.33398"/>
      <point x="611.332" y="-10.001"/>
      <point x="601.999" y="-10.001" type="curve" smooth="yes"/>
      <point x="567.999" y="-10.001"/>
      <point x="539.666" y="0.499023"/>
      <point x="516.999" y="21.499" type="curve" smooth="yes"/>
      <point x="494.332" y="42.499"/>
      <point x="482.999" y="69.999"/>
      <point x="482.999" y="103.999" type="curve" smooth="yes"/>
      <point x="482.999" y="140.666"/>
      <point x="494.999" y="171.333"/>
      <point x="518.999" y="196" type="curve" smooth="yes"/>
      <point x="542.999" y="220.667"/>
      <point x="573.332" y="233"/>
      <point x="609.999" y="233" type="curve" smooth="yes"/>
      <point x="650.666" y="233"/>
      <point x="683.333" y="217.5"/>
      <point x="708" y="186.5" type="curve" smooth="yes"/>
      <point x="732.667" y="155.5"/>
      <point x="745" y="120"/>
    </contour>
  </outline>
</glyph>
<glyph name="hyphen" format="1">
  <advance width="1229"/>
  <unicode hex="002D"/>
  <outline>
    <contour>
      <point x="887" y="578" type="line"/>
      <point x="342" y="578" type="line"/>
      <point x="342" y="664" type="line"/>
      <point x="887" y="664" type="line"/>
    </contour>
  </outline>
</glyph>
<glyph name="period" format="1">
  <advance width="1229"/>
  <unicode hex="002E"/>
  <outline>
    <contour>
      <point x="745" y="106" type="curve" smooth="yes"/>
      <point x="745" y="70.667"/>
      <point x="732.333" y="40"/>
      <point x="707" y="14" type="curve" smooth="yes"/>
      <point x="681.667" y="-12"/>
      <point x="650.667" y="-25"/>
      <point x="614" y="-25" type="curve" smooth="yes"/>
      <point x="578.667" y="-25"/>
      <point x="548" y="-12"/>
      <point x="522" y="14" type="curve" smooth="yes"/>
      <point x="496" y="40"/>
      <point x="483" y="70.667"/>
      <point x="483" y="106" type="curve" smooth="yes"/>
      <point x="483" y="142"/>
      <point x="496" y="173"/>
      <point x="522" y="199" type="curve" smooth="yes"/>
      <point x="548" y="225"/>
      <point x="578.667" y="238"/>
      <point x="614" y="238" type="curve" smooth="yes"/>
      <point x="650.667" y="238"/>
      <point x="681.667" y="225"/>
      <point x="707" y="199" type="curve" smooth="yes"/>
      <point x="732.333" y="173"/>
      <point x="745" y="142"/>
    </contour>
  </outline>
</glyph>
<glyph name="slash" format="1">
  <advance width="1229"/>
  <unicode hex="002F"/>
  <outline>
    <contour>
      <point x="975" y="1442" type="line"/>
      <point x="360" y="-33" type="line"/>
      <point x="254" y="-35" type="line"/>
      <point x="866" y="1438" type="line"/>
    </contour>
  </outline>
</glyph>
<glyph name="zero" format="1">
  <advance width="1229"/>
  <unicode hex="0030"/>
  <outline>
    <contour>
      <point x="1028" y="621" type="curve" smooth="yes"/>
      <point x="1028" y="467"/>
      <point x="1008.17" y="341.67"/>
      <point x="968.5" y="245.003" type="curve" smooth="yes"/>
      <point x="928.833" y="148.336"/>
      <point x="877.833" y="79.1689"/>
      <point x="815.5" y="37.502" type="curve" smooth="yes"/>
      <point x="753.167" y="-4.16504"/>
      <point x="686" y="-24.998"/>
      <point x="614" y="-24.998" type="curve" smooth="yes"/>
      <point x="562.667" y="-24.998"/>
      <point x="512.834" y="-13.998"/>
      <point x="464.501" y="8.00195" type="curve" smooth="yes"/>
      <point x="416.168" y="30.002"/>
      <point x="371.668" y="67.1689"/>
      <point x="331.001" y="119.502" type="curve" smooth="yes"/>
      <point x="290.334" y="171.835"/>
      <point x="258.501" y="239.668"/>
      <point x="235.501" y="323.001" type="curve" smooth="yes"/>
      <point x="212.501" y="406.334"/>
      <point x="201.001" y="505.667"/>
      <point x="201.001" y="621" type="curve" smooth="yes"/>
      <point x="201.001" y="736.333"/>
      <point x="212.501" y="835.833"/>
      <point x="235.501" y="919.5" type="curve" smooth="yes"/>
      <point x="258.501" y="1003.17"/>
      <point x="290.334" y="1070.83"/>
      <point x="331.001" y="1122.5" type="curve" smooth="yes"/>
      <point x="371.668" y="1174.17"/>
      <point x="416.168" y="1211"/>
      <point x="464.501" y="1233" type="curve" smooth="yes"/>
      <point x="512.834" y="1255"/>
      <point x="562.667" y="1266"/>
      <point x="614" y="1266" type="curve" smooth="yes"/>
      <point x="686" y="1266"/>
      <point x="753.167" y="1245.17"/>
      <point x="815.5" y="1203.5" type="curve" smooth="yes"/>
      <point x="877.833" y="1161.83"/>
      <point x="928.833" y="1092.67"/>
      <point x="968.5" y="996" type="curve" smooth="yes"/>
      <point x="1008.17" y="899.333"/>
      <point x="1028" y="774.333"/>
    </contour>
    <contour>
      <point x="930" y="621.003" type="curve" smooth="yes"/>
      <point x="930" y="751.67"/>
      <point x="915.667" y="858.837"/>
      <point x="887" y="942.504" type="curve" smooth="yes"/>
      <point x="858.333" y="1026.17"/>
      <point x="820.333" y="1086.67"/>
      <point x="773" y="1124" type="curve" smooth="yes"/>
      <point x="725.667" y="1161.34"/>
      <point x="672.667" y="1180"/>
      <point x="614" y="1180" type="curve" smooth="yes"/>
      <point x="556.667" y="1180"/>
      <point x="504.167" y="1161.34"/>
      <point x="456.5" y="1124" type="curve" smooth="yes"/>
      <point x="408.833" y="1086.67"/>
      <point x="370.666" y="1026.17"/>
      <point x="341.999" y="942.504" type="curve" smooth="yes"/>
      <point x="313.332" y="858.837"/>
      <point x="298.999" y="751.67"/>
      <point x="298.999" y="621.003" type="curve" smooth="yes"/>
      <point x="298.999" y="490.336"/>
      <point x="313.332" y="383.003"/>
      <point x="341.999" y="299.003" type="curve" smooth="yes"/>
      <point x="370.666" y="215.003"/>
      <point x="408.833" y="154.336"/>
      <point x="456.5" y="117.003" type="curve" smooth="yes"/>
      <point x="504.167" y="79.6699"/>
      <point x="556.667" y="61.0029"/>
      <point x="614" y="61.0029" type="curve" smooth="yes"/>
      <point x="672.667" y="61.0029"/>
      <point x="725.667" y="79.6699"/>
      <point x="773" y="117.003" type="curve" smooth="yes"/>
      <point x="820.333" y="154.336"/>
      <point x="858.333" y="215.003"/>
      <point x="887" y="299.003" type="curve" smooth="yes"/>
      <point x="915.667" y="383.003"/>
      <point x="930" y="490.336"/>
    </contour>
  </outline>
</glyph>
<glyph name="one" format="1">
  <advance width="1229"/>
  <unicode hex="0031"/>
  <outline>
    <contour>
      <point x="950" y="0" type="line"/>
      <point x="276" y="0.000976562" type="line"/>
      <point x="276" y="86.001" type="line"/>
      <point x="578" y="86.001" type="line"/>
      <point x="578" y="1120" type="line"/>
      <point x="500" y="1104.67"/>
      <point x="407.667" y="1096"/>
      <point x="301" y="1094" type="curve"/>
      <point x="287" y="1176" type="line"/>
      <point x="453.667" y="1179.33"/>
      <point x="552.667" y="1199.67"/>
      <point x="584" y="1237" type="curve" smooth="yes"/>
      <point x="598.667" y="1256.33"/>
      <point x="615" y="1266"/>
      <point x="633" y="1266" type="curve" smooth="yes"/>
      <point x="647" y="1266"/>
      <point x="656.667" y="1257.33"/>
      <point x="662" y="1240" type="curve" smooth="yes"/>
      <point x="667.333" y="1222.67"/>
      <point x="670" y="1202.67"/>
      <point x="670" y="1180" type="curve" smooth="yes"/>
      <point x="670" y="86" type="line"/>
      <point x="950" y="86" type="line"/>
    </contour>
  </outline>
</glyph>
<glyph name="two" format="1">
  <advance width="1229"/>
  <unicode hex="0032"/>
  <outline>
    <contour>
      <point x="1010" y="205" type="line"/>
      <point x="911" y="2.00293" type="line"/>
      <point x="227" y="0.00292969" type="line"/>
      <point x="227" y="94.0029" type="line"/>
      <point x="623" y="522.003" type="line" smooth="yes"/>
      <point x="765" y="679.336"/>
      <point x="836" y="821.336"/>
      <point x="836" y="948.003" type="curve" smooth="yes"/>
      <point x="836" y="985.336"/>
      <point x="826.333" y="1021.67"/>
      <point x="807" y="1057" type="curve" smooth="yes"/>
      <point x="787.667" y="1092.33"/>
      <point x="759.334" y="1121.67"/>
      <point x="722.001" y="1145" type="curve" smooth="yes"/>
      <point x="684.668" y="1168.33"/>
      <point x="640.668" y="1180"/>
      <point x="590.001" y="1180" type="curve" smooth="yes"/>
      <point x="496.001" y="1180"/>
      <point x="427.668" y="1143"/>
      <point x="385.001" y="1069" type="curve"/>
      <point x="385.001" y="1031"/>
      <point x="378.168" y="998.001"/>
      <point x="364.501" y="970.001" type="curve" smooth="yes"/>
      <point x="350.834" y="942.001"/>
      <point x="329.667" y="928.001"/>
      <point x="301" y="928.001" type="curve" smooth="yes"/>
      <point x="286.333" y="928.001"/>
      <point x="275.166" y="933.168"/>
      <point x="267.499" y="943.501" type="curve" smooth="yes"/>
      <point x="259.832" y="953.834"/>
      <point x="255.999" y="965.667"/>
      <point x="255.999" y="979" type="curve" smooth="yes"/>
      <point x="255.999" y="1035.67"/>
      <point x="272.332" y="1085.67"/>
      <point x="304.999" y="1129" type="curve" smooth="yes"/>
      <point x="337.666" y="1172.33"/>
      <point x="379.999" y="1206"/>
      <point x="431.999" y="1230" type="curve" smooth="yes"/>
      <point x="483.999" y="1254"/>
      <point x="537.332" y="1266"/>
      <point x="591.999" y="1266" type="curve" smooth="yes"/>
      <point x="651.332" y="1266"/>
      <point x="707.332" y="1253"/>
      <point x="759.999" y="1227" type="curve" smooth="yes"/>
      <point x="812.666" y="1201"/>
      <point x="854.833" y="1163.67"/>
      <point x="886.5" y="1115" type="curve" smooth="yes"/>
      <point x="918.167" y="1066.33"/>
      <point x="934" y="1011.33"/>
      <point x="934" y="950" type="curve" smooth="yes"/>
      <point x="934" y="812"/>
      <point x="870.333" y="672"/>
      <point x="743" y="530" type="curve" smooth="yes"/>
      <point x="338" y="86" type="line"/>
      <point x="854" y="86" type="line"/>
      <point x="926" y="223" type="line"/>
    </contour>
  </outline>
</glyph>
<glyph name="three" format="1">
  <advance width="1229"/>
  <unicode hex="0033"/>
  <outline>
    <contour>
      <point x="961" y="352" type="curve" smooth="yes"/>
      <point x="961" y="275.333"/>
      <point x="943.001" y="208.671"/>
      <point x="907.001" y="152.004" type="curve" smooth="yes"/>
      <point x="871.001" y="95.3369"/>
      <point x="821.168" y="51.6699"/>
      <point x="757.501" y="21.0029" type="curve" smooth="yes"/>
      <point x="693.834" y="-9.66406"/>
      <point x="625.001" y="-24.9971"/>
      <point x="551.001" y="-24.9971" type="curve" smooth="yes"/>
      <point x="483.668" y="-24.9971"/>
      <point x="418.001" y="-17.8301"/>
      <point x="354.001" y="-3.49707" type="curve" smooth="yes"/>
      <point x="290.001" y="10.8359"/>
      <point x="231.334" y="34.0029"/>
      <point x="178.001" y="66.0029" type="curve"/>
      <point x="217.001" y="143.003" type="line"/>
      <point x="263.668" y="116.336"/>
      <point x="315.835" y="96.0029"/>
      <point x="373.502" y="82.0029" type="curve" smooth="yes"/>
      <point x="431.169" y="68.0029"/>
      <point x="486.336" y="61.0029"/>
      <point x="539.003" y="61.0029" type="curve" smooth="yes"/>
      <point x="633.003" y="61.0029"/>
      <point x="710.336" y="85.6699"/>
      <point x="771.003" y="135.003" type="curve" smooth="yes"/>
      <point x="831.67" y="184.336"/>
      <point x="862.003" y="254.669"/>
      <point x="862.003" y="346.002" type="curve" smooth="yes"/>
      <point x="862.003" y="404.002"/>
      <point x="850.503" y="454.669"/>
      <point x="827.503" y="498.002" type="curve" smooth="yes"/>
      <point x="804.503" y="541.335"/>
      <point x="771.17" y="574.335"/>
      <point x="727.503" y="597.002" type="curve" smooth="yes"/>
      <point x="683.836" y="619.669"/>
      <point x="632.336" y="631.002"/>
      <point x="573.003" y="631.002" type="curve" smooth="yes"/>
      <point x="485.003" y="631.002" type="line"/>
      <point x="485.003" y="717.002" type="line"/>
      <point x="543.003" y="717.002" type="line" smooth="yes"/>
      <point x="713.67" y="717.002"/>
      <point x="799.003" y="787.335"/>
      <point x="799.003" y="928.002" type="curve" smooth="yes"/>
      <point x="799.003" y="1015.33"/>
      <point x="775.17" y="1079.17"/>
      <point x="727.503" y="1119.5" type="curve" smooth="yes"/>
      <point x="679.836" y="1159.83"/>
      <point x="623.669" y="1180"/>
      <point x="559.002" y="1180" type="curve" smooth="yes"/>
      <point x="497.002" y="1180"/>
      <point x="443.669" y="1160.67"/>
      <point x="399.002" y="1122" type="curve"/>
      <point x="396.335" y="1090.67"/>
      <point x="385.168" y="1058.33"/>
      <point x="365.501" y="1025" type="curve" smooth="yes"/>
      <point x="345.834" y="991.669"/>
      <point x="321.667" y="975.002"/>
      <point x="293" y="975.002" type="curve" smooth="yes"/>
      <point x="264.333" y="975.002"/>
      <point x="250" y="993.335"/>
      <point x="250" y="1030" type="curve" smooth="yes"/>
      <point x="250" y="1060.67"/>
      <point x="259.333" y="1090.17"/>
      <point x="278" y="1118.5" type="curve" smooth="yes"/>
      <point x="296.667" y="1146.83"/>
      <point x="321.834" y="1172"/>
      <point x="353.501" y="1194" type="curve" smooth="yes"/>
      <point x="385.168" y="1216"/>
      <point x="420.168" y="1233.5"/>
      <point x="458.501" y="1246.5" type="curve" smooth="yes"/>
      <point x="496.834" y="1259.5"/>
      <point x="536.667" y="1266"/>
      <point x="578" y="1266" type="curve" smooth="yes"/>
      <point x="639.333" y="1266"/>
      <point x="694.333" y="1251.67"/>
      <point x="743" y="1223" type="curve" smooth="yes"/>
      <point x="791.667" y="1194.33"/>
      <point x="829.5" y="1155.17"/>
      <point x="856.5" y="1105.5" type="curve" smooth="yes"/>
      <point x="883.5" y="1055.83"/>
      <point x="897" y="1000"/>
      <point x="897" y="938.001" type="curve" smooth="yes"/>
      <point x="897" y="884.001"/>
      <point x="884.333" y="833.834"/>
      <point x="859" y="787.501" type="curve" smooth="yes"/>
      <point x="833.667" y="741.168"/>
      <point x="798" y="705.335"/>
      <point x="752" y="680.002" type="curve"/>
      <point x="819.333" y="651.335"/>
      <point x="871" y="608.668"/>
      <point x="907" y="552.001" type="curve" smooth="yes"/>
      <point x="943" y="495.334"/>
      <point x="961" y="428.667"/>
    </contour>
  </outline>
</glyph>
<glyph name="four" format="1">
  <advance width="1229"/>
  <unicode hex="0034"/>
  <outline>
    <contour>
      <point x="1063" y="0" type="line"/>
      <point x="582" y="-0.00195312" type="line"/>
      <point x="582" y="85.998" type="line"/>
      <point x="791" y="85.998" type="line"/>
      <point x="791" y="331.998" type="line"/>
      <point x="176" y="331.998" type="line"/>
      <point x="176" y="425.998" type="line"/>
      <point x="226" y="510.665"/>
      <point x="269.167" y="585.832"/>
      <point x="305.5" y="651.499" type="curve" smooth="yes"/>
      <point x="341.833" y="717.166"/>
      <point x="378" y="787.833"/>
      <point x="414" y="863.5" type="curve" smooth="yes"/>
      <point x="450" y="939.167"/>
      <point x="483.333" y="1017.17"/>
      <point x="514" y="1097.5" type="curve" smooth="yes"/>
      <point x="544.667" y="1177.83"/>
      <point x="570" y="1257"/>
      <point x="590" y="1335" type="curve"/>
      <point x="682" y="1309" type="line"/>
      <point x="642.667" y="1161.67"/>
      <point x="589" y="1019"/>
      <point x="521" y="881" type="curve" smooth="yes"/>
      <point x="453" y="743"/>
      <point x="366.667" y="588.667"/>
      <point x="262" y="418" type="curve"/>
      <point x="791" y="418" type="line"/>
      <point x="791" y="860" type="line"/>
      <point x="883" y="860" type="line"/>
      <point x="883" y="418" type="line"/>
      <point x="1063" y="418" type="line"/>
      <point x="1063" y="332" type="line"/>
      <point x="883" y="332" type="line"/>
      <point x="883" y="86" type="line"/>
      <point x="1063" y="86" type="line"/>
    </contour>
  </outline>
</glyph>
<glyph name="five" format="1">
  <advance width="1229"/>
  <unicode hex="0035"/>
  <outline>
    <contour>
      <point x="944" y="438" type="curve" smooth="yes"/>
      <point x="944" y="368.667"/>
      <point x="931.668" y="305.498"/>
      <point x="907.001" y="248.498" type="curve" smooth="yes"/>
      <point x="882.334" y="191.498"/>
      <point x="847.001" y="142.331"/>
      <point x="801.001" y="100.998" type="curve" smooth="yes"/>
      <point x="755.001" y="59.665"/>
      <point x="702.834" y="28.332"/>
      <point x="644.501" y="6.99902" type="curve" smooth="yes"/>
      <point x="586.168" y="-14.334"/>
      <point x="522.335" y="-25.001"/>
      <point x="453.002" y="-25.001" type="curve" smooth="yes"/>
      <point x="405.669" y="-25.001"/>
      <point x="359.002" y="-20.334"/>
      <point x="313.002" y="-11.001" type="curve" smooth="yes"/>
      <point x="267.002" y="-1.66797"/>
      <point x="219.335" y="12.999"/>
      <point x="170.002" y="32.999" type="curve"/>
      <point x="193.002" y="114.999" type="line"/>
      <point x="239.669" y="95.666"/>
      <point x="282.169" y="81.833"/>
      <point x="320.502" y="73.5" type="curve" smooth="yes"/>
      <point x="358.835" y="65.167"/>
      <point x="400.668" y="61"/>
      <point x="446.001" y="61" type="curve" smooth="yes"/>
      <point x="521.334" y="61"/>
      <point x="589.334" y="76"/>
      <point x="650.001" y="106" type="curve" smooth="yes"/>
      <point x="710.668" y="136"/>
      <point x="758.501" y="179"/>
      <point x="793.501" y="235" type="curve" smooth="yes"/>
      <point x="828.501" y="291"/>
      <point x="846.001" y="356.667"/>
      <point x="846.001" y="432" type="curve" smooth="yes"/>
      <point x="846.001" y="496.667"/>
      <point x="832.668" y="554"/>
      <point x="806.001" y="604" type="curve" smooth="yes"/>
      <point x="779.334" y="654"/>
      <point x="741.167" y="692.833"/>
      <point x="691.5" y="720.5" type="curve" smooth="yes"/>
      <point x="641.833" y="748.167"/>
      <point x="585.333" y="762"/>
      <point x="522" y="762" type="curve" smooth="yes"/>
      <point x="463.333" y="762"/>
      <point x="385" y="747.667"/>
      <point x="287" y="719" type="curve"/>
      <point x="326" y="1241" type="line"/>
      <point x="889" y="1241" type="line"/>
      <point x="889" y="1155" type="line"/>
      <point x="408" y="1155" type="line"/>
      <point x="379" y="827" type="line"/>
      <point x="441.667" y="841"/>
      <point x="488.667" y="848"/>
      <point x="520" y="848" type="curve" smooth="yes"/>
      <point x="646.667" y="848"/>
      <point x="749" y="811.333"/>
      <point x="827" y="738" type="curve" smooth="yes"/>
      <point x="905" y="664.667"/>
      <point x="944" y="564.667"/>
    </contour>
  </outline>
</glyph>
<glyph name="six" format="1">
  <advance width="1229"/>
  <unicode hex="0036"/>
  <outline>
    <contour>
      <point x="1008" y="387" type="curve" smooth="yes"/>
      <point x="1008" y="316.333"/>
      <point x="992.167" y="249.166"/>
      <point x="960.5" y="185.499" type="curve" smooth="yes"/>
      <point x="928.833" y="121.832"/>
      <point x="883.833" y="70.832"/>
      <point x="825.5" y="32.499" type="curve" smooth="yes"/>
      <point x="767.167" y="-5.83398"/>
      <point x="701.667" y="-25.001"/>
      <point x="629" y="-25.001" type="curve" smooth="yes"/>
      <point x="585.667" y="-25.001"/>
      <point x="540.334" y="-16.834"/>
      <point x="493.001" y="-0.500977" type="curve" smooth="yes"/>
      <point x="445.668" y="15.832"/>
      <point x="401.501" y="43.332"/>
      <point x="360.501" y="81.999" type="curve" smooth="yes"/>
      <point x="319.501" y="120.666"/>
      <point x="285.668" y="175.499"/>
      <point x="259.001" y="246.499" type="curve" smooth="yes"/>
      <point x="232.334" y="317.499"/>
      <point x="219.001" y="403.999"/>
      <point x="219.001" y="505.999" type="curve" smooth="yes"/>
      <point x="219.001" y="608.666"/>
      <point x="231.668" y="705.333"/>
      <point x="257.001" y="796" type="curve" smooth="yes"/>
      <point x="282.334" y="886.667"/>
      <point x="321.167" y="967.334"/>
      <point x="373.5" y="1038" type="curve" smooth="yes"/>
      <point x="425.833" y="1108.67"/>
      <point x="492.666" y="1164.17"/>
      <point x="573.999" y="1204.5" type="curve" smooth="yes"/>
      <point x="655.332" y="1244.83"/>
      <point x="749.999" y="1265.33"/>
      <point x="857.999" y="1266" type="curve"/>
      <point x="857.999" y="1180" type="line"/>
      <point x="751.999" y="1180"/>
      <point x="658.999" y="1154.33"/>
      <point x="578.999" y="1103" type="curve" smooth="yes"/>
      <point x="498.999" y="1051.67"/>
      <point x="436.832" y="983.168"/>
      <point x="392.499" y="897.501" type="curve" smooth="yes"/>
      <point x="348.166" y="811.834"/>
      <point x="322.999" y="719.667"/>
      <point x="316.999" y="621" type="curve"/>
      <point x="314.999" y="627" type="line"/>
      <point x="346.332" y="677"/>
      <point x="391.332" y="718.167"/>
      <point x="449.999" y="750.5" type="curve" smooth="yes"/>
      <point x="508.666" y="782.833"/>
      <point x="568.333" y="799"/>
      <point x="629" y="799" type="curve" smooth="yes"/>
      <point x="685" y="799"/>
      <point x="736.5" y="787.667"/>
      <point x="783.5" y="765" type="curve" smooth="yes"/>
      <point x="830.5" y="742.333"/>
      <point x="870.5" y="712"/>
      <point x="903.5" y="674" type="curve" smooth="yes"/>
      <point x="936.5" y="636"/>
      <point x="962.167" y="592.5"/>
      <point x="980.5" y="543.5" type="curve" smooth="yes"/>
      <point x="998.833" y="494.5"/>
      <point x="1008" y="442.333"/>
    </contour>
    <contour>
      <point x="909" y="387" type="curve" smooth="yes"/>
      <point x="909" y="442.333"/>
      <point x="897.001" y="495"/>
      <point x="873.001" y="545" type="curve" smooth="yes"/>
      <point x="849.001" y="595"/>
      <point x="815.501" y="635.5"/>
      <point x="772.501" y="666.5" type="curve" smooth="yes"/>
      <point x="729.501" y="697.5"/>
      <point x="681.668" y="713"/>
      <point x="629.001" y="713" type="curve" smooth="yes"/>
      <point x="573.001" y="713"/>
      <point x="521.668" y="699.5"/>
      <point x="475.001" y="672.5" type="curve" smooth="yes"/>
      <point x="428.334" y="645.5"/>
      <point x="391.501" y="608"/>
      <point x="364.501" y="560" type="curve" smooth="yes"/>
      <point x="337.501" y="512"/>
      <point x="324.001" y="459.667"/>
      <point x="324.001" y="403" type="curve" smooth="yes"/>
      <point x="324.001" y="361"/>
      <point x="330.668" y="320"/>
      <point x="344.001" y="280" type="curve" smooth="yes"/>
      <point x="357.334" y="240"/>
      <point x="377.667" y="203"/>
      <point x="405" y="169" type="curve" smooth="yes"/>
      <point x="432.333" y="135"/>
      <point x="465" y="108.5"/>
      <point x="503" y="89.5" type="curve" smooth="yes"/>
      <point x="541" y="70.5"/>
      <point x="583" y="61"/>
      <point x="629" y="61" type="curve" smooth="yes"/>
      <point x="681.667" y="61"/>
      <point x="729.5" y="76.5"/>
      <point x="772.5" y="107.5" type="curve" smooth="yes"/>
      <point x="815.5" y="138.5"/>
      <point x="849" y="179"/>
      <point x="873" y="229" type="curve" smooth="yes"/>
      <point x="897" y="279"/>
      <point x="909" y="331.667"/>
    </contour>
  </outline>
</glyph>
<glyph name="seven" format="1">
  <advance width="1229"/>
  <unicode hex="0037"/>
  <outline>
    <contour>
      <point x="973" y="1241" type="line"/>
      <point x="455" y="-23" type="line"/>
      <point x="354" y="-25" type="line"/>
      <point x="842" y="1155" type="line"/>
      <point x="227" y="1155" type="line"/>
      <point x="227" y="1241" type="line"/>
    </contour>
  </outline>
</glyph>
<glyph name="eight" format="1">
  <advance width="1229"/>
  <unicode hex="0038"/>
  <outline>
    <contour>
      <point x="1022" y="330" type="curve" smooth="yes"/>
      <point x="1022" y="264.667"/>
      <point x="1003.33" y="204.67"/>
      <point x="966" y="150.003" type="curve" smooth="yes"/>
      <point x="928.667" y="95.3359"/>
      <point x="878.334" y="52.5029"/>
      <point x="815.001" y="21.5029" type="curve" smooth="yes"/>
      <point x="751.668" y="-9.49707"/>
      <point x="684.668" y="-24.9971"/>
      <point x="614.001" y="-24.9971" type="curve" smooth="yes"/>
      <point x="562.668" y="-24.9971"/>
      <point x="512.501" y="-16.3301"/>
      <point x="463.501" y="1.00293" type="curve" smooth="yes"/>
      <point x="414.501" y="18.3359"/>
      <point x="370.501" y="43.1689"/>
      <point x="331.501" y="75.502" type="curve" smooth="yes"/>
      <point x="292.501" y="107.835"/>
      <point x="262.001" y="146.168"/>
      <point x="240.001" y="190.501" type="curve" smooth="yes"/>
      <point x="218.001" y="234.834"/>
      <point x="207.001" y="281.334"/>
      <point x="207.001" y="330.001" type="curve" smooth="yes"/>
      <point x="207.001" y="413.334"/>
      <point x="233.668" y="483.667"/>
      <point x="287.001" y="541" type="curve" smooth="yes"/>
      <point x="340.334" y="598.333"/>
      <point x="407.667" y="636.333"/>
      <point x="489" y="655" type="curve"/>
      <point x="419.667" y="687.667"/>
      <point x="362.834" y="732.167"/>
      <point x="318.501" y="788.5" type="curve" smooth="yes"/>
      <point x="274.168" y="844.833"/>
      <point x="252.001" y="908.333"/>
      <point x="252.001" y="979" type="curve" smooth="yes"/>
      <point x="252.001" y="1038.33"/>
      <point x="268.834" y="1089.83"/>
      <point x="302.501" y="1133.5" type="curve" smooth="yes"/>
      <point x="336.168" y="1177.17"/>
      <point x="380.668" y="1210.17"/>
      <point x="436.001" y="1232.5" type="curve" smooth="yes"/>
      <point x="491.334" y="1254.83"/>
      <point x="550.667" y="1266"/>
      <point x="614" y="1266" type="curve" smooth="yes"/>
      <point x="678" y="1266"/>
      <point x="737.667" y="1254.83"/>
      <point x="793" y="1232.5" type="curve" smooth="yes"/>
      <point x="848.333" y="1210.17"/>
      <point x="892.833" y="1177.17"/>
      <point x="926.5" y="1133.5" type="curve" smooth="yes"/>
      <point x="960.167" y="1089.83"/>
      <point x="977" y="1038.33"/>
      <point x="977" y="979" type="curve" smooth="yes"/>
      <point x="977" y="907.667"/>
      <point x="954.5" y="843.667"/>
      <point x="909.5" y="787" type="curve" smooth="yes"/>
      <point x="864.5" y="730.333"/>
      <point x="807.667" y="686.333"/>
      <point x="739" y="655" type="curve"/>
      <point x="779" y="646.333"/>
      <point x="816.667" y="632"/>
      <point x="852" y="612" type="curve" smooth="yes"/>
      <point x="887.333" y="592"/>
      <point x="917.333" y="568.833"/>
      <point x="942" y="542.5" type="curve" smooth="yes"/>
      <point x="966.667" y="516.167"/>
      <point x="986.167" y="484.667"/>
      <point x="1000.5" y="448" type="curve" smooth="yes"/>
      <point x="1014.83" y="411.333"/>
      <point x="1022" y="372"/>
    </contour>
    <contour>
      <point x="879" y="977.003" type="curve" smooth="yes"/>
      <point x="879" y="1043.67"/>
      <point x="852.835" y="1094.17"/>
      <point x="800.502" y="1128.5" type="curve" smooth="yes"/>
      <point x="748.169" y="1162.83"/>
      <point x="686.002" y="1180"/>
      <point x="614.002" y="1180" type="curve" smooth="yes"/>
      <point x="543.335" y="1180"/>
      <point x="481.668" y="1162.83"/>
      <point x="429.001" y="1128.5" type="curve" smooth="yes"/>
      <point x="376.334" y="1094.17"/>
      <point x="350.001" y="1043.67"/>
      <point x="350.001" y="977" type="curve" smooth="yes"/>
      <point x="350.001" y="930.333"/>
      <point x="359.501" y="890.333"/>
      <point x="378.501" y="857" type="curve" smooth="yes"/>
      <point x="397.501" y="823.667"/>
      <point x="424.668" y="795.334"/>
      <point x="460.001" y="772.001" type="curve" smooth="yes"/>
      <point x="495.334" y="748.668"/>
      <point x="546.667" y="721.335"/>
      <point x="614" y="690.002" type="curve"/>
      <point x="680.667" y="720.669"/>
      <point x="732" y="747.836"/>
      <point x="768" y="771.503" type="curve" smooth="yes"/>
      <point x="804" y="795.17"/>
      <point x="831.5" y="823.67"/>
      <point x="850.5" y="857.003" type="curve" smooth="yes"/>
      <point x="869.5" y="890.336"/>
      <point x="879" y="930.336"/>
    </contour>
    <contour>
      <point x="924.002" y="338" type="curve" smooth="yes"/>
      <point x="924.002" y="392"/>
      <point x="909.004" y="439"/>
      <point x="879.004" y="479" type="curve" smooth="yes"/>
      <point x="849.004" y="519"/>
      <point x="810.171" y="549.5"/>
      <point x="762.504" y="570.5" type="curve" smooth="yes"/>
      <point x="714.837" y="591.5"/>
      <point x="665.337" y="602"/>
      <point x="614.004" y="602" type="curve" smooth="yes"/>
      <point x="563.337" y="602"/>
      <point x="514.17" y="591.5"/>
      <point x="466.503" y="570.5" type="curve" smooth="yes"/>
      <point x="418.836" y="549.5"/>
      <point x="380.003" y="519"/>
      <point x="350.003" y="479" type="curve" smooth="yes"/>
      <point x="320.003" y="439"/>
      <point x="305.003" y="392"/>
      <point x="305.003" y="338" type="curve" smooth="yes"/>
      <point x="305.003" y="286.667"/>
      <point x="320.003" y="239.834"/>
      <point x="350.003" y="197.501" type="curve" smooth="yes"/>
      <point x="380.003" y="155.168"/>
      <point x="419.17" y="121.835"/>
      <point x="467.503" y="97.502" type="curve" smooth="yes"/>
      <point x="515.836" y="73.1689"/>
      <point x="564.669" y="61.002"/>
      <point x="614.002" y="61.002" type="curve" smooth="yes"/>
      <point x="664.669" y="61.002"/>
      <point x="714.002" y="73.1689"/>
      <point x="762.002" y="97.502" type="curve" smooth="yes"/>
      <point x="810.002" y="121.835"/>
      <point x="849.002" y="155.168"/>
      <point x="879.002" y="197.501" type="curve" smooth="yes"/>
      <point x="909.002" y="239.834"/>
      <point x="924.002" y="286.667"/>
    </contour>
  </outline>
</glyph>
<glyph name="nine" format="1">
  <advance width="1229"/>
  <unicode hex="0039"/>
  <outline>
    <contour>
      <point x="1008" y="739" type="curve" smooth="yes"/>
      <point x="1008" y="608.333"/>
      <point x="985.5" y="484.329"/>
      <point x="940.5" y="366.996" type="curve" smooth="yes"/>
      <point x="895.5" y="249.663"/>
      <point x="827" y="154.996"/>
      <point x="735" y="82.9961" type="curve" smooth="yes"/>
      <point x="643" y="10.9961"/>
      <point x="529.667" y="-25.0039"/>
      <point x="395" y="-25.0039" type="curve" smooth="yes"/>
      <point x="309" y="-25.0039" type="line"/>
      <point x="309" y="60.9961" type="line"/>
      <point x="412" y="60.9961" type="line" smooth="yes"/>
      <point x="485.333" y="60.9961"/>
      <point x="552.166" y="76.9961"/>
      <point x="612.499" y="108.996" type="curve" smooth="yes"/>
      <point x="672.832" y="140.996"/>
      <point x="724.332" y="183.829"/>
      <point x="766.999" y="237.496" type="curve" smooth="yes"/>
      <point x="809.666" y="291.163"/>
      <point x="843.333" y="352.33"/>
      <point x="868" y="420.997" type="curve" smooth="yes"/>
      <point x="892.667" y="489.664"/>
      <point x="906.334" y="558.331"/>
      <point x="909.001" y="626.998" type="curve"/>
      <point x="915.001" y="622.998" type="line"/>
      <point x="883.668" y="572.331"/>
      <point x="838.501" y="530.164"/>
      <point x="779.501" y="496.497" type="curve" smooth="yes"/>
      <point x="720.501" y="462.83"/>
      <point x="660.001" y="445.997"/>
      <point x="598.001" y="445.997" type="curve" smooth="yes"/>
      <point x="525.334" y="445.997"/>
      <point x="460.501" y="463.83"/>
      <point x="403.501" y="499.497" type="curve" smooth="yes"/>
      <point x="346.501" y="535.164"/>
      <point x="301.834" y="583.497"/>
      <point x="269.501" y="644.497" type="curve" smooth="yes"/>
      <point x="237.168" y="705.497"/>
      <point x="221.001" y="771.997"/>
      <point x="221.001" y="843.997" type="curve" smooth="yes"/>
      <point x="221.001" y="916.664"/>
      <point x="237.001" y="985.831"/>
      <point x="269.001" y="1051.5" type="curve" smooth="yes"/>
      <point x="301.001" y="1117.17"/>
      <point x="346.334" y="1169.33"/>
      <point x="405.001" y="1208" type="curve" smooth="yes"/>
      <point x="463.668" y="1246.67"/>
      <point x="530.668" y="1266"/>
      <point x="606.001" y="1266" type="curve" smooth="yes"/>
      <point x="667.334" y="1266"/>
      <point x="728.667" y="1249.67"/>
      <point x="790" y="1217" type="curve" smooth="yes"/>
      <point x="851.333" y="1184.33"/>
      <point x="903" y="1128.33"/>
      <point x="945" y="1049" type="curve" smooth="yes"/>
      <point x="987" y="969.666"/>
      <point x="1008" y="866.333"/>
    </contour>
    <contour>
      <point x="901" y="835.996" type="curve" smooth="yes"/>
      <point x="901" y="891.996"/>
      <point x="888.833" y="946.496"/>
      <point x="864.5" y="999.496" type="curve" smooth="yes"/>
      <point x="840.167" y="1052.5"/>
      <point x="805.834" y="1095.83"/>
      <point x="761.501" y="1129.5" type="curve" smooth="yes"/>
      <point x="717.168" y="1163.16"/>
      <point x="666.668" y="1180"/>
      <point x="610.001" y="1180" type="curve" smooth="yes"/>
      <point x="554.668" y="1180"/>
      <point x="504.668" y="1164.5"/>
      <point x="460.001" y="1133.5" type="curve" smooth="yes"/>
      <point x="415.334" y="1102.5"/>
      <point x="380.667" y="1062"/>
      <point x="356" y="1012" type="curve" smooth="yes"/>
      <point x="331.333" y="961.996"/>
      <point x="319" y="909.996"/>
      <point x="319" y="855.996" type="curve" smooth="yes"/>
      <point x="319" y="801.996"/>
      <point x="330.167" y="749.996"/>
      <point x="352.5" y="699.996" type="curve" smooth="yes"/>
      <point x="374.833" y="649.996"/>
      <point x="407.5" y="609.496"/>
      <point x="450.5" y="578.496" type="curve" smooth="yes"/>
      <point x="493.5" y="547.496"/>
      <point x="542.667" y="531.996"/>
      <point x="598" y="531.996" type="curve" smooth="yes"/>
      <point x="658" y="531.996"/>
      <point x="710.833" y="547.496"/>
      <point x="756.5" y="578.496" type="curve" smooth="yes"/>
      <point x="802.167" y="609.496"/>
      <point x="837.667" y="648.496"/>
      <point x="863" y="695.496" type="curve" smooth="yes"/>
      <point x="888.333" y="742.496"/>
      <point x="901" y="789.329"/>
    </contour>
  </outline>
</glyph>
<glyph name="colon" format="1">
  <advance width="1229"/>
  <unicode hex="003A"/>
  <outline>
    <contour>
      <point x="745" y="741" type="curve" smooth="yes"/>
      <point x="745" y="705.667"/>
      <point x="732.333" y="675"/>
      <point x="707" y="649" type="curve" smooth="yes"/>
      <point x="681.667" y="623"/>
      <point x="650.667" y="610"/>
      <point x="614" y="610" type="curve" smooth="yes"/>
      <point x="578.667" y="610"/>
      <point x="548" y="623"/>
      <point x="522" y="649" type="curve" smooth="yes"/>
      <point x="496" y="675"/>
      <point x="483" y="705.667"/>
      <point x="483" y="741" type="curve" smooth="yes"/>
      <point x="483" y="777.667"/>
      <point x="496" y="808.667"/>
      <point x="522" y="834" type="curve" smooth="yes"/>
      <point x="548" y="859.333"/>
      <point x="578.667" y="872"/>
      <point x="614" y="872" type="curve" smooth="yes"/>
      <point x="650.667" y="872"/>
      <point x="681.667" y="859.333"/>
      <point x="707" y="834" type="curve" smooth="yes"/>
      <point x="732.333" y="808.667"/>
      <point x="745" y="777.667"/>
    </contour>
    <contour>
      <point x="745" y="106" type="curve" smooth="yes"/>
      <point x="745" y="70.667"/>
      <point x="732.333" y="40"/>
      <point x="707" y="14" type="curve" smooth="yes"/>
      <point x="681.667" y="-12"/>
      <point x="650.667" y="-25"/>
      <point x="614" y="-25" type="curve" smooth="yes"/>
      <point x="578.667" y="-25"/>
      <point x="548" y="-12"/>
      <point x="522" y="14" type="curve" smooth="yes"/>
      <point x="496" y="40"/>
      <point x="483" y="70.667"/>
      <point x="483" y="106" type="curve" smooth="yes"/>
      <point x="483" y="142"/>
      <point x="496" y="173"/>
      <point x="522" y="199" type="curve" smooth="yes"/>
      <point x="548" y="225"/>
      <point x="578.667" y="238"/>
      <point x="614" y="238" type="curve" smooth="yes"/>
      <point x="650.667" y="238"/>
      <point x="681.667" y="225"/>
      <point x="707" y="199" type="curve" smooth="yes"/>
      <point x="732.333" y="173"/>
      <point x="745" y="142"/>
    </contour>
  </outline>
</glyph>
<glyph name="semicolon" format="1">
  <advance width="1229"/>
  <unicode hex="003B"/>
  <outline>
    <contour>
      <point x="766" y="741" type="curve" smooth="yes"/>
      <point x="766" y="705.667"/>
      <point x="753.333" y="675"/>
      <point x="728" y="649" type="curve" smooth="yes"/>
      <point x="702.667" y="623"/>
      <point x="671.667" y="610"/>
      <point x="635" y="610" type="curve" smooth="yes"/>
      <point x="599" y="610"/>
      <point x="568.167" y="623.167"/>
      <point x="542.5" y="649.5" type="curve" smooth="yes"/>
      <point x="516.833" y="675.833"/>
      <point x="504" y="706.333"/>
      <point x="504" y="741" type="curve" smooth="yes"/>
      <point x="504" y="777"/>
      <point x="516.833" y="807.833"/>
      <point x="542.5" y="833.5" type="curve" smooth="yes"/>
      <point x="568.167" y="859.167"/>
      <point x="599" y="872"/>
      <point x="635" y="872" type="curve" smooth="yes"/>
      <point x="671.667" y="872"/>
      <point x="702.667" y="859.333"/>
      <point x="728" y="834" type="curve" smooth="yes"/>
      <point x="753.333" y="808.667"/>
      <point x="766" y="777.667"/>
    </contour>
    <contour>
      <point x="766" y="80" type="curve" smooth="yes"/>
      <point x="766" y="17.333"/>
      <point x="740" y="-39.001"/>
      <point x="688" y="-89.001" type="curve" smooth="yes"/>
      <point x="636" y="-139.001"/>
      <point x="576" y="-173.668"/>
      <point x="508" y="-193.001" type="curve"/>
      <point x="510" y="-100.001" type="line"/>
      <point x="538.667" y="-92.001"/>
      <point x="565.167" y="-80.168"/>
      <point x="589.5" y="-64.501" type="curve" smooth="yes"/>
      <point x="613.833" y="-48.834"/>
      <point x="631.666" y="-30.001"/>
      <point x="642.999" y="-8.00098" type="curve"/>
      <point x="638.999" y="-9.33398"/>
      <point x="632.332" y="-10.001"/>
      <point x="622.999" y="-10.001" type="curve" smooth="yes"/>
      <point x="588.332" y="-10.001"/>
      <point x="559.832" y="0.499023"/>
      <point x="537.499" y="21.499" type="curve" smooth="yes"/>
      <point x="515.166" y="42.499"/>
      <point x="503.999" y="69.999"/>
      <point x="503.999" y="103.999" type="curve" smooth="yes"/>
      <point x="503.999" y="140.666"/>
      <point x="515.666" y="171.333"/>
      <point x="538.999" y="196" type="curve" smooth="yes"/>
      <point x="562.332" y="220.667"/>
      <point x="592.999" y="233"/>
      <point x="630.999" y="233" type="curve" smooth="yes"/>
      <point x="671.666" y="233"/>
      <point x="704.333" y="217.5"/>
      <point x="729" y="186.5" type="curve" smooth="yes"/>
      <point x="753.667" y="155.5"/>
      <point x="766" y="120"/>
    </contour>
  </outline>
</glyph>
<glyph name="less" format="1">
  <advance width="1229"/>
  <unicode hex="003C"/>
  <outline>
    <contour>
      <point x="1036" y="94" type="line"/>
      <point x="979" y="16" type="line"/>
      <point x="193" y="641" type="line"/>
      <point x="979" y="1266" type="line"/>
      <point x="1036" y="1190" type="line"/>
      <point x="340" y="641" type="line"/>
    </contour>
  </outline>
</glyph>
<glyph name="equal" format="1">
  <advance width="1229"/>
  <unicode hex="003D"/>
  <outline>
    <contour>
      <point x="1124" y="829" type="line"/>
      <point x="104" y="829" type="line"/>
      <point x="104" y="932" type="line"/>
      <point x="1124" y="932" type="line"/>
    </contour>
    <contour>
      <point x="1124" y="555" type="line"/>
      <point x="104" y="555" type="line"/>
      <point x="104" y="657" type="line"/>
      <point x="1124" y="657" type="line"/>
    </contour>
  </outline>
</glyph>
<glyph name="greater" format="1">
  <advance width="1229"/>
  <unicode hex="003E"/>
  <outline>
    <contour>
      <point x="1036" y="641" type="line"/>
      <point x="250" y="16" type="line"/>
      <point x="193" y="94" type="line"/>
      <point x="889" y="641" type="line"/>
      <point x="193" y="1190" type="line"/>
      <point x="250" y="1266" type="line"/>
    </contour>
  </outline>
</glyph>
<glyph name="question" format="1">
  <advance width="1229"/>
  <unicode hex="003F"/>
  <outline>
    <contour>
      <point x="874" y="983" type="curve" smooth="yes"/>
      <point x="874" y="947"/>
      <point x="869.834" y="914.5"/>
      <point x="861.501" y="885.5" type="curve" smooth="yes"/>
      <point x="853.168" y="856.5"/>
      <point x="842.168" y="829.833"/>
      <point x="828.501" y="805.5" type="curve" smooth="yes"/>
      <point x="814.834" y="781.167"/>
      <point x="799.334" y="757.667"/>
      <point x="782.001" y="735" type="curve" smooth="yes"/>
      <point x="764.668" y="712.333"/>
      <point x="742.335" y="685"/>
      <point x="715.002" y="653" type="curve" smooth="yes"/>
      <point x="681.669" y="615"/>
      <point x="656.669" y="581.5"/>
      <point x="640.002" y="552.5" type="curve" smooth="yes"/>
      <point x="623.335" y="523.5"/>
      <point x="611.835" y="492.5"/>
      <point x="605.502" y="459.5" type="curve" smooth="yes"/>
      <point x="599.169" y="426.5"/>
      <point x="596.002" y="382"/>
      <point x="596.002" y="326" type="curve"/>
      <point x="508.002" y="326" type="line"/>
      <point x="508.002" y="371" type="line" smooth="yes"/>
      <point x="508.002" y="439.667"/>
      <point x="519.502" y="498.334"/>
      <point x="542.502" y="547.001" type="curve" smooth="yes"/>
      <point x="565.502" y="595.668"/>
      <point x="599.669" y="648.501"/>
      <point x="645.002" y="705.501" type="curve" smooth="yes"/>
      <point x="690.335" y="762.501"/>
      <point x="723.502" y="808.834"/>
      <point x="744.502" y="844.501" type="curve" smooth="yes"/>
      <point x="765.502" y="880.168"/>
      <point x="776.002" y="921.001"/>
      <point x="776.002" y="967.001" type="curve" smooth="yes"/>
      <point x="776.002" y="1004.33"/>
      <point x="767.669" y="1039.5"/>
      <point x="751.002" y="1072.5" type="curve" smooth="yes"/>
      <point x="734.335" y="1105.5"/>
      <point x="711.002" y="1131.67"/>
      <point x="681.002" y="1151" type="curve" smooth="yes"/>
      <point x="651.002" y="1170.33"/>
      <point x="617.335" y="1180"/>
      <point x="580.002" y="1180" type="curve" smooth="yes"/>
      <point x="522.002" y="1180"/>
      <point x="472.169" y="1163.5"/>
      <point x="430.502" y="1130.5" type="curve" smooth="yes"/>
      <point x="388.835" y="1097.5"/>
      <point x="364.002" y="1053.67"/>
      <point x="356.002" y="999.001" type="curve"/>
      <point x="364.669" y="979.668"/>
      <point x="369.002" y="958.001"/>
      <point x="369.002" y="934.001" type="curve" smooth="yes"/>
      <point x="369.002" y="916.001"/>
      <point x="364.169" y="899.168"/>
      <point x="354.502" y="883.501" type="curve" smooth="yes"/>
      <point x="344.835" y="867.834"/>
      <point x="331.668" y="860.001"/>
      <point x="315.001" y="860.001" type="curve" smooth="yes"/>
      <point x="274.334" y="860.001"/>
      <point x="254.001" y="894.334"/>
      <point x="254.001" y="963.001" type="curve" smooth="yes"/>
      <point x="254.001" y="1015.67"/>
      <point x="267.834" y="1065.67"/>
      <point x="295.501" y="1113" type="curve" smooth="yes"/>
      <point x="323.168" y="1160.33"/>
      <point x="362.168" y="1197.67"/>
      <point x="412.501" y="1225" type="curve" smooth="yes"/>
      <point x="462.834" y="1252.33"/>
      <point x="518.667" y="1266"/>
      <point x="580" y="1266" type="curve" smooth="yes"/>
      <point x="632.667" y="1266"/>
      <point x="681.5" y="1253.67"/>
      <point x="726.5" y="1229" type="curve" smooth="yes"/>
      <point x="771.5" y="1204.33"/>
      <point x="807.333" y="1170.33"/>
      <point x="834" y="1127" type="curve" smooth="yes"/>
      <point x="860.667" y="1083.67"/>
      <point x="874" y="1035.67"/>
    </contour>
    <contour>
      <point x="668.001" y="92" type="curve" smooth="yes"/>
      <point x="668.001" y="59.333"/>
      <point x="656.669" y="31.667"/>
      <point x="634.002" y="9" type="curve" smooth="yes"/>
      <point x="611.335" y="-13.667"/>
      <point x="583.668" y="-25"/>
      <point x="551.001" y="-25" type="curve" smooth="yes"/>
      <point x="519.001" y="-25"/>
      <point x="491.834" y="-13.5"/>
      <point x="469.501" y="9.5" type="curve" smooth="yes"/>
      <point x="447.168" y="32.5"/>
      <point x="436.001" y="60"/>
      <point x="436.001" y="92" type="curve" smooth="yes"/>
      <point x="436.001" y="124"/>
      <point x="447.168" y="151.167"/>
      <point x="469.501" y="173.5" type="curve" smooth="yes"/>
      <point x="491.834" y="195.833"/>
      <point x="519.001" y="207"/>
      <point x="551.001" y="207" type="curve" smooth="yes"/>
      <point x="571.668" y="207"/>
      <point x="591.001" y="202"/>
      <point x="609.001" y="192" type="curve" smooth="yes"/>
      <point x="627.001" y="182"/>
      <point x="641.334" y="168"/>
      <point x="652.001" y="150" type="curve" smooth="yes"/>
      <point x="662.668" y="132"/>
      <point x="668.001" y="112.667"/>
    </contour>
  </outline>
</glyph>
<glyph name="at" format="1">
  <advance width="1229"/>
  <unicode hex="0040"/>
  <outline>
    <contour>
      <point x="1145" y="745" type="curve" smooth="yes"/>
      <point x="1145" y="683.667"/>
      <point x="1135.17" y="619.833"/>
      <point x="1115.5" y="553.5" type="curve" smooth="yes"/>
      <point x="1095.83" y="487.167"/>
      <point x="1065.16" y="430.834"/>
      <point x="1023.5" y="384.501" type="curve" smooth="yes"/>
      <point x="981.83" y="338.168"/>
      <point x="929.33" y="315.001"/>
      <point x="865.997" y="315.001" type="curve" smooth="yes"/>
      <point x="830.664" y="315.001"/>
      <point x="798.497" y="324.001"/>
      <point x="769.497" y="342.001" type="curve" smooth="yes"/>
      <point x="740.497" y="360.001"/>
      <point x="719.664" y="385.334"/>
      <point x="706.997" y="418.001" type="curve"/>
      <point x="657.664" y="349.334"/>
      <point x="595.997" y="315.001"/>
      <point x="521.997" y="315.001" type="curve" smooth="yes"/>
      <point x="475.33" y="315.001"/>
      <point x="437.497" y="330.334"/>
      <point x="408.497" y="361.001" type="curve" smooth="yes"/>
      <point x="379.497" y="391.668"/>
      <point x="364.997" y="431.001"/>
      <point x="364.997" y="479.001" type="curve" smooth="yes"/>
      <point x="364.997" y="534.334"/>
      <point x="375.164" y="591.334"/>
      <point x="395.497" y="650.001" type="curve" smooth="yes"/>
      <point x="415.83" y="708.668"/>
      <point x="449.33" y="759.001"/>
      <point x="495.997" y="801.001" type="curve" smooth="yes"/>
      <point x="533.997" y="835.001"/>
      <point x="576.33" y="857.501"/>
      <point x="622.997" y="868.501" type="curve" smooth="yes"/>
      <point x="669.664" y="879.501"/>
      <point x="724.664" y="885.001"/>
      <point x="787.997" y="885.001" type="curve" smooth="yes"/>
      <point x="843.997" y="885.001" type="line"/>
      <point x="792.997" y="590.001" type="line" smooth="yes"/>
      <point x="786.997" y="563.334"/>
      <point x="783.997" y="536.001"/>
      <point x="783.997" y="508.001" type="curve" smooth="yes"/>
      <point x="783.997" y="436.668"/>
      <point x="811.33" y="401.001"/>
      <point x="865.997" y="401.001" type="curve" smooth="yes"/>
      <point x="909.997" y="401.001"/>
      <point x="945.664" y="420.001"/>
      <point x="972.997" y="458.001" type="curve" smooth="yes"/>
      <point x="1000.33" y="496.001"/>
      <point x="1019.5" y="540.834"/>
      <point x="1030.5" y="592.501" type="curve" smooth="yes"/>
      <point x="1041.5" y="644.168"/>
      <point x="1047" y="693.668"/>
      <point x="1047" y="741.001" type="curve" smooth="yes"/>
      <point x="1047" y="804.334"/>
      <point x="1037.66" y="862.501"/>
      <point x="1019" y="915.501" type="curve" smooth="yes"/>
      <point x="1000.33" y="968.501"/>
      <point x="972.997" y="1015.17"/>
      <point x="936.997" y="1055.5" type="curve" smooth="yes"/>
      <point x="900.997" y="1095.83"/>
      <point x="858.997" y="1126.67"/>
      <point x="810.997" y="1148" type="curve" smooth="yes"/>
      <point x="762.997" y="1169.33"/>
      <point x="708.997" y="1180"/>
      <point x="648.997" y="1180" type="curve" smooth="yes"/>
      <point x="585.664" y="1180"/>
      <point x="517.331" y="1156"/>
      <point x="443.998" y="1108" type="curve" smooth="yes"/>
      <point x="370.665" y="1060"/>
      <point x="308.332" y="985.333"/>
      <point x="256.999" y="884" type="curve" smooth="yes"/>
      <point x="205.666" y="782.667"/>
      <point x="179.999" y="658.667"/>
      <point x="179.999" y="512" type="curve" smooth="yes"/>
      <point x="179.999" y="374.667"/>
      <point x="216.832" y="265.167"/>
      <point x="290.499" y="183.5" type="curve" smooth="yes"/>
      <point x="364.166" y="101.833"/>
      <point x="462.666" y="61"/>
      <point x="585.999" y="61" type="curve" smooth="yes"/>
      <point x="713.999" y="61"/>
      <point x="852.332" y="109"/>
      <point x="1001" y="205" type="curve"/>
      <point x="1038" y="115" type="line"/>
      <point x="998.666" y="91.667"/>
      <point x="962.333" y="72.334"/>
      <point x="929" y="57.001" type="curve" smooth="yes"/>
      <point x="895.667" y="41.668"/>
      <point x="860.167" y="27.668"/>
      <point x="822.5" y="15.001" type="curve" smooth="yes"/>
      <point x="784.833" y="2.33398"/>
      <point x="745" y="-7.49902"/>
      <point x="703" y="-14.499" type="curve" smooth="yes"/>
      <point x="661" y="-21.499"/>
      <point x="617.667" y="-24.999"/>
      <point x="573" y="-24.999" type="curve" smooth="yes"/>
      <point x="475" y="-24.999"/>
      <point x="389.167" y="-2.83203"/>
      <point x="315.5" y="41.501" type="curve" smooth="yes"/>
      <point x="241.833" y="85.834"/>
      <point x="184.5" y="149.167"/>
      <point x="143.5" y="231.5" type="curve" smooth="yes"/>
      <point x="102.5" y="313.833"/>
      <point x="82" y="408"/>
      <point x="82" y="514" type="curve" smooth="yes"/>
      <point x="82" y="630.667"/>
      <point x="104" y="747.5"/>
      <point x="148" y="864.5" type="curve" smooth="yes"/>
      <point x="192" y="981.5"/>
      <point x="257.5" y="1077.67"/>
      <point x="344.5" y="1153" type="curve" smooth="yes"/>
      <point x="431.5" y="1228.33"/>
      <point x="535.667" y="1266"/>
      <point x="657" y="1266" type="curve" smooth="yes"/>
      <point x="745" y="1266"/>
      <point x="826.5" y="1244.33"/>
      <point x="901.5" y="1201" type="curve" smooth="yes"/>
      <point x="976.5" y="1157.67"/>
      <point x="1035.83" y="1096.67"/>
      <point x="1079.5" y="1018" type="curve" smooth="yes"/>
      <point x="1123.17" y="939.333"/>
      <point x="1145" y="848.333"/>
    </contour>
    <contour>
      <point x="734.998" y="794.999" type="line"/>
      <point x="659.665" y="788.332"/>
      <point x="608.667" y="775.999"/>
      <point x="582" y="757.999" type="curve" smooth="yes"/>
      <point x="538" y="725.999"/>
      <point x="507.167" y="685.332"/>
      <point x="489.5" y="635.999" type="curve" smooth="yes"/>
      <point x="471.833" y="586.666"/>
      <point x="463" y="537.666"/>
      <point x="463" y="488.999" type="curve" smooth="yes"/>
      <point x="463" y="466.332"/>
      <point x="469" y="445.999"/>
      <point x="481" y="427.999" type="curve" smooth="yes"/>
      <point x="493" y="409.999"/>
      <point x="510" y="400.999"/>
      <point x="532" y="400.999" type="curve" smooth="yes"/>
      <point x="561.333" y="400.999"/>
      <point x="589" y="414.332"/>
      <point x="615" y="440.999" type="curve" smooth="yes"/>
      <point x="641" y="467.666"/>
      <point x="660.667" y="496.666"/>
      <point x="674" y="527.999" type="curve" smooth="yes"/>
      <point x="683.333" y="545.999"/>
      <point x="691.166" y="566.332"/>
      <point x="697.499" y="588.999" type="curve" smooth="yes"/>
      <point x="703.832" y="611.666"/>
      <point x="709.665" y="638.666"/>
      <point x="714.998" y="669.999" type="curve" smooth="yes"/>
      <point x="720.331" y="701.332"/>
      <point x="724.331" y="724.332"/>
      <point x="726.998" y="738.999" type="curve" smooth="yes"/>
    </contour>
  </outline>
</glyph>
<glyph name="B" format="1">
  <advance width="1229"/>
  <unicode hex="0042"/>
  <outline>
    <contour>
      <point x="1077" y="336" type="curve" smooth="yes"/>
      <point x="1077" y="234"/>
      <point x="1045.67" y="152.501"/>
      <point x="982.999" y="91.501" type="curve" smooth="yes"/>
      <point x="920.332" y="30.501"/>
      <point x="838.332" y="0.000976562"/>
      <point x="736.999" y="0.000976562" type="curve" smooth="yes"/>
      <point x="707.666" y="0.000976562"/>
      <point x="653.499" y="4.16797"/>
      <point x="574.499" y="12.501" type="curve" smooth="yes"/>
      <point x="495.499" y="20.834"/>
      <point x="441.999" y="25.001"/>
      <point x="413.999" y="25.001" type="curve" smooth="yes"/>
      <point x="387.332" y="25.001"/>
      <point x="357.832" y="24.001"/>
      <point x="325.499" y="22.001" type="curve" smooth="yes"/>
      <point x="293.166" y="20.001"/>
      <point x="257.499" y="16.834"/>
      <point x="218.499" y="12.501" type="curve" smooth="yes"/>
      <point x="179.499" y="8.16797"/>
      <point x="148.332" y="4.66797"/>
      <point x="124.999" y="2.00098" type="curve"/>
      <point x="105.999" y="86.001" type="line"/>
      <point x="318.999" y="111.001" type="line"/>
      <point x="318.999" y="1130" type="line"/>
      <point x="101.999" y="1155" type="line"/>
      <point x="101.999" y="1241" type="line"/>
      <point x="114.666" y="1239.67"/>
      <point x="146.999" y="1235.33"/>
      <point x="198.999" y="1228" type="curve" smooth="yes"/>
      <point x="250.999" y="1220.67"/>
      <point x="290.332" y="1217"/>
      <point x="316.999" y="1217" type="curve" smooth="yes"/>
      <point x="337.666" y="1217"/>
      <point x="393.666" y="1221"/>
      <point x="484.999" y="1229" type="curve" smooth="yes"/>
      <point x="576.332" y="1237"/>
      <point x="637.332" y="1241"/>
      <point x="667.999" y="1241" type="curve" smooth="yes"/>
      <point x="720.666" y="1241"/>
      <point x="770.499" y="1230.33"/>
      <point x="817.499" y="1209" type="curve" smooth="yes"/>
      <point x="864.499" y="1187.67"/>
      <point x="901.832" y="1156.5"/>
      <point x="929.499" y="1115.5" type="curve" smooth="yes"/>
      <point x="957.166" y="1074.5"/>
      <point x="970.999" y="1027"/>
      <point x="970.999" y="973.002" type="curve" smooth="yes"/>
      <point x="970.999" y="933.002"/>
      <point x="962.999" y="894.835"/>
      <point x="946.999" y="858.502" type="curve" smooth="yes"/>
      <point x="930.999" y="822.169"/>
      <point x="908.832" y="789.669"/>
      <point x="880.499" y="761.002" type="curve" smooth="yes"/>
      <point x="852.166" y="732.335"/>
      <point x="819.333" y="708.668"/>
      <point x="782" y="690.001" type="curve"/>
      <point x="873.333" y="669.334"/>
      <point x="945.333" y="628.667"/>
      <point x="998" y="568" type="curve" smooth="yes"/>
      <point x="1050.67" y="507.333"/>
      <point x="1077" y="430"/>
    </contour>
    <contour>
      <point x="871.999" y="965.001" type="curve" smooth="yes"/>
      <point x="871.999" y="1027"/>
      <point x="851.666" y="1075.17"/>
      <point x="810.999" y="1109.5" type="curve" smooth="yes"/>
      <point x="770.332" y="1143.83"/>
      <point x="718.999" y="1161"/>
      <point x="656.999" y="1161" type="curve" smooth="yes"/>
      <point x="624.999" y="1161"/>
      <point x="583.999" y="1157"/>
      <point x="533.999" y="1149" type="curve" smooth="yes"/>
      <point x="483.999" y="1141"/>
      <point x="443.332" y="1134.67"/>
      <point x="411.999" y="1130" type="curve"/>
      <point x="411.999" y="713" type="line"/>
      <point x="509.999" y="713" type="line" smooth="yes"/>
      <point x="635.332" y="713"/>
      <point x="726.999" y="737.333"/>
      <point x="784.999" y="786" type="curve" smooth="yes"/>
      <point x="842.999" y="834.667"/>
      <point x="871.999" y="894.334"/>
    </contour>
    <contour>
      <point x="978.999" y="340" type="curve" smooth="yes"/>
      <point x="978.999" y="391.333"/>
      <point x="967.333" y="438.5"/>
      <point x="944" y="481.5" type="curve" smooth="yes"/>
      <point x="920.667" y="524.5"/>
      <point x="881.167" y="559.5"/>
      <point x="825.5" y="586.5" type="curve" smooth="yes"/>
      <point x="769.833" y="613.5"/>
      <point x="698.666" y="627"/>
      <point x="611.999" y="627" type="curve" smooth="yes"/>
      <point x="411.999" y="627" type="line"/>
      <point x="411.999" y="111" type="line"/>
      <point x="482.999" y="111" type="line"/>
      <point x="691.999" y="86" type="line" smooth="yes"/>
      <point x="701.999" y="84.667"/>
      <point x="716.332" y="84"/>
      <point x="734.999" y="84" type="curve" smooth="yes"/>
      <point x="809.666" y="84"/>
      <point x="868.999" y="106"/>
      <point x="912.999" y="150" type="curve" smooth="yes"/>
      <point x="956.999" y="194"/>
      <point x="978.999" y="257.333"/>
    </contour>
  </outline>
</glyph>
<glyph name="C" format="1">
  <advance width="1229"/>
  <unicode hex="0043"/>
  <outline>
    <contour>
      <point x="1079" y="1233" type="line"/>
      <point x="1065.67" y="1199"/>
      <point x="1057" y="1165.83"/>
      <point x="1053" y="1133.5" type="curve" smooth="yes"/>
      <point x="1049" y="1101.17"/>
      <point x="1047" y="1064"/>
      <point x="1047" y="1022" type="curve" smooth="yes"/>
      <point x="1055" y="874" type="line"/>
      <point x="969.003" y="860" type="line"/>
      <point x="965.003" y="930.667"/>
      <point x="953.17" y="989.334"/>
      <point x="933.503" y="1036" type="curve" smooth="yes"/>
      <point x="913.836" y="1082.67"/>
      <point x="883.169" y="1118.33"/>
      <point x="841.502" y="1143" type="curve" smooth="yes"/>
      <point x="799.835" y="1167.67"/>
      <point x="744.668" y="1180"/>
      <point x="676.001" y="1180" type="curve" smooth="yes"/>
      <point x="582.001" y="1180"/>
      <point x="504.168" y="1152.5"/>
      <point x="442.501" y="1097.5" type="curve" smooth="yes"/>
      <point x="380.834" y="1042.5"/>
      <point x="336.334" y="972.835"/>
      <point x="309.001" y="888.502" type="curve" smooth="yes"/>
      <point x="281.668" y="804.169"/>
      <point x="268.001" y="716.336"/>
      <point x="268.001" y="625.003" type="curve" smooth="yes"/>
      <point x="268.001" y="535.003"/>
      <point x="282.168" y="446.836"/>
      <point x="310.501" y="360.503" type="curve" smooth="yes"/>
      <point x="338.834" y="274.17"/>
      <point x="383.501" y="202.67"/>
      <point x="444.501" y="146.003" type="curve" smooth="yes"/>
      <point x="505.501" y="89.3359"/>
      <point x="582.001" y="61.0029"/>
      <point x="674.001" y="61.0029" type="curve" smooth="yes"/>
      <point x="775.334" y="61.0029"/>
      <point x="852.167" y="91.6699"/>
      <point x="904.5" y="153.003" type="curve" smooth="yes"/>
      <point x="956.833" y="214.336"/>
      <point x="983" y="298.669"/>
      <point x="983" y="406.002" type="curve"/>
      <point x="1075" y="406.002" type="line"/>
      <point x="1073" y="158.002" type="line"/>
      <point x="1016.33" y="100.002"/>
      <point x="953.666" y="55.002"/>
      <point x="884.999" y="23.002" type="curve" smooth="yes"/>
      <point x="816.332" y="-8.99805"/>
      <point x="743.999" y="-24.998"/>
      <point x="667.999" y="-24.998" type="curve" smooth="yes"/>
      <point x="589.332" y="-24.998"/>
      <point x="511.832" y="-2.66504"/>
      <point x="435.499" y="42.002" type="curve" smooth="yes"/>
      <point x="359.166" y="86.6689"/>
      <point x="295.833" y="158.502"/>
      <point x="245.5" y="257.502" type="curve" smooth="yes"/>
      <point x="195.167" y="356.502"/>
      <point x="170" y="481.669"/>
      <point x="170" y="633.002" type="curve" smooth="yes"/>
      <point x="170" y="746.335"/>
      <point x="185.167" y="844.168"/>
      <point x="215.5" y="926.501" type="curve" smooth="yes"/>
      <point x="245.833" y="1008.83"/>
      <point x="285.5" y="1074.67"/>
      <point x="334.5" y="1124" type="curve" smooth="yes"/>
      <point x="383.5" y="1173.33"/>
      <point x="437.5" y="1209.33"/>
      <point x="496.5" y="1232" type="curve" smooth="yes"/>
      <point x="555.5" y="1254.67"/>
      <point x="614" y="1266"/>
      <point x="672" y="1266" type="curve" smooth="yes"/>
      <point x="776" y="1266"/>
      <point x="875" y="1239.33"/>
      <point x="969" y="1186" type="curve"/>
      <point x="993" y="1264" type="line"/>
    </contour>
  </outline>
</glyph>
<glyph name="D" format="1">
  <advance width="1229"/>
  <unicode hex="0044"/>
  <outline>
    <contour>
      <point x="1079" y="598" type="curve" smooth="yes"/>
      <point x="1079" y="374.667"/>
      <point x="1029.67" y="219.165"/>
      <point x="931" y="131.498" type="curve" smooth="yes"/>
      <point x="832.333" y="43.8311"/>
      <point x="713" y="-0.00195312"/>
      <point x="573" y="-0.00195312" type="curve" smooth="yes"/>
      <point x="543" y="-0.00195312"/>
      <point x="499" y="4.16504"/>
      <point x="441" y="12.498" type="curve" smooth="yes"/>
      <point x="383" y="20.8311"/>
      <point x="337" y="24.998"/>
      <point x="303" y="24.998" type="curve" smooth="yes"/>
      <point x="284.333" y="24.998"/>
      <point x="265.666" y="23.665"/>
      <point x="246.999" y="20.998" type="curve" smooth="yes"/>
      <point x="228.332" y="18.3311"/>
      <point x="205.332" y="14.498"/>
      <point x="177.999" y="9.49805" type="curve" smooth="yes"/>
      <point x="150.666" y="4.49805"/>
      <point x="128.333" y="0.665039"/>
      <point x="111" y="-2.00195" type="curve"/>
      <point x="96" y="85.998" type="line"/>
      <point x="266" y="110.998" type="line"/>
      <point x="266" y="1130" type="line"/>
      <point x="100" y="1157" type="line"/>
      <point x="111" y="1243" type="line"/>
      <point x="122.333" y="1241"/>
      <point x="148" y="1236.17"/>
      <point x="188" y="1228.5" type="curve" smooth="yes"/>
      <point x="228" y="1220.83"/>
      <point x="262.333" y="1217"/>
      <point x="291" y="1217" type="curve" smooth="yes"/>
      <point x="316.333" y="1217"/>
      <point x="358.333" y="1221"/>
      <point x="417" y="1229" type="curve" smooth="yes"/>
      <point x="475.667" y="1237"/>
      <point x="523" y="1241"/>
      <point x="559" y="1241" type="curve" smooth="yes"/>
      <point x="647" y="1241"/>
      <point x="724" y="1225"/>
      <point x="790" y="1193" type="curve" smooth="yes"/>
      <point x="856" y="1161"/>
      <point x="910.5" y="1115.83"/>
      <point x="953.5" y="1057.5" type="curve" smooth="yes"/>
      <point x="996.5" y="999.165"/>
      <point x="1028.17" y="930.832"/>
      <point x="1048.5" y="852.499" type="curve" smooth="yes"/>
      <point x="1068.83" y="774.166"/>
      <point x="1079" y="689.333"/>
    </contour>
    <contour>
      <point x="981" y="564.998" type="curve" smooth="yes"/>
      <point x="981" y="764.998"/>
      <point x="943.833" y="914"/>
      <point x="869.5" y="1012" type="curve" smooth="yes"/>
      <point x="795.167" y="1110"/>
      <point x="700" y="1159"/>
      <point x="584" y="1159" type="curve" smooth="yes"/>
      <point x="570.667" y="1159"/>
      <point x="551.334" y="1157.67"/>
      <point x="526.001" y="1155" type="curve" smooth="yes"/>
      <point x="358.001" y="1130" type="line"/>
      <point x="358.001" y="111" type="line"/>
      <point x="569.001" y="86" type="line" smooth="yes"/>
      <point x="580.334" y="84.667"/>
      <point x="596.667" y="84"/>
      <point x="618" y="84" type="curve" smooth="yes"/>
      <point x="688" y="84"/>
      <point x="750.333" y="101.667"/>
      <point x="805" y="137" type="curve" smooth="yes"/>
      <point x="859.667" y="172.333"/>
      <point x="902.667" y="226.166"/>
      <point x="934" y="298.499" type="curve" smooth="yes"/>
      <point x="965.333" y="370.832"/>
      <point x="981" y="459.665"/>
    </contour>
  </outline>
</glyph>
<glyph name="F" format="1">
  <advance width="1229"/>
  <unicode hex="0046"/>
  <outline>
    <contour>
      <point x="1073" y="905" type="line"/>
      <point x="981" y="905.001" type="line"/>
      <point x="981" y="942.001" type="line" smooth="yes"/>
      <point x="981" y="1005.33"/>
      <point x="977" y="1051.17"/>
      <point x="969" y="1079.5" type="curve" smooth="yes"/>
      <point x="961" y="1107.83"/>
      <point x="943.833" y="1127.5"/>
      <point x="917.5" y="1138.5" type="curve" smooth="yes"/>
      <point x="891.167" y="1149.5"/>
      <point x="848" y="1155"/>
      <point x="788" y="1155" type="curve" smooth="yes"/>
      <point x="418" y="1155" type="line"/>
      <point x="418" y="688" type="line"/>
      <point x="741" y="688" type="line"/>
      <point x="741" y="846" type="line"/>
      <point x="834" y="846" type="line"/>
      <point x="834" y="422" type="line"/>
      <point x="741" y="422" type="line"/>
      <point x="741" y="602" type="line"/>
      <point x="418" y="602" type="line"/>
      <point x="418" y="86" type="line"/>
      <point x="786" y="86" type="line"/>
      <point x="786" y="0" type="line"/>
      <point x="121" y="0" type="line"/>
      <point x="121" y="86" type="line"/>
      <point x="326" y="86" type="line"/>
      <point x="326" y="1155" type="line"/>
      <point x="121" y="1155" type="line"/>
      <point x="121" y="1241" type="line"/>
      <point x="1073" y="1241" type="line"/>
    </contour>
  </outline>
</glyph>
<glyph name="G" format="1">
  <advance width="1229"/>
  <unicode hex="0047"/>
  <outline>
    <contour>
      <point x="1176" y="434" type="line"/>
      <point x="1049" y="434.003" type="line"/>
      <point x="1047" y="158.003" type="line"/>
      <point x="1017" y="129.336"/>
      <point x="986.002" y="104.003"/>
      <point x="954.002" y="82.0029" type="curve" smooth="yes"/>
      <point x="922.002" y="60.0029"/>
      <point x="888.002" y="41.0029"/>
      <point x="852.002" y="25.0029" type="curve" smooth="yes"/>
      <point x="816.002" y="9.00293"/>
      <point x="778.335" y="-3.33008"/>
      <point x="739.002" y="-11.9971" type="curve" smooth="yes"/>
      <point x="699.669" y="-20.6641"/>
      <point x="661.669" y="-24.9971"/>
      <point x="625.002" y="-24.9971" type="curve" smooth="yes"/>
      <point x="573.002" y="-24.9971"/>
      <point x="518.669" y="-13.1641"/>
      <point x="462.002" y="10.5029" type="curve" smooth="yes"/>
      <point x="405.335" y="34.1699"/>
      <point x="351.502" y="72.1699"/>
      <point x="300.502" y="124.503" type="curve" smooth="yes"/>
      <point x="249.502" y="176.836"/>
      <point x="208.502" y="244.669"/>
      <point x="177.502" y="328.002" type="curve" smooth="yes"/>
      <point x="146.502" y="411.335"/>
      <point x="131.002" y="509.002"/>
      <point x="131.002" y="621.002" type="curve" smooth="yes"/>
      <point x="131.002" y="735.002"/>
      <point x="145.669" y="833.169"/>
      <point x="175.002" y="915.502" type="curve" smooth="yes"/>
      <point x="204.335" y="997.835"/>
      <point x="244.002" y="1064.67"/>
      <point x="294.002" y="1116" type="curve" smooth="yes"/>
      <point x="344.002" y="1167.33"/>
      <point x="399.669" y="1205.17"/>
      <point x="461.002" y="1229.5" type="curve" smooth="yes"/>
      <point x="522.335" y="1253.83"/>
      <point x="583.668" y="1266"/>
      <point x="645.001" y="1266" type="curve" smooth="yes"/>
      <point x="750.334" y="1266"/>
      <point x="850.001" y="1236.67"/>
      <point x="944.001" y="1178" type="curve"/>
      <point x="975.001" y="1264" type="line"/>
      <point x="1051" y="1243" type="line"/>
      <point x="1031.67" y="1175"/>
      <point x="1022" y="1106"/>
      <point x="1022" y="1036" type="curve"/>
      <point x="1038" y="870" type="line"/>
      <point x="944.001" y="856" type="line"/>
      <point x="933.334" y="940.667"/>
      <point x="921.001" y="999.334"/>
      <point x="907.001" y="1032" type="curve" smooth="yes"/>
      <point x="888.334" y="1083.33"/>
      <point x="855.167" y="1120.83"/>
      <point x="807.5" y="1144.5" type="curve" smooth="yes"/>
      <point x="759.833" y="1168.17"/>
      <point x="705.666" y="1180"/>
      <point x="644.999" y="1180" type="curve" smooth="yes"/>
      <point x="599.666" y="1180"/>
      <point x="553.166" y="1171.33"/>
      <point x="505.499" y="1154" type="curve" smooth="yes"/>
      <point x="457.832" y="1136.67"/>
      <point x="413.332" y="1108"/>
      <point x="371.999" y="1068" type="curve" smooth="yes"/>
      <point x="330.666" y="1028"/>
      <point x="296.499" y="973.001"/>
      <point x="269.499" y="903.001" type="curve" smooth="yes"/>
      <point x="242.499" y="833.001"/>
      <point x="228.999" y="746.334"/>
      <point x="228.999" y="643.001" type="curve" smooth="yes"/>
      <point x="228.999" y="512.334"/>
      <point x="248.999" y="403.001"/>
      <point x="288.999" y="315.001" type="curve" smooth="yes"/>
      <point x="328.999" y="227.001"/>
      <point x="379.166" y="162.668"/>
      <point x="439.499" y="122.001" type="curve" smooth="yes"/>
      <point x="499.832" y="81.334"/>
      <point x="560.332" y="61.001"/>
      <point x="620.999" y="61.001" type="curve" smooth="yes"/>
      <point x="675.666" y="61.001"/>
      <point x="732.333" y="71.668"/>
      <point x="791" y="93.001" type="curve" smooth="yes"/>
      <point x="849.667" y="114.334"/>
      <point x="894" y="144.667"/>
      <point x="924" y="184" type="curve" smooth="yes"/>
      <point x="945.333" y="212"/>
      <point x="956" y="260"/>
      <point x="956" y="328" type="curve" smooth="yes"/>
      <point x="956" y="385" type="line"/>
      <point x="956" y="434" type="line"/>
      <point x="719" y="434" type="line"/>
      <point x="719" y="520" type="line"/>
      <point x="1176" y="520" type="line"/>
    </contour>
  </outline>
</glyph>
<glyph name="H" format="1">
  <advance width="1229"/>
  <unicode hex="0048"/>
  <outline>
    <contour>
      <point x="1155" y="0" type="line"/>
      <point x="735" y="0" type="line"/>
      <point x="735" y="86" type="line"/>
      <point x="889" y="86" type="line"/>
      <point x="889" y="594" type="line"/>
      <point x="340" y="594" type="line"/>
      <point x="340" y="86" type="line"/>
      <point x="494" y="86" type="line"/>
      <point x="494" y="0" type="line"/>
      <point x="74" y="0" type="line"/>
      <point x="74" y="86" type="line"/>
      <point x="248" y="86" type="line"/>
      <point x="248" y="1155" type="line"/>
      <point x="74" y="1155" type="line"/>
      <point x="74" y="1241" type="line"/>
      <point x="494" y="1241" type="line"/>
      <point x="494" y="1155" type="line"/>
      <point x="340" y="1155" type="line"/>
      <point x="340" y="680" type="line"/>
      <point x="889" y="680" type="line"/>
      <point x="889" y="1155" type="line"/>
      <point x="735" y="1155" type="line"/>
      <point x="735" y="1241" type="line"/>
      <point x="1155" y="1241" type="line"/>
      <point x="1155" y="1155" type="line"/>
      <point x="981" y="1155" type="line"/>
      <point x="981" y="86" type="line"/>
      <point x="1155" y="86" type="line"/>
    </contour>
  </outline>
</glyph>
<glyph name="I" format="1">
  <advance width="1229"/>
  <unicode hex="0049"/>
  <outline>
    <contour>
      <point x="995" y="0" type="line"/>
      <point x="233" y="0" type="line"/>
      <point x="233" y="86" type="line"/>
      <point x="569" y="86" type="line"/>
      <point x="569" y="1155" type="line"/>
      <point x="233" y="1155" type="line"/>
      <point x="233" y="1241" type="line"/>
      <point x="995" y="1241" type="line"/>
      <point x="995" y="1155" type="line"/>
      <point x="662" y="1155" type="line"/>
      <point x="662" y="86" type="line"/>
      <point x="995" y="86" type="line"/>
    </contour>
  </outline>
</glyph>
<glyph name="J" format="1">
  <advance width="1229"/>
  <unicode hex="004A"/>
  <outline>
    <contour>
      <point x="1098" y="1155" type="line"/>
      <point x="887.001" y="1155" type="line"/>
      <point x="887.001" y="280.996" type="line" smooth="yes"/>
      <point x="887.001" y="173.663"/>
      <point x="861.668" y="95.8301"/>
      <point x="811.001" y="47.4971" type="curve" smooth="yes"/>
      <point x="760.334" y="-0.835938"/>
      <point x="676.334" y="-25.0029"/>
      <point x="559.001" y="-25.0029" type="curve" smooth="yes"/>
      <point x="416.334" y="-25.0029"/>
      <point x="281.334" y="11.9971"/>
      <point x="154.001" y="85.9971" type="curve"/>
      <point x="154.001" y="394.997" type="line"/>
      <point x="246.001" y="394.997" type="line"/>
      <point x="246.001" y="345.997" type="line" smooth="yes"/>
      <point x="246.001" y="300.664"/>
      <point x="248.168" y="262.331"/>
      <point x="252.501" y="230.998" type="curve" smooth="yes"/>
      <point x="256.834" y="199.665"/>
      <point x="267.667" y="172.665"/>
      <point x="285" y="149.998" type="curve" smooth="yes"/>
      <point x="312.333" y="119.998"/>
      <point x="352.333" y="97.665"/>
      <point x="405" y="82.998" type="curve" smooth="yes"/>
      <point x="457.667" y="68.3311"/>
      <point x="509" y="60.998"/>
      <point x="559" y="60.998" type="curve" smooth="yes"/>
      <point x="622.333" y="60.998"/>
      <point x="671" y="70.3311"/>
      <point x="705" y="88.998" type="curve" smooth="yes"/>
      <point x="739" y="107.665"/>
      <point x="762.5" y="136.332"/>
      <point x="775.5" y="174.999" type="curve" smooth="yes"/>
      <point x="788.5" y="213.666"/>
      <point x="795" y="265.333"/>
      <point x="795" y="330" type="curve" smooth="yes"/>
      <point x="795" y="1155" type="line"/>
      <point x="532" y="1155" type="line"/>
      <point x="532" y="1241" type="line"/>
      <point x="1098" y="1241" type="line"/>
    </contour>
  </outline>
</glyph>
<glyph name="K" format="1">
  <advance width="1229"/>
  <unicode hex="004B"/>
  <outline>
    <contour>
      <point x="1202" y="0" type="line"/>
      <point x="759.999" y="0.000976562" type="line"/>
      <point x="759.999" y="86.001" type="line"/>
      <point x="902.999" y="86.001" type="line"/>
      <point x="482.999" y="612.001" type="line"/>
      <point x="440.999" y="588.668"/>
      <point x="392.666" y="573.668"/>
      <point x="337.999" y="567.001" type="curve"/>
      <point x="337.999" y="86.001" type="line"/>
      <point x="505.999" y="86.001" type="line"/>
      <point x="505.999" y="0.000976562" type="line"/>
      <point x="75.999" y="0.000976562" type="line"/>
      <point x="75.999" y="86.001" type="line"/>
      <point x="245.999" y="86.001" type="line"/>
      <point x="245.999" y="1155" type="line"/>
      <point x="75.999" y="1155" type="line"/>
      <point x="75.999" y="1241" type="line"/>
      <point x="505.999" y="1241" type="line"/>
      <point x="505.999" y="1155" type="line"/>
      <point x="337.999" y="1155" type="line"/>
      <point x="337.999" y="651.001" type="line"/>
      <point x="413.332" y="659.001"/>
      <point x="508.332" y="716.334"/>
      <point x="622.999" y="823.001" type="curve"/>
      <point x="719.666" y="919.001"/>
      <point x="804.999" y="1029.67"/>
      <point x="878.999" y="1155" type="curve"/>
      <point x="714.999" y="1155" type="line"/>
      <point x="714.999" y="1241" type="line"/>
      <point x="1145" y="1241" type="line"/>
      <point x="1145" y="1155" type="line"/>
      <point x="982.999" y="1155" type="line"/>
      <point x="952.332" y="1102.33"/>
      <point x="922.332" y="1054.5"/>
      <point x="892.999" y="1011.5" type="curve" smooth="yes"/>
      <point x="863.666" y="968.501"/>
      <point x="831.333" y="925.168"/>
      <point x="796" y="881.501" type="curve" smooth="yes"/>
      <point x="760.667" y="837.834"/>
      <point x="725" y="798.167"/>
      <point x="689" y="762.5" type="curve" smooth="yes"/>
      <point x="653" y="726.833"/>
      <point x="612.333" y="692.333"/>
      <point x="567" y="659" type="curve"/>
      <point x="1024" y="86" type="line"/>
      <point x="1202" y="86" type="line"/>
    </contour>
  </outline>
</glyph>
<glyph name="L" format="1">
  <advance width="1229"/>
  <unicode hex="004C"/>
  <outline>
    <contour>
      <point x="1100" y="0" type="line"/>
      <point x="98" y="0" type="line"/>
      <point x="98" y="86" type="line"/>
      <point x="326" y="86" type="line"/>
      <point x="326" y="1155" type="line"/>
      <point x="98" y="1155" type="line"/>
      <point x="98" y="1241" type="line"/>
      <point x="653" y="1241" type="line"/>
      <point x="653" y="1155" type="line"/>
      <point x="418" y="1155" type="line"/>
      <point x="418" y="86" type="line"/>
      <point x="825" y="86" type="line" smooth="yes"/>
      <point x="887" y="86"/>
      <point x="933" y="100.833"/>
      <point x="963" y="130.5" type="curve" smooth="yes"/>
      <point x="993" y="160.167"/>
      <point x="1008" y="198.667"/>
      <point x="1008" y="246" type="curve" smooth="yes"/>
      <point x="1008" y="414" type="line"/>
      <point x="1100" y="414" type="line"/>
    </contour>
  </outline>
</glyph>
<glyph name="M" format="1">
  <advance width="1229"/>
  <unicode hex="004D"/>
  <outline>
    <contour>
      <point x="1182" y="0" type="line"/>
      <point x="791" y="0" type="line"/>
      <point x="791" y="86" type="line"/>
      <point x="942" y="86" type="line"/>
      <point x="942" y="1118" type="line"/>
      <point x="946" y="1114" type="line"/>
      <point x="614" y="371" type="line"/>
      <point x="281" y="1114" type="line"/>
      <point x="287" y="1112" type="line"/>
      <point x="287" y="86" type="line"/>
      <point x="438" y="86" type="line"/>
      <point x="438" y="0" type="line"/>
      <point x="47" y="0" type="line"/>
      <point x="47" y="86" type="line"/>
      <point x="195" y="86" type="line"/>
      <point x="195" y="1155" type="line"/>
      <point x="47" y="1155" type="line"/>
      <point x="47" y="1241" type="line"/>
      <point x="313" y="1239" type="line"/>
      <point x="614" y="582" type="line"/>
      <point x="913" y="1239" type="line"/>
      <point x="1182" y="1241" type="line"/>
      <point x="1182" y="1155" type="line"/>
      <point x="1034" y="1155" type="line"/>
      <point x="1034" y="86" type="line"/>
      <point x="1182" y="86" type="line"/>
    </contour>
  </outline>
</glyph>
<glyph name="N" format="1">
  <advance width="1229"/>
  <unicode hex="004E"/>
  <outline>
    <contour>
      <point x="1167" y="1155" type="line"/>
      <point x="1036" y="1155" type="line"/>
      <point x="1036" y="0" type="line"/>
      <point x="932" y="2" type="line"/>
      <point x="301" y="1114" type="line"/>
      <point x="307" y="1112" type="line"/>
      <point x="307" y="86" type="line"/>
      <point x="479" y="86" type="line"/>
      <point x="479" y="0" type="line"/>
      <point x="59" y="0" type="line"/>
      <point x="59" y="86" type="line"/>
      <point x="215" y="86" type="line"/>
      <point x="215" y="1155" type="line"/>
      <point x="59" y="1155" type="line"/>
      <point x="59" y="1241" type="line"/>
      <point x="328" y="1239" type="line"/>
      <point x="948" y="141" type="line"/>
      <point x="944" y="143" type="line"/>
      <point x="944" y="1155" type="line"/>
      <point x="766" y="1155" type="line"/>
      <point x="766" y="1241" type="line"/>
      <point x="1167" y="1241" type="line"/>
    </contour>
  </outline>
</glyph>
<glyph name="P" format="1">
  <advance width="1229"/>
  <unicode hex="0050"/>
  <outline>
    <contour>
      <point x="1061" y="915" type="curve" smooth="yes"/>
      <point x="1061" y="835.667"/>
      <point x="1042.67" y="768.5"/>
      <point x="1006" y="713.5" type="curve" smooth="yes"/>
      <point x="969.332" y="658.5"/>
      <point x="913.499" y="617.333"/>
      <point x="838.499" y="590" type="curve" smooth="yes"/>
      <point x="763.499" y="562.667"/>
      <point x="669.666" y="549"/>
      <point x="556.999" y="549" type="curve" smooth="yes"/>
      <point x="421.999" y="549" type="line"/>
      <point x="421.999" y="86" type="line"/>
      <point x="714.999" y="86" type="line"/>
      <point x="714.999" y="0" type="line"/>
      <point x="155.999" y="0" type="line"/>
      <point x="155.999" y="86" type="line"/>
      <point x="329.999" y="86" type="line"/>
      <point x="329.999" y="1143" type="line"/>
      <point x="155.999" y="1155" type="line"/>
      <point x="155.999" y="1243" type="line"/>
      <point x="353.999" y="1235" type="line" smooth="yes"/>
      <point x="390.666" y="1235"/>
      <point x="427.833" y="1236"/>
      <point x="465.5" y="1238" type="curve" smooth="yes"/>
      <point x="503.167" y="1240"/>
      <point x="540.5" y="1242"/>
      <point x="577.5" y="1244" type="curve" smooth="yes"/>
      <point x="614.5" y="1246"/>
      <point x="651.333" y="1247"/>
      <point x="688" y="1247" type="curve" smooth="yes"/>
      <point x="762.667" y="1247"/>
      <point x="828.167" y="1234.67"/>
      <point x="884.5" y="1210" type="curve" smooth="yes"/>
      <point x="940.833" y="1185.33"/>
      <point x="984.333" y="1148"/>
      <point x="1015" y="1098" type="curve" smooth="yes"/>
      <point x="1045.67" y="1048"/>
      <point x="1061" y="987"/>
    </contour>
    <contour>
      <point x="962.999" y="922" type="curve" smooth="yes"/>
      <point x="962.999" y="998.667"/>
      <point x="938.832" y="1057.67"/>
      <point x="890.499" y="1099" type="curve" smooth="yes"/>
      <point x="842.166" y="1140.33"/>
      <point x="774.666" y="1161"/>
      <point x="687.999" y="1161" type="curve"/>
      <point x="421.999" y="1145" type="line"/>
      <point x="421.999" y="635" type="line"/>
      <point x="570.999" y="635" type="line" smooth="yes"/>
      <point x="698.999" y="635"/>
      <point x="796.332" y="658.167"/>
      <point x="862.999" y="704.5" type="curve" smooth="yes"/>
      <point x="929.666" y="750.833"/>
      <point x="962.999" y="823.333"/>
    </contour>
  </outline>
</glyph>
<glyph name="Q" format="1">
  <advance width="1229"/>
  <unicode hex="0051"/>
  <outline>
    <contour>
      <point x="1176" y="-184" type="line"/>
      <point x="973.002" y="-182.002" type="line"/>
      <point x="831.002" y="30.998" type="line"/>
      <point x="765.002" y="-6.33496"/>
      <point x="692.669" y="-25.002"/>
      <point x="614.002" y="-25.002" type="curve" smooth="yes"/>
      <point x="536.669" y="-25.002"/>
      <point x="461.169" y="-3.66895"/>
      <point x="387.502" y="38.998" type="curve" smooth="yes"/>
      <point x="313.835" y="81.665"/>
      <point x="252.668" y="151.332"/>
      <point x="204.001" y="247.999" type="curve" smooth="yes"/>
      <point x="155.334" y="344.666"/>
      <point x="131.001" y="468.999"/>
      <point x="131.001" y="620.999" type="curve" smooth="yes"/>
      <point x="131.001" y="771.666"/>
      <point x="155.334" y="895.499"/>
      <point x="204.001" y="992.499" type="curve" smooth="yes"/>
      <point x="252.668" y="1089.5"/>
      <point x="313.835" y="1159.33"/>
      <point x="387.502" y="1202" type="curve" smooth="yes"/>
      <point x="461.169" y="1244.67"/>
      <point x="536.669" y="1266"/>
      <point x="614.002" y="1266" type="curve" smooth="yes"/>
      <point x="671.335" y="1266"/>
      <point x="728.002" y="1254.5"/>
      <point x="784.002" y="1231.5" type="curve" smooth="yes"/>
      <point x="840.002" y="1208.5"/>
      <point x="891.669" y="1172"/>
      <point x="939.002" y="1122" type="curve" smooth="yes"/>
      <point x="986.335" y="1072"/>
      <point x="1024.67" y="1005"/>
      <point x="1054" y="920.999" type="curve" smooth="yes"/>
      <point x="1083.33" y="836.999"/>
      <point x="1098" y="736.999"/>
      <point x="1098" y="620.999" type="curve" smooth="yes"/>
      <point x="1098" y="555.666"/>
      <point x="1092" y="489.333"/>
      <point x="1080" y="422" type="curve" smooth="yes"/>
      <point x="1068" y="354.667"/>
      <point x="1048.17" y="292"/>
      <point x="1020.5" y="234" type="curve" smooth="yes"/>
      <point x="992.834" y="176"/>
      <point x="955.667" y="126"/>
      <point x="909" y="84" type="curve"/>
      <point x="1030" y="-98" type="line"/>
      <point x="1176" y="-98" type="line"/>
    </contour>
    <contour>
      <point x="999.002" y="620.998" type="curve" smooth="yes"/>
      <point x="999.002" y="810.331"/>
      <point x="961.169" y="950.831"/>
      <point x="885.502" y="1042.5" type="curve" smooth="yes"/>
      <point x="809.835" y="1134.17"/>
      <point x="719.335" y="1180"/>
      <point x="614.002" y="1180" type="curve" smooth="yes"/>
      <point x="509.335" y="1180"/>
      <point x="419.002" y="1134.17"/>
      <point x="343.002" y="1042.5" type="curve" smooth="yes"/>
      <point x="267.002" y="950.831"/>
      <point x="229.002" y="810.331"/>
      <point x="229.002" y="620.998" type="curve" smooth="yes"/>
      <point x="229.002" y="430.331"/>
      <point x="267.002" y="289.331"/>
      <point x="343.002" y="197.998" type="curve" smooth="yes"/>
      <point x="419.002" y="106.665"/>
      <point x="509.335" y="60.998"/>
      <point x="614.002" y="60.998" type="curve" smooth="yes"/>
      <point x="674.002" y="60.998"/>
      <point x="730.002" y="75.3311"/>
      <point x="782.002" y="103.998" type="curve"/>
      <point x="612.002" y="366.998" type="line"/>
      <point x="684.002" y="423.998" type="line"/>
      <point x="856.002" y="161.998" type="line"/>
      <point x="890.669" y="197.998"/>
      <point x="918.669" y="242.331"/>
      <point x="940.002" y="294.998" type="curve" smooth="yes"/>
      <point x="961.335" y="347.665"/>
      <point x="976.502" y="402.665"/>
      <point x="985.502" y="459.998" type="curve" smooth="yes"/>
      <point x="994.502" y="517.331"/>
      <point x="999.002" y="570.998"/>
    </contour>
  </outline>
</glyph>
<glyph name="R" format="1">
  <advance width="1229"/>
  <unicode hex="0052"/>
  <outline>
    <contour>
      <point x="1176" y="0" type="line"/>
      <point x="972.998" y="1.99902" type="line"/>
      <point x="595.998" y="577.999" type="line"/>
      <point x="361.998" y="577.999" type="line"/>
      <point x="361.998" y="85.999" type="line"/>
      <point x="540.998" y="85.999" type="line"/>
      <point x="540.998" y="-0.000976562" type="line"/>
      <point x="95.998" y="-0.000976562" type="line"/>
      <point x="95.998" y="85.999" type="line"/>
      <point x="269.998" y="85.999" type="line"/>
      <point x="269.998" y="1143" type="line"/>
      <point x="95.998" y="1155" type="line"/>
      <point x="95.998" y="1243" type="line"/>
      <point x="294.998" y="1235" type="line" smooth="yes"/>
      <point x="331.665" y="1235"/>
      <point x="387.332" y="1237"/>
      <point x="461.999" y="1241" type="curve" smooth="yes"/>
      <point x="536.666" y="1245"/>
      <point x="592.333" y="1247"/>
      <point x="629" y="1247" type="curve" smooth="yes"/>
      <point x="685.667" y="1247"/>
      <point x="740.667" y="1235.5"/>
      <point x="794" y="1212.5" type="curve" smooth="yes"/>
      <point x="847.333" y="1189.5"/>
      <point x="890.833" y="1154"/>
      <point x="924.5" y="1106" type="curve" smooth="yes"/>
      <point x="958.167" y="1058"/>
      <point x="975" y="998.666"/>
      <point x="975" y="927.999" type="curve" smooth="yes"/>
      <point x="975" y="838.666"/>
      <point x="949.833" y="765.833"/>
      <point x="899.5" y="709.5" type="curve" smooth="yes"/>
      <point x="849.167" y="653.167"/>
      <point x="780" y="614.667"/>
      <point x="692" y="594" type="curve"/>
      <point x="1030" y="86" type="line"/>
      <point x="1176" y="86" type="line"/>
    </contour>
    <contour>
      <point x="876.998" y="927.999" type="curve" smooth="yes"/>
      <point x="876.998" y="1004"/>
      <point x="849.831" y="1061.83"/>
      <point x="795.498" y="1101.5" type="curve" smooth="yes"/>
      <point x="741.165" y="1141.17"/>
      <point x="674.665" y="1161"/>
      <point x="595.998" y="1161" type="curve" smooth="yes"/>
      <point x="584.665" y="1161"/>
      <point x="564.665" y="1160.33"/>
      <point x="535.998" y="1159" type="curve" smooth="yes"/>
      <point x="507.331" y="1157.67"/>
      <point x="485.331" y="1156.5"/>
      <point x="469.998" y="1155.5" type="curve" smooth="yes"/>
      <point x="454.665" y="1154.5"/>
      <point x="435.665" y="1153"/>
      <point x="412.998" y="1151" type="curve" smooth="yes"/>
      <point x="390.331" y="1149"/>
      <point x="373.331" y="1147.67"/>
      <point x="361.998" y="1147" type="curve"/>
      <point x="361.998" y="664" type="line"/>
      <point x="466.998" y="664" type="line" smooth="yes"/>
      <point x="589.665" y="664"/>
      <point x="688.665" y="681.167"/>
      <point x="763.998" y="715.5" type="curve" smooth="yes"/>
      <point x="839.331" y="749.833"/>
      <point x="876.998" y="820.666"/>
    </contour>
  </outline>
</glyph>
<glyph name="S" format="1">
  <advance width="1229"/>
  <unicode hex="0053"/>
  <outline>
    <contour>
      <point x="1016" y="317" type="curve" smooth="yes"/>
      <point x="1016" y="265.667"/>
      <point x="1006.17" y="218.999"/>
      <point x="986.502" y="176.999" type="curve" smooth="yes"/>
      <point x="966.835" y="134.999"/>
      <point x="938.668" y="98.832"/>
      <point x="902.001" y="68.499" type="curve" smooth="yes"/>
      <point x="865.334" y="38.166"/>
      <point x="822.834" y="14.999"/>
      <point x="774.501" y="-1.00098" type="curve" smooth="yes"/>
      <point x="726.168" y="-17.001"/>
      <point x="673.335" y="-25.001"/>
      <point x="616.002" y="-25.001" type="curve" smooth="yes"/>
      <point x="494.002" y="-25.001"/>
      <point x="391.669" y="5.99902"/>
      <point x="309.002" y="67.999" type="curve"/>
      <point x="301.002" y="-27.001" type="line"/>
      <point x="213.002" y="-14.001" type="line"/>
      <point x="231.002" y="198.999" type="line"/>
      <point x="231.002" y="254.332"/>
      <point x="225.002" y="312.999"/>
      <point x="213.002" y="374.999" type="curve"/>
      <point x="301.002" y="386.999" type="line"/>
      <point x="311.002" y="302.999" type="line" smooth="yes"/>
      <point x="318.335" y="250.999"/>
      <point x="332.335" y="207.499"/>
      <point x="353.002" y="172.499" type="curve" smooth="yes"/>
      <point x="373.669" y="137.499"/>
      <point x="406.169" y="110.166"/>
      <point x="450.502" y="90.499" type="curve" smooth="yes"/>
      <point x="494.835" y="70.832"/>
      <point x="553.668" y="60.999"/>
      <point x="627.001" y="60.999" type="curve" smooth="yes"/>
      <point x="675.668" y="60.999"/>
      <point x="722.001" y="69.499"/>
      <point x="766.001" y="86.499" type="curve" smooth="yes"/>
      <point x="810.001" y="103.499"/>
      <point x="846.334" y="129.999"/>
      <point x="875.001" y="165.999" type="curve" smooth="yes"/>
      <point x="903.668" y="201.999"/>
      <point x="918.001" y="247.666"/>
      <point x="918.001" y="302.999" type="curve" smooth="yes"/>
      <point x="918.001" y="392.999"/>
      <point x="889.834" y="457.499"/>
      <point x="833.501" y="496.499" type="curve" smooth="yes"/>
      <point x="777.168" y="535.499"/>
      <point x="693.668" y="571.666"/>
      <point x="583.001" y="604.999" type="curve" smooth="yes"/>
      <point x="472.334" y="638.332"/>
      <point x="388.167" y="677.332"/>
      <point x="330.5" y="721.999" type="curve" smooth="yes"/>
      <point x="272.833" y="766.666"/>
      <point x="244" y="838.666"/>
      <point x="244" y="937.999" type="curve" smooth="yes"/>
      <point x="244" y="1006"/>
      <point x="262.667" y="1065.17"/>
      <point x="300" y="1115.5" type="curve" smooth="yes"/>
      <point x="337.333" y="1165.83"/>
      <point x="386" y="1203.5"/>
      <point x="446" y="1228.5" type="curve" smooth="yes"/>
      <point x="506" y="1253.5"/>
      <point x="570.333" y="1266"/>
      <point x="639" y="1266" type="curve" smooth="yes"/>
      <point x="734.333" y="1266"/>
      <point x="819" y="1244"/>
      <point x="893" y="1200" type="curve"/>
      <point x="905" y="1292" type="line"/>
      <point x="991" y="1274" type="line"/>
      <point x="977" y="1075" type="line" smooth="yes"/>
      <point x="977" y="1057"/>
      <point x="979.333" y="1028.67"/>
      <point x="984" y="989.999" type="curve" smooth="yes"/>
      <point x="988.667" y="951.332"/>
      <point x="992.334" y="921.665"/>
      <point x="995.001" y="900.998" type="curve"/>
      <point x="905.001" y="888.998" type="line"/>
      <point x="903.668" y="910.331"/>
      <point x="901.835" y="932.831"/>
      <point x="899.502" y="956.498" type="curve" smooth="yes"/>
      <point x="897.169" y="980.165"/>
      <point x="894.169" y="1001.5"/>
      <point x="890.502" y="1020.5" type="curve" smooth="yes"/>
      <point x="886.835" y="1039.5"/>
      <point x="880.668" y="1057.67"/>
      <point x="872.001" y="1075" type="curve" smooth="yes"/>
      <point x="834.668" y="1145"/>
      <point x="761.668" y="1180"/>
      <point x="653.001" y="1180" type="curve" smooth="yes"/>
      <point x="571.001" y="1180"/>
      <point x="498.668" y="1160.67"/>
      <point x="436.001" y="1122" type="curve" smooth="yes"/>
      <point x="373.334" y="1083.33"/>
      <point x="342.001" y="1025.33"/>
      <point x="342.001" y="947.998" type="curve" smooth="yes"/>
      <point x="342.001" y="866.665"/>
      <point x="368.001" y="809.332"/>
      <point x="420.001" y="775.999" type="curve" smooth="yes"/>
      <point x="472.001" y="742.666"/>
      <point x="555.168" y="707.333"/>
      <point x="669.501" y="670" type="curve" smooth="yes"/>
      <point x="783.834" y="632.667"/>
      <point x="870.167" y="590"/>
      <point x="928.5" y="542" type="curve" smooth="yes"/>
      <point x="986.833" y="494"/>
      <point x="1016" y="419"/>
    </contour>
  </outline>
</glyph>
<glyph name="T" format="1">
  <advance width="1229"/>
  <unicode hex="0054"/>
  <outline>
    <contour>
      <point x="1114" y="825" type="line"/>
      <point x="1022" y="825.001" type="line"/>
      <point x="1022" y="973.001" type="line" smooth="yes"/>
      <point x="1022" y="1024.33"/>
      <point x="1018" y="1062.67"/>
      <point x="1010" y="1088" type="curve" smooth="yes"/>
      <point x="1002" y="1113.33"/>
      <point x="986.167" y="1130.83"/>
      <point x="962.5" y="1140.5" type="curve" smooth="yes"/>
      <point x="938.833" y="1150.17"/>
      <point x="900.666" y="1155"/>
      <point x="847.999" y="1155" type="curve" smooth="yes"/>
      <point x="658.999" y="1155" type="line"/>
      <point x="658.999" y="86" type="line"/>
      <point x="894.999" y="86" type="line"/>
      <point x="894.999" y="0" type="line"/>
      <point x="331.999" y="0" type="line"/>
      <point x="331.999" y="86" type="line"/>
      <point x="566.999" y="86" type="line"/>
      <point x="566.999" y="1155" type="line"/>
      <point x="378.999" y="1155" type="line" smooth="yes"/>
      <point x="325.666" y="1155"/>
      <point x="287.333" y="1150.17"/>
      <point x="264" y="1140.5" type="curve" smooth="yes"/>
      <point x="240.667" y="1130.83"/>
      <point x="225" y="1114"/>
      <point x="217" y="1090" type="curve" smooth="yes"/>
      <point x="209" y="1066"/>
      <point x="205" y="1027"/>
      <point x="205" y="973" type="curve" smooth="yes"/>
      <point x="205" y="825" type="line"/>
      <point x="113" y="825" type="line"/>
      <point x="113" y="1241" type="line"/>
      <point x="1114" y="1241" type="line"/>
    </contour>
  </outline>
</glyph>
<glyph name="V" format="1">
  <advance width="1229"/>
  <unicode hex="0056"/>
  <outline>
    <contour>
      <point x="1165" y="1155" type="line"/>
      <point x="1034" y="1155" type="line"/>
      <point x="676" y="-23" type="line"/>
      <point x="551" y="-23" type="line"/>
      <point x="195" y="1155" type="line"/>
      <point x="63" y="1155" type="line"/>
      <point x="63" y="1241" type="line"/>
      <point x="442" y="1241" type="line"/>
      <point x="442" y="1155" type="line"/>
      <point x="287" y="1155" type="line"/>
      <point x="614" y="84" type="line"/>
      <point x="942" y="1155" type="line"/>
      <point x="784" y="1155" type="line"/>
      <point x="784" y="1241" type="line"/>
      <point x="1165" y="1241" type="line"/>
    </contour>
  </outline>
</glyph>
<glyph name="W" format="1">
  <advance width="1229"/>
  <unicode hex="0057"/>
  <outline>
    <contour>
      <point x="1178" y="1155" type="line"/>
      <point x="1092" y="1155" type="line"/>
      <point x="924" y="-27" type="line"/>
      <point x="827" y="-23" type="line"/>
      <point x="614" y="567" type="line"/>
      <point x="399" y="-23" type="line"/>
      <point x="305" y="-25" type="line"/>
      <point x="137" y="1155" type="line"/>
      <point x="51" y="1155" type="line"/>
      <point x="51" y="1241" type="line"/>
      <point x="371" y="1241" type="line"/>
      <point x="371" y="1155" type="line"/>
      <point x="227" y="1155" type="line"/>
      <point x="369" y="121" type="line"/>
      <point x="367" y="121" type="line"/>
      <point x="616" y="825" type="line"/>
      <point x="860" y="121" type="line"/>
      <point x="856" y="123" type="line"/>
      <point x="1001" y="1155" type="line"/>
      <point x="858" y="1155" type="line"/>
      <point x="858" y="1241" type="line"/>
      <point x="1178" y="1241" type="line"/>
    </contour>
  </outline>
</glyph>
<glyph name="X" format="1">
  <advance width="1229"/>
  <unicode hex="0058"/>
  <outline>
    <contour>
      <point x="1161" y="0" type="line"/>
      <point x="752" y="0" type="line"/>
      <point x="752" y="86" type="line"/>
      <point x="928" y="86" type="line"/>
      <point x="614" y="561" type="line"/>
      <point x="301" y="86" type="line"/>
      <point x="477" y="86" type="line"/>
      <point x="477" y="0" type="line"/>
      <point x="68" y="0" type="line"/>
      <point x="68" y="86" type="line"/>
      <point x="193" y="86" type="line"/>
      <point x="559" y="641" type="line"/>
      <point x="233" y="1155" type="line"/>
      <point x="117" y="1155" type="line"/>
      <point x="117" y="1241" type="line"/>
      <point x="477" y="1241" type="line"/>
      <point x="477" y="1155" type="line"/>
      <point x="336" y="1155" type="line"/>
      <point x="614" y="715" type="line"/>
      <point x="893" y="1155" type="line"/>
      <point x="752" y="1155" type="line"/>
      <point x="752" y="1241" type="line"/>
      <point x="1112" y="1241" type="line"/>
      <point x="1112" y="1155" type="line"/>
      <point x="995" y="1155" type="line"/>
      <point x="670" y="641" type="line"/>
      <point x="1036" y="86" type="line"/>
      <point x="1161" y="86" type="line"/>
    </contour>
  </outline>
</glyph>
<glyph name="Z" format="1">
  <advance width="1229"/>
  <unicode hex="005A"/>
  <outline>
    <contour>
      <point x="1065" y="0" type="line"/>
      <point x="163.999" y="0" type="line"/>
      <point x="163.999" y="82" type="line"/>
      <point x="886.999" y="1155" type="line"/>
      <point x="519.999" y="1155" type="line" smooth="yes"/>
      <point x="457.332" y="1155"/>
      <point x="411.332" y="1152.33"/>
      <point x="381.999" y="1147" type="curve" smooth="yes"/>
      <point x="352.666" y="1141.67"/>
      <point x="330.666" y="1131"/>
      <point x="315.999" y="1115" type="curve" smooth="yes"/>
      <point x="301.332" y="1099"/>
      <point x="291.832" y="1075.83"/>
      <point x="287.499" y="1045.5" type="curve" smooth="yes"/>
      <point x="283.166" y="1015.17"/>
      <point x="280.999" y="969.667"/>
      <point x="280.999" y="909" type="curve" smooth="yes"/>
      <point x="280.999" y="881" type="line"/>
      <point x="187.999" y="881" type="line"/>
      <point x="187.999" y="1241" type="line"/>
      <point x="990.999" y="1241" type="line"/>
      <point x="988.999" y="1159" type="line"/>
      <point x="269.999" y="86" type="line"/>
      <point x="732.999" y="86" type="line" smooth="yes"/>
      <point x="791.666" y="86"/>
      <point x="837.166" y="88.667"/>
      <point x="869.499" y="94" type="curve" smooth="yes"/>
      <point x="901.832" y="99.333"/>
      <point x="925.332" y="110"/>
      <point x="939.999" y="126" type="curve" smooth="yes"/>
      <point x="954.666" y="142"/>
      <point x="963.833" y="164"/>
      <point x="967.5" y="192" type="curve" smooth="yes"/>
      <point x="971.167" y="220"/>
      <point x="973" y="266.667"/>
      <point x="973" y="332" type="curve" smooth="yes"/>
      <point x="973" y="360" type="line"/>
      <point x="1065" y="360" type="line"/>
    </contour>
  </outline>
</glyph>
<glyph name="bracketleft" format="1">
  <advance width="1229"/>
  <unicode hex="005B"/>
  <outline>
    <contour>
      <point x="971" y="-121" type="line"/>
      <point x="594" y="-121" type="line"/>
      <point x="594" y="1423" type="line"/>
      <point x="971" y="1423" type="line"/>
      <point x="971" y="1337" type="line"/>
      <point x="686" y="1337" type="line"/>
      <point x="686" y="-35" type="line"/>
      <point x="971" y="-35" type="line"/>
    </contour>
  </outline>
</glyph>
<glyph name="backslash" format="1">
  <advance width="1229"/>
  <unicode hex="005C"/>
  <outline>
    <contour>
      <point x="975" y="-16" type="line"/>
      <point x="866" y="-12" type="line"/>
      <point x="256" y="1442" type="line"/>
      <point x="360" y="1438" type="line"/>
    </contour>
  </outline>
</glyph>
<glyph name="bracketright" format="1">
  <advance width="1229"/>
  <unicode hex="005D"/>
  <outline>
    <contour>
      <point x="635" y="-121" type="line"/>
      <point x="258" y="-121" type="line"/>
      <point x="258" y="-35" type="line"/>
      <point x="543" y="-35" type="line"/>
      <point x="543" y="1337" type="line"/>
      <point x="258" y="1337" type="line"/>
      <point x="258" y="1423" type="line"/>
      <point x="635" y="1423" type="line"/>
    </contour>
  </outline>
</glyph>
<glyph name="asciicircum" format="1">
  <advance width="1229"/>
  <unicode hex="005E"/>
  <outline>
    <contour>
      <point x="1010" y="772" type="line"/>
      <point x="891" y="774" type="line"/>
      <point x="614" y="1286" type="line"/>
      <point x="330" y="774" type="line"/>
      <point x="215" y="772" type="line"/>
      <point x="557" y="1403" type="line"/>
      <point x="670" y="1403" type="line"/>
    </contour>
  </outline>
</glyph>
<glyph name="underscore" format="1">
  <advance width="1229"/>
  <unicode hex="005F"/>
  <outline>
    <contour>
      <point x="1233" y="-221" type="line"/>
      <point x="-4" y="-221" type="line"/>
      <point x="-4" y="-135" type="line"/>
      <point x="1233" y="-135" type="line"/>
    </contour>
  </outline>
</glyph>
<glyph name="grave" format="1">
  <advance width="1229"/>
  <unicode hex="0060"/>
  <outline>
    <contour>
      <point x="760" y="1038" type="line"/>
      <point x="707" y="969" type="line"/>
      <point x="311" y="1235" type="line"/>
      <point x="395" y="1335" type="line"/>
    </contour>
  </outline>
</glyph>
<glyph name="b" format="1">
  <advance width="1229"/>
  <unicode hex="0062"/>
  <outline>
    <contour>
      <point x="1038" y="434" type="curve" smooth="yes"/>
      <point x="1038" y="349.333"/>
      <point x="1020.67" y="271.83"/>
      <point x="985.999" y="201.497" type="curve" smooth="yes"/>
      <point x="951.332" y="131.164"/>
      <point x="901.832" y="75.8311"/>
      <point x="837.499" y="35.498" type="curve" smooth="yes"/>
      <point x="773.166" y="-4.83496"/>
      <point x="697.333" y="-25.002"/>
      <point x="610" y="-25.002" type="curve" smooth="yes"/>
      <point x="565.333" y="-25.002"/>
      <point x="519.666" y="-17.1689"/>
      <point x="472.999" y="-1.50195" type="curve" smooth="yes"/>
      <point x="426.332" y="14.165"/>
      <point x="385.999" y="35.665"/>
      <point x="351.999" y="62.998" type="curve"/>
      <point x="344.666" y="34.998"/>
      <point x="323.666" y="-1.00195"/>
      <point x="288.999" y="-45.002" type="curve"/>
      <point x="214.999" y="-12.002" type="line"/>
      <point x="239.666" y="21.998"/>
      <point x="254.999" y="47.8311"/>
      <point x="260.999" y="65.498" type="curve" smooth="yes"/>
      <point x="266.999" y="83.165"/>
      <point x="269.999" y="111.332"/>
      <point x="269.999" y="149.999" type="curve" smooth="yes"/>
      <point x="269.999" y="1210" type="line"/>
      <point x="186.666" y="1192.67"/>
      <point x="123.333" y="1182.67"/>
      <point x="80" y="1180" type="curve"/>
      <point x="66" y="1266" type="line"/>
      <point x="174" y="1268.67"/>
      <point x="244" y="1289"/>
      <point x="276" y="1327" type="curve" smooth="yes"/>
      <point x="292" y="1346.33"/>
      <point x="308.667" y="1356"/>
      <point x="326" y="1356" type="curve" smooth="yes"/>
      <point x="350" y="1356"/>
      <point x="362" y="1327.33"/>
      <point x="362" y="1270" type="curve" smooth="yes"/>
      <point x="362" y="790.999" type="line"/>
      <point x="446.667" y="844.999"/>
      <point x="537.667" y="871.999"/>
      <point x="635" y="871.999" type="curve" smooth="yes"/>
      <point x="715.667" y="871.999"/>
      <point x="786.667" y="852.999"/>
      <point x="848" y="814.999" type="curve" smooth="yes"/>
      <point x="909.333" y="776.999"/>
      <point x="956.333" y="724.332"/>
      <point x="989" y="656.999" type="curve" smooth="yes"/>
      <point x="1021.67" y="589.666"/>
      <point x="1038" y="515.333"/>
    </contour>
    <contour>
      <point x="939.999" y="421.997" type="curve" smooth="yes"/>
      <point x="939.999" y="487.33"/>
      <point x="927.999" y="547.832"/>
      <point x="903.999" y="603.499" type="curve" smooth="yes"/>
      <point x="879.999" y="659.166"/>
      <point x="844.166" y="703.499"/>
      <point x="796.499" y="736.499" type="curve" smooth="yes"/>
      <point x="748.832" y="769.499"/>
      <point x="690.999" y="785.999"/>
      <point x="622.999" y="785.999" type="curve" smooth="yes"/>
      <point x="528.332" y="785.999"/>
      <point x="441.332" y="752.666"/>
      <point x="361.999" y="685.999" type="curve"/>
      <point x="361.999" y="161.999" type="line"/>
      <point x="390.666" y="129.999"/>
      <point x="426.666" y="105.166"/>
      <point x="469.999" y="87.499" type="curve" smooth="yes"/>
      <point x="513.332" y="69.832"/>
      <point x="557.999" y="60.999"/>
      <point x="603.999" y="60.999" type="curve" smooth="yes"/>
      <point x="673.999" y="60.999"/>
      <point x="734.166" y="76.666"/>
      <point x="784.499" y="107.999" type="curve" smooth="yes"/>
      <point x="834.832" y="139.332"/>
      <point x="873.332" y="182.665"/>
      <point x="899.999" y="237.998" type="curve" smooth="yes"/>
      <point x="926.666" y="293.331"/>
      <point x="939.999" y="354.664"/>
    </contour>
  </outline>
</glyph>
<glyph name="c" format="1">
  <advance width="1229"/>
  <unicode hex="0063"/>
  <outline>
    <contour>
      <point x="1028" y="70" type="line"/>
      <point x="972.667" y="39.333"/>
      <point x="911.001" y="15.834"/>
      <point x="843.001" y="-0.499023" type="curve" smooth="yes"/>
      <point x="775.001" y="-16.832"/>
      <point x="709.001" y="-24.999"/>
      <point x="645.001" y="-24.999" type="curve" smooth="yes"/>
      <point x="559.001" y="-24.999"/>
      <point x="481.001" y="-6.83203"/>
      <point x="411.001" y="29.501" type="curve" smooth="yes"/>
      <point x="341.001" y="65.834"/>
      <point x="286.001" y="117.501"/>
      <point x="246.001" y="184.501" type="curve" smooth="yes"/>
      <point x="206.001" y="251.501"/>
      <point x="186.001" y="328.668"/>
      <point x="186.001" y="416.001" type="curve" smooth="yes"/>
      <point x="186.001" y="502.668"/>
      <point x="205.501" y="580.668"/>
      <point x="244.501" y="650.001" type="curve" smooth="yes"/>
      <point x="283.501" y="719.334"/>
      <point x="338.001" y="773.667"/>
      <point x="408.001" y="813" type="curve" smooth="yes"/>
      <point x="478.001" y="852.333"/>
      <point x="557.001" y="872"/>
      <point x="645.001" y="872" type="curve" smooth="yes"/>
      <point x="709.001" y="872"/>
      <point x="769.001" y="861.167"/>
      <point x="825.001" y="839.5" type="curve" smooth="yes"/>
      <point x="881.001" y="817.833"/>
      <point x="921.334" y="783"/>
      <point x="946.001" y="735" type="curve"/>
      <point x="946.001" y="541" type="line"/>
      <point x="860.001" y="541" type="line"/>
      <point x="860.001" y="584" type="line" smooth="yes"/>
      <point x="860.001" y="718.667"/>
      <point x="785.668" y="786"/>
      <point x="637.001" y="786" type="curve" smooth="yes"/>
      <point x="568.334" y="786"/>
      <point x="507.334" y="770.5"/>
      <point x="454.001" y="739.5" type="curve" smooth="yes"/>
      <point x="400.668" y="708.5"/>
      <point x="359.168" y="665.5"/>
      <point x="329.501" y="610.5" type="curve" smooth="yes"/>
      <point x="299.834" y="555.5"/>
      <point x="285.001" y="494.667"/>
      <point x="285.001" y="428" type="curve" smooth="yes"/>
      <point x="285.001" y="356.667"/>
      <point x="300.334" y="293.167"/>
      <point x="331.001" y="237.5" type="curve" smooth="yes"/>
      <point x="361.668" y="181.833"/>
      <point x="405.001" y="138.5"/>
      <point x="461.001" y="107.5" type="curve" smooth="yes"/>
      <point x="517.001" y="76.5"/>
      <point x="579.668" y="61"/>
      <point x="649.001" y="61" type="curve" smooth="yes"/>
      <point x="706.334" y="61"/>
      <point x="765.667" y="69"/>
      <point x="827" y="85" type="curve" smooth="yes"/>
      <point x="888.333" y="101"/>
      <point x="945" y="122.667"/>
      <point x="997" y="150" type="curve"/>
    </contour>
  </outline>
</glyph>
<glyph name="d" format="1">
  <advance width="1229"/>
  <unicode hex="0064"/>
  <outline>
    <contour>
      <point x="1059" y="0" type="line"/>
      <point x="802.999" y="0" type="line"/>
      <point x="802.999" y="51" type="line"/>
      <point x="766.999" y="28.333"/>
      <point x="726.666" y="10"/>
      <point x="681.999" y="-4" type="curve" smooth="yes"/>
      <point x="637.332" y="-18"/>
      <point x="594.332" y="-25"/>
      <point x="552.999" y="-25" type="curve" smooth="yes"/>
      <point x="475.666" y="-25"/>
      <point x="405.999" y="-4.5"/>
      <point x="343.999" y="36.5" type="curve" smooth="yes"/>
      <point x="281.999" y="77.5"/>
      <point x="233.666" y="131.667"/>
      <point x="198.999" y="199" type="curve" smooth="yes"/>
      <point x="164.332" y="266.333"/>
      <point x="146.999" y="339.333"/>
      <point x="146.999" y="418" type="curve" smooth="yes"/>
      <point x="146.999" y="499.333"/>
      <point x="164.499" y="574.5"/>
      <point x="199.499" y="643.5" type="curve" smooth="yes"/>
      <point x="234.499" y="712.5"/>
      <point x="283.832" y="767.833"/>
      <point x="347.499" y="809.5" type="curve" smooth="yes"/>
      <point x="411.166" y="851.167"/>
      <point x="484.333" y="872"/>
      <point x="567" y="872" type="curve" smooth="yes"/>
      <point x="649" y="872"/>
      <point x="727.667" y="853.667"/>
      <point x="803" y="817" type="curve"/>
      <point x="803" y="1210" type="line"/>
      <point x="717.667" y="1192"/>
      <point x="654" y="1182"/>
      <point x="612" y="1180" type="curve"/>
      <point x="598" y="1266" type="line"/>
      <point x="706.667" y="1268.67"/>
      <point x="777" y="1289"/>
      <point x="809" y="1327" type="curve" smooth="yes"/>
      <point x="823.667" y="1346.33"/>
      <point x="840" y="1356"/>
      <point x="858" y="1356" type="curve" smooth="yes"/>
      <point x="872" y="1356"/>
      <point x="881.667" y="1347.33"/>
      <point x="887" y="1330" type="curve" smooth="yes"/>
      <point x="892.333" y="1312.67"/>
      <point x="895" y="1292.67"/>
      <point x="895" y="1270" type="curve" smooth="yes"/>
      <point x="895" y="86" type="line"/>
      <point x="1059" y="86" type="line"/>
    </contour>
    <contour>
      <point x="802.999" y="145" type="curve"/>
      <point x="802.997" y="717" type="line"/>
      <point x="728.997" y="763"/>
      <point x="655.997" y="786"/>
      <point x="583.997" y="786" type="curve" smooth="yes"/>
      <point x="487.33" y="786"/>
      <point x="406.83" y="752.5"/>
      <point x="342.497" y="685.5" type="curve" smooth="yes"/>
      <point x="278.164" y="618.5"/>
      <point x="245.997" y="531.333"/>
      <point x="245.997" y="424" type="curve" smooth="yes"/>
      <point x="245.997" y="362"/>
      <point x="258.997" y="303"/>
      <point x="284.997" y="247" type="curve" smooth="yes"/>
      <point x="310.997" y="191"/>
      <point x="347.83" y="146"/>
      <point x="395.497" y="112" type="curve" smooth="yes"/>
      <point x="443.164" y="78"/>
      <point x="498.331" y="61"/>
      <point x="560.998" y="61" type="curve" smooth="yes"/>
      <point x="645.665" y="61"/>
      <point x="726.332" y="89"/>
    </contour>
  </outline>
</glyph>
<glyph name="f" format="1">
  <advance width="1229"/>
  <unicode hex="0066"/>
  <outline>
    <contour>
      <point x="1153" y="1176" type="curve"/>
      <point x="1090" y="1096" type="line"/>
      <point x="974.001" y="1168"/>
      <point x="859.001" y="1204"/>
      <point x="745.001" y="1204" type="curve" smooth="yes"/>
      <point x="695.001" y="1204"/>
      <point x="657.334" y="1193.17"/>
      <point x="632.001" y="1171.5" type="curve" smooth="yes"/>
      <point x="606.668" y="1149.83"/>
      <point x="590.168" y="1122"/>
      <point x="582.501" y="1088" type="curve" smooth="yes"/>
      <point x="574.834" y="1054"/>
      <point x="571.001" y="1013.67"/>
      <point x="571.001" y="967" type="curve" smooth="yes"/>
      <point x="571.001" y="891" type="line"/>
      <point x="571.001" y="848" type="line"/>
      <point x="965.001" y="848" type="line"/>
      <point x="965.001" y="762" type="line"/>
      <point x="571.001" y="762" type="line"/>
      <point x="571.001" y="86" type="line"/>
      <point x="920.001" y="86" type="line"/>
      <point x="920.001" y="0" type="line"/>
      <point x="254.001" y="0" type="line"/>
      <point x="254.001" y="86" type="line"/>
      <point x="479.001" y="86" type="line"/>
      <point x="479.001" y="762" type="line"/>
      <point x="190.001" y="762" type="line"/>
      <point x="190.001" y="848" type="line"/>
      <point x="479.001" y="848" type="line"/>
      <point x="479.001" y="891" type="line"/>
      <point x="479.001" y="946" type="line" smooth="yes"/>
      <point x="479.001" y="1052"/>
      <point x="494.668" y="1135.83"/>
      <point x="526.001" y="1197.5" type="curve" smooth="yes"/>
      <point x="557.334" y="1259.17"/>
      <point x="627.667" y="1290"/>
      <point x="737" y="1290" type="curve" smooth="yes"/>
      <point x="889" y="1290"/>
      <point x="1027.67" y="1252"/>
    </contour>
  </outline>
</glyph>
<glyph name="g" format="1">
  <advance width="1229"/>
  <unicode hex="0067"/>
  <outline>
    <contour>
      <point x="1130" y="-127" type="curve" smooth="yes"/>
      <point x="1130" y="-188.333"/>
      <point x="1114.67" y="-239.499"/>
      <point x="1084" y="-280.499" type="curve" smooth="yes"/>
      <point x="1053.33" y="-321.499"/>
      <point x="1013.5" y="-353.666"/>
      <point x="964.502" y="-376.999" type="curve" smooth="yes"/>
      <point x="915.502" y="-400.332"/>
      <point x="861.669" y="-416.999"/>
      <point x="803.002" y="-426.999" type="curve" smooth="yes"/>
      <point x="744.335" y="-436.999"/>
      <point x="687.668" y="-441.999"/>
      <point x="633.001" y="-441.999" type="curve" smooth="yes"/>
      <point x="563.668" y="-441.999"/>
      <point x="498.835" y="-436.832"/>
      <point x="438.502" y="-426.499" type="curve" smooth="yes"/>
      <point x="378.169" y="-416.166"/>
      <point x="325.502" y="-393.833"/>
      <point x="280.502" y="-359.5" type="curve" smooth="yes"/>
      <point x="235.502" y="-325.167"/>
      <point x="213.002" y="-275.667"/>
      <point x="213.002" y="-211" type="curve" smooth="yes"/>
      <point x="213.002" y="-164.333"/>
      <point x="227.669" y="-121"/>
      <point x="257.002" y="-81" type="curve" smooth="yes"/>
      <point x="286.335" y="-41"/>
      <point x="323.668" y="-8"/>
      <point x="369.001" y="18" type="curve"/>
      <point x="330.334" y="34"/>
      <point x="311.001" y="58.667"/>
      <point x="311.001" y="92" type="curve" smooth="yes"/>
      <point x="311.001" y="122"/>
      <point x="323.834" y="152.667"/>
      <point x="349.501" y="184" type="curve" smooth="yes"/>
      <point x="375.168" y="215.333"/>
      <point x="405.335" y="243.333"/>
      <point x="440.002" y="268" type="curve"/>
      <point x="382.669" y="292"/>
      <point x="337.669" y="329.167"/>
      <point x="305.002" y="379.5" type="curve" smooth="yes"/>
      <point x="272.335" y="429.833"/>
      <point x="256.002" y="485.666"/>
      <point x="256.002" y="546.999" type="curve" smooth="yes"/>
      <point x="256.002" y="607.666"/>
      <point x="270.669" y="662.999"/>
      <point x="300.002" y="712.999" type="curve" smooth="yes"/>
      <point x="329.335" y="762.999"/>
      <point x="370.168" y="801.999"/>
      <point x="422.501" y="829.999" type="curve" smooth="yes"/>
      <point x="474.834" y="857.999"/>
      <point x="534.001" y="871.999"/>
      <point x="600.001" y="871.999" type="curve" smooth="yes"/>
      <point x="645.334" y="871.999"/>
      <point x="689.667" y="863.999"/>
      <point x="733" y="847.999" type="curve"/>
      <point x="1004" y="847.999" type="line"/>
      <point x="1004" y="761.999" type="line"/>
      <point x="854" y="761.999" type="line"/>
      <point x="880" y="727.332"/>
      <point x="899.167" y="692.832"/>
      <point x="911.5" y="658.499" type="curve" smooth="yes"/>
      <point x="923.833" y="624.166"/>
      <point x="930" y="586.999"/>
      <point x="930" y="546.999" type="curve" smooth="yes"/>
      <point x="930" y="448.999"/>
      <point x="900.167" y="372.166"/>
      <point x="840.5" y="316.499" type="curve" smooth="yes"/>
      <point x="780.833" y="260.832"/>
      <point x="702" y="232.999"/>
      <point x="604" y="232.999" type="curve" smooth="yes"/>
      <point x="580" y="232.999"/>
      <point x="555.333" y="235.999"/>
      <point x="530" y="241.999" type="curve"/>
      <point x="507.333" y="228.666"/>
      <point x="481.666" y="208.833"/>
      <point x="452.999" y="182.5" type="curve" smooth="yes"/>
      <point x="424.332" y="156.167"/>
      <point x="409.999" y="134.334"/>
      <point x="409.999" y="117.001" type="curve" smooth="yes"/>
      <point x="409.999" y="99.001"/>
      <point x="454.332" y="90.001"/>
      <point x="542.999" y="90.001" type="curve" smooth="yes"/>
      <point x="822.999" y="90.001" type="line" smooth="yes"/>
      <point x="883.666" y="90.001"/>
      <point x="937.333" y="82.668"/>
      <point x="984" y="68.001" type="curve" smooth="yes"/>
      <point x="1030.67" y="53.334"/>
      <point x="1066.67" y="29.667"/>
      <point x="1092" y="-3" type="curve" smooth="yes"/>
      <point x="1117.33" y="-35.667"/>
      <point x="1130" y="-77"/>
    </contour>
    <contour>
      <point x="831.002" y="547.001" type="curve" smooth="yes"/>
      <point x="831.002" y="615.668"/>
      <point x="810.002" y="672.669"/>
      <point x="768.002" y="718.002" type="curve" smooth="yes"/>
      <point x="726.002" y="763.335"/>
      <point x="670.669" y="786.002"/>
      <point x="602.002" y="786.002" type="curve" smooth="yes"/>
      <point x="534.669" y="786.002"/>
      <point x="476.502" y="764.669"/>
      <point x="427.502" y="722.002" type="curve" smooth="yes"/>
      <point x="378.502" y="679.335"/>
      <point x="354.002" y="624.335"/>
      <point x="354.002" y="557.002" type="curve" smooth="yes"/>
      <point x="354.002" y="483.669"/>
      <point x="377.669" y="425.669"/>
      <point x="425.002" y="383.002" type="curve" smooth="yes"/>
      <point x="472.335" y="340.335"/>
      <point x="533.335" y="319.002"/>
      <point x="608.002" y="319.002" type="curve" smooth="yes"/>
      <point x="680.002" y="319.002"/>
      <point x="735.169" y="340.169"/>
      <point x="773.502" y="382.502" type="curve" smooth="yes"/>
      <point x="811.835" y="424.835"/>
      <point x="831.002" y="479.668"/>
    </contour>
    <contour>
      <point x="1032" y="-140.998" type="curve" smooth="yes"/>
      <point x="1032" y="-83.665"/>
      <point x="1015.17" y="-46.4971"/>
      <point x="981.502" y="-29.4971" type="curve" smooth="yes"/>
      <point x="947.835" y="-12.4971"/>
      <point x="898.668" y="-3.99707"/>
      <point x="834.001" y="-3.99707" type="curve" smooth="yes"/>
      <point x="477.001" y="-3.99707" type="line"/>
      <point x="426.334" y="-31.9971"/>
      <point x="386.001" y="-61.3301"/>
      <point x="356.001" y="-91.9971" type="curve" smooth="yes"/>
      <point x="326.001" y="-122.664"/>
      <point x="311.001" y="-160.331"/>
      <point x="311.001" y="-204.998" type="curve" smooth="yes"/>
      <point x="311.001" y="-305.665"/>
      <point x="414.334" y="-355.998"/>
      <point x="621.001" y="-355.998" type="curve" smooth="yes"/>
      <point x="719.668" y="-355.998"/>
      <point x="812.835" y="-340.165"/>
      <point x="900.502" y="-308.498" type="curve" smooth="yes"/>
      <point x="988.169" y="-276.831"/>
      <point x="1032" y="-220.998"/>
    </contour>
  </outline>
</glyph>
<glyph name="h" format="1">
  <advance width="1229"/>
  <unicode hex="0068"/>
  <outline>
    <contour>
      <point x="1128" y="0" type="line"/>
      <point x="753.999" y="-0.000976562" type="line"/>
      <point x="753.999" y="85.999" type="line"/>
      <point x="892.999" y="85.999" type="line"/>
      <point x="892.999" y="497.999" type="line" smooth="yes"/>
      <point x="892.999" y="559.999"/>
      <point x="889.999" y="609.999"/>
      <point x="883.999" y="647.999" type="curve" smooth="yes"/>
      <point x="877.999" y="685.999"/>
      <point x="861.666" y="718.499"/>
      <point x="834.999" y="745.499" type="curve" smooth="yes"/>
      <point x="808.332" y="772.499"/>
      <point x="766.999" y="785.999"/>
      <point x="710.999" y="785.999" type="curve" smooth="yes"/>
      <point x="612.332" y="785.999"/>
      <point x="494.665" y="742.999"/>
      <point x="357.998" y="656.999" type="curve"/>
      <point x="357.998" y="85.999" type="line"/>
      <point x="497.998" y="85.999" type="line"/>
      <point x="497.998" y="-0.000976562" type="line"/>
      <point x="122.998" y="-0.000976562" type="line"/>
      <point x="122.998" y="85.999" type="line"/>
      <point x="265.998" y="85.999" type="line"/>
      <point x="265.998" y="1210" type="line"/>
      <point x="237.998" y="1204"/>
      <point x="205.831" y="1197.83"/>
      <point x="169.498" y="1191.5" type="curve" smooth="yes"/>
      <point x="133.165" y="1185.17"/>
      <point x="101.998" y="1181.33"/>
      <point x="75.998" y="1180" type="curve"/>
      <point x="60.998" y="1266" type="line"/>
      <point x="169.665" y="1268.67"/>
      <point x="239.998" y="1289"/>
      <point x="271.998" y="1327" type="curve" smooth="yes"/>
      <point x="287.998" y="1346.33"/>
      <point x="304.665" y="1356"/>
      <point x="321.998" y="1356" type="curve" smooth="yes"/>
      <point x="345.998" y="1356"/>
      <point x="357.998" y="1327.33"/>
      <point x="357.998" y="1270" type="curve" smooth="yes"/>
      <point x="357.998" y="758" type="line"/>
      <point x="418.665" y="791.333"/>
      <point x="479.332" y="818.666"/>
      <point x="539.999" y="839.999" type="curve" smooth="yes"/>
      <point x="600.666" y="861.332"/>
      <point x="658.333" y="871.999"/>
      <point x="713" y="871.999" type="curve" smooth="yes"/>
      <point x="807.667" y="871.999"/>
      <point x="876.667" y="846.832"/>
      <point x="920" y="796.499" type="curve" smooth="yes"/>
      <point x="963.333" y="746.166"/>
      <point x="985" y="655.333"/>
      <point x="985" y="524" type="curve" smooth="yes"/>
      <point x="985" y="86" type="line"/>
      <point x="1128" y="86" type="line"/>
    </contour>
  </outline>
</glyph>
<glyph name="i" format="1">
  <advance width="1229"/>
  <unicode hex="0069"/>
  <outline>
    <contour>
      <point x="733" y="1149" type="curve" smooth="yes"/>
      <point x="733" y="1116.33"/>
      <point x="721.668" y="1088.67"/>
      <point x="699.001" y="1066" type="curve" smooth="yes"/>
      <point x="676.334" y="1043.33"/>
      <point x="648.667" y="1032"/>
      <point x="616" y="1032" type="curve" smooth="yes"/>
      <point x="584" y="1032"/>
      <point x="556.667" y="1043.33"/>
      <point x="534" y="1066" type="curve" smooth="yes"/>
      <point x="511.333" y="1088.67"/>
      <point x="500" y="1116.33"/>
      <point x="500" y="1149" type="curve" smooth="yes"/>
      <point x="500" y="1181.67"/>
      <point x="511.333" y="1209.33"/>
      <point x="534" y="1232" type="curve" smooth="yes"/>
      <point x="556.667" y="1254.67"/>
      <point x="584" y="1266"/>
      <point x="616" y="1266" type="curve" smooth="yes"/>
      <point x="637.333" y="1266"/>
      <point x="657" y="1260.83"/>
      <point x="675" y="1250.5" type="curve" smooth="yes"/>
      <point x="693" y="1240.17"/>
      <point x="707.167" y="1226"/>
      <point x="717.5" y="1208" type="curve" smooth="yes"/>
      <point x="727.833" y="1190"/>
      <point x="733" y="1170.33"/>
    </contour>
    <contour>
      <point x="1012" y="-0.000976562" type="line"/>
      <point x="217.005" y="-0.000976562" type="line"/>
      <point x="217.005" y="85.999" type="line"/>
      <point x="592.005" y="85.999" type="line"/>
      <point x="592.005" y="763.999" type="line"/>
      <point x="557.338" y="757.999"/>
      <point x="498.171" y="751.666"/>
      <point x="414.504" y="744.999" type="curve" smooth="yes"/>
      <point x="330.837" y="738.332"/>
      <point x="259.004" y="734.332"/>
      <point x="199.004" y="732.999" type="curve"/>
      <point x="184.004" y="818.999" type="line"/>
      <point x="259.337" y="820.332"/>
      <point x="322.17" y="822.499"/>
      <point x="372.503" y="825.499" type="curve" smooth="yes"/>
      <point x="422.836" y="828.499"/>
      <point x="469.669" y="834.499"/>
      <point x="513.002" y="843.499" type="curve" smooth="yes"/>
      <point x="556.335" y="852.499"/>
      <point x="584.668" y="864.999"/>
      <point x="598.001" y="880.999" type="curve" smooth="yes"/>
      <point x="612.001" y="899.666"/>
      <point x="628.334" y="908.999"/>
      <point x="647.001" y="908.999" type="curve" smooth="yes"/>
      <point x="661.001" y="908.999"/>
      <point x="670.668" y="900.332"/>
      <point x="676.001" y="882.999" type="curve" smooth="yes"/>
      <point x="681.334" y="865.666"/>
      <point x="684.001" y="845.666"/>
      <point x="684.001" y="822.999" type="curve" smooth="yes"/>
      <point x="684.001" y="85.999" type="line"/>
      <point x="1012" y="85.999" type="line"/>
    </contour>
  </outline>
</glyph>
<glyph name="j" format="1">
  <advance width="1229"/>
  <unicode hex="006A"/>
  <outline>
    <contour>
      <point x="887" y="1149" type="curve" smooth="yes"/>
      <point x="887" y="1116.33"/>
      <point x="875.668" y="1088.67"/>
      <point x="853.001" y="1066" type="curve" smooth="yes"/>
      <point x="830.334" y="1043.33"/>
      <point x="802.667" y="1032"/>
      <point x="770" y="1032" type="curve" smooth="yes"/>
      <point x="737.333" y="1032"/>
      <point x="709.666" y="1043.33"/>
      <point x="686.999" y="1066" type="curve" smooth="yes"/>
      <point x="664.332" y="1088.67"/>
      <point x="652.999" y="1116.33"/>
      <point x="652.999" y="1149" type="curve" smooth="yes"/>
      <point x="652.999" y="1181.67"/>
      <point x="664.332" y="1209.33"/>
      <point x="686.999" y="1232" type="curve" smooth="yes"/>
      <point x="709.666" y="1254.67"/>
      <point x="737.333" y="1266"/>
      <point x="770" y="1266" type="curve" smooth="yes"/>
      <point x="791.333" y="1266"/>
      <point x="811" y="1260.83"/>
      <point x="829" y="1250.5" type="curve" smooth="yes"/>
      <point x="847" y="1240.17"/>
      <point x="861.167" y="1226"/>
      <point x="871.5" y="1208" type="curve" smooth="yes"/>
      <point x="881.833" y="1190"/>
      <point x="887" y="1170.33"/>
    </contour>
    <contour>
      <point x="813.001" y="-10.001" type="line"/>
      <point x="813.002" y="-68.002" type="line" smooth="yes"/>
      <point x="813.002" y="-146.669"/>
      <point x="808.002" y="-211.502"/>
      <point x="798.002" y="-262.502" type="curve" smooth="yes"/>
      <point x="788.002" y="-313.502"/>
      <point x="764.002" y="-356.169"/>
      <point x="726.002" y="-390.502" type="curve" smooth="yes"/>
      <point x="688.002" y="-424.835"/>
      <point x="630.335" y="-442.002"/>
      <point x="553.002" y="-442.002" type="curve" smooth="yes"/>
      <point x="401.002" y="-442.002"/>
      <point x="263.002" y="-404.002"/>
      <point x="139.002" y="-328.002" type="curve"/>
      <point x="203.002" y="-248.002" type="line"/>
      <point x="315.669" y="-320.002"/>
      <point x="429.669" y="-356.002"/>
      <point x="545.002" y="-356.002" type="curve" smooth="yes"/>
      <point x="596.335" y="-356.002"/>
      <point x="634.835" y="-344.669"/>
      <point x="660.502" y="-322.002" type="curve" smooth="yes"/>
      <point x="686.169" y="-299.335"/>
      <point x="702.669" y="-270.668"/>
      <point x="710.002" y="-236.001" type="curve" smooth="yes"/>
      <point x="717.335" y="-201.334"/>
      <point x="721.002" y="-158.001"/>
      <point x="721.002" y="-106.001" type="curve" smooth="yes"/>
      <point x="721.002" y="-57.001" type="line"/>
      <point x="721.002" y="763.999" type="line"/>
      <point x="657.669" y="741.999"/>
      <point x="590.002" y="730.999"/>
      <point x="518.002" y="730.999" type="curve" smooth="yes"/>
      <point x="497.335" y="730.999"/>
      <point x="481.668" y="731.666"/>
      <point x="471.001" y="732.999" type="curve" smooth="yes"/>
      <point x="328.001" y="742.999" type="line"/>
      <point x="313.001" y="826.999" type="line"/>
      <point x="477.001" y="816.999" type="line" smooth="yes"/>
      <point x="525.668" y="816.999"/>
      <point x="574.001" y="821.332"/>
      <point x="622.001" y="829.999" type="curve" smooth="yes"/>
      <point x="670.001" y="838.666"/>
      <point x="705.001" y="855.666"/>
      <point x="727.001" y="880.999" type="curve" smooth="yes"/>
      <point x="739.668" y="898.332"/>
      <point x="754.001" y="906.999"/>
      <point x="770.001" y="906.999" type="curve" smooth="yes"/>
      <point x="788.001" y="906.999"/>
      <point x="799.668" y="898.166"/>
      <point x="805.001" y="880.499" type="curve" smooth="yes"/>
      <point x="810.334" y="862.832"/>
      <point x="813.001" y="834.999"/>
      <point x="813.001" y="796.999" type="curve" smooth="yes"/>
    </contour>
  </outline>
</glyph>
<glyph name="k" format="1">
  <advance width="1229"/>
  <unicode hex="006B"/>
  <outline>
    <contour>
      <point x="1165" y="0" type="line"/>
      <point x="793" y="-0.000976562" type="line"/>
      <point x="793" y="85.999" type="line"/>
      <point x="903" y="85.999" type="line"/>
      <point x="608" y="458.999" type="line"/>
      <point x="393" y="271.999" type="line"/>
      <point x="393" y="85.999" type="line"/>
      <point x="530" y="85.999" type="line"/>
      <point x="530" y="-0.000976562" type="line"/>
      <point x="121" y="-0.000976562" type="line"/>
      <point x="121" y="85.999" type="line"/>
      <point x="301" y="85.999" type="line"/>
      <point x="301" y="1210" type="line"/>
      <point x="273" y="1204"/>
      <point x="240.833" y="1197.83"/>
      <point x="204.5" y="1191.5" type="curve" smooth="yes"/>
      <point x="168.167" y="1185.17"/>
      <point x="137" y="1181.33"/>
      <point x="111" y="1180" type="curve"/>
      <point x="96" y="1266" type="line"/>
      <point x="204.667" y="1268.67"/>
      <point x="275" y="1289"/>
      <point x="307" y="1327" type="curve" smooth="yes"/>
      <point x="321.667" y="1346.33"/>
      <point x="338" y="1356"/>
      <point x="356" y="1356" type="curve" smooth="yes"/>
      <point x="370" y="1356"/>
      <point x="379.667" y="1347.33"/>
      <point x="385" y="1330" type="curve" smooth="yes"/>
      <point x="390.333" y="1312.67"/>
      <point x="393" y="1292.67"/>
      <point x="393" y="1270" type="curve" smooth="yes"/>
      <point x="393" y="377" type="line"/>
      <point x="805" y="762" type="line"/>
      <point x="694" y="762" type="line"/>
      <point x="694" y="848" type="line"/>
      <point x="1065" y="848" type="line"/>
      <point x="1065" y="762" type="line"/>
      <point x="924" y="762" type="line"/>
      <point x="672" y="516" type="line"/>
      <point x="1012" y="86" type="line"/>
      <point x="1165" y="86" type="line"/>
    </contour>
  </outline>
</glyph>
<glyph name="l" format="1">
  <advance width="1229"/>
  <unicode hex="006C"/>
  <outline>
    <contour>
      <point x="989" y="0" type="line"/>
      <point x="240" y="0.000976562" type="line"/>
      <point x="240" y="86.001" type="line"/>
      <point x="590" y="86.001" type="line"/>
      <point x="590" y="1210" type="line"/>
      <point x="564" y="1205.33"/>
      <point x="512.5" y="1199.5"/>
      <point x="435.5" y="1192.5" type="curve" smooth="yes"/>
      <point x="358.5" y="1185.5"/>
      <point x="295.333" y="1181.33"/>
      <point x="246" y="1180" type="curve"/>
      <point x="231" y="1266" type="line"/>
      <point x="443" y="1269.33"/>
      <point x="564.667" y="1289.67"/>
      <point x="596" y="1327" type="curve" smooth="yes"/>
      <point x="610.667" y="1346.33"/>
      <point x="627" y="1356"/>
      <point x="645" y="1356" type="curve" smooth="yes"/>
      <point x="659" y="1356"/>
      <point x="668.667" y="1347.33"/>
      <point x="674" y="1330" type="curve" smooth="yes"/>
      <point x="679.333" y="1312.67"/>
      <point x="682" y="1292.67"/>
      <point x="682" y="1270" type="curve" smooth="yes"/>
      <point x="682" y="86" type="line"/>
      <point x="989" y="86" type="line"/>
    </contour>
  </outline>
</glyph>
<glyph name="m" format="1">
  <advance width="1229"/>
  <unicode hex="006D"/>
  <outline>
    <contour>
      <point x="1178" y="0" type="line"/>
      <point x="900.999" y="-0.000976562" type="line"/>
      <point x="900.999" y="85.999" type="line"/>
      <point x="980.999" y="85.999" type="line"/>
      <point x="980.999" y="595.999" type="line" smooth="yes"/>
      <point x="980.999" y="662.666"/>
      <point x="975.499" y="710.999"/>
      <point x="964.499" y="740.999" type="curve" smooth="yes"/>
      <point x="953.499" y="770.999"/>
      <point x="927.666" y="785.999"/>
      <point x="886.999" y="785.999" type="curve" smooth="yes"/>
      <point x="824.332" y="785.999"/>
      <point x="755.999" y="753.332"/>
      <point x="681.999" y="687.999" type="curve"/>
      <point x="681.999" y="85.999" type="line"/>
      <point x="761.999" y="85.999" type="line"/>
      <point x="761.999" y="-0.000976562" type="line"/>
      <point x="509.999" y="-0.000976562" type="line"/>
      <point x="509.999" y="85.999" type="line"/>
      <point x="589.999" y="85.999" type="line"/>
      <point x="589.999" y="595.999" type="line" smooth="yes"/>
      <point x="589.999" y="653.332"/>
      <point x="584.499" y="699.332"/>
      <point x="573.499" y="733.999" type="curve" smooth="yes"/>
      <point x="562.499" y="768.666"/>
      <point x="535.332" y="785.999"/>
      <point x="491.999" y="785.999" type="curve" smooth="yes"/>
      <point x="461.332" y="785.999"/>
      <point x="427.832" y="776.166"/>
      <point x="391.499" y="756.499" type="curve" smooth="yes"/>
      <point x="355.166" y="736.832"/>
      <point x="321.666" y="713.999"/>
      <point x="290.999" y="687.999" type="curve"/>
      <point x="290.999" y="85.999" type="line"/>
      <point x="370.999" y="85.999" type="line"/>
      <point x="370.999" y="-0.000976562" type="line"/>
      <point x="73.999" y="-0.000976562" type="line"/>
      <point x="73.999" y="85.999" type="line"/>
      <point x="198.999" y="85.999" type="line"/>
      <point x="198.999" y="763.999" type="line"/>
      <point x="182.332" y="760.666"/>
      <point x="163.499" y="756.499"/>
      <point x="142.499" y="751.499" type="curve" smooth="yes"/>
      <point x="121.499" y="746.499"/>
      <point x="103.166" y="742.999"/>
      <point x="87.499" y="740.999" type="curve" smooth="yes"/>
      <point x="71.832" y="738.999"/>
      <point x="57.665" y="737.666"/>
      <point x="44.998" y="736.999" type="curve"/>
      <point x="30.998" y="818.999" type="line"/>
      <point x="113.665" y="821.666"/>
      <point x="171.665" y="842.333"/>
      <point x="204.998" y="881" type="curve" smooth="yes"/>
      <point x="218.998" y="899.667"/>
      <point x="235.331" y="909"/>
      <point x="253.998" y="909" type="curve" smooth="yes"/>
      <point x="267.998" y="909"/>
      <point x="277.665" y="900.333"/>
      <point x="282.998" y="883" type="curve" smooth="yes"/>
      <point x="288.331" y="865.667"/>
      <point x="290.998" y="845.667"/>
      <point x="290.998" y="823" type="curve" smooth="yes"/>
      <point x="290.998" y="788" type="line"/>
      <point x="321.665" y="812"/>
      <point x="356.332" y="832"/>
      <point x="394.999" y="848" type="curve" smooth="yes"/>
      <point x="433.666" y="864"/>
      <point x="468.666" y="872"/>
      <point x="499.999" y="872" type="curve" smooth="yes"/>
      <point x="535.999" y="872"/>
      <point x="566.832" y="863.667"/>
      <point x="592.499" y="847" type="curve" smooth="yes"/>
      <point x="618.166" y="830.333"/>
      <point x="637.666" y="806"/>
      <point x="650.999" y="774" type="curve"/>
      <point x="733.666" y="839.333"/>
      <point x="816.333" y="872"/>
      <point x="899" y="872" type="curve" smooth="yes"/>
      <point x="952.333" y="872"/>
      <point x="991.5" y="858.667"/>
      <point x="1016.5" y="832" type="curve" smooth="yes"/>
      <point x="1041.5" y="805.333"/>
      <point x="1057.17" y="773.833"/>
      <point x="1063.5" y="737.5" type="curve" smooth="yes"/>
      <point x="1069.83" y="701.167"/>
      <point x="1073" y="654"/>
      <point x="1073" y="596" type="curve" smooth="yes"/>
      <point x="1073" y="86" type="line"/>
      <point x="1178" y="86" type="line"/>
    </contour>
  </outline>
</glyph>
<glyph name="n" format="1">
  <advance width="1229"/>
  <unicode hex="006E"/>
  <outline>
    <contour>
      <point x="1128" y="0" type="line"/>
      <point x="754.001" y="-0.000976562" type="line"/>
      <point x="754.001" y="85.999" type="line"/>
      <point x="893.001" y="85.999" type="line"/>
      <point x="893.001" y="497.999" type="line" smooth="yes"/>
      <point x="893.001" y="559.999"/>
      <point x="890.001" y="609.999"/>
      <point x="884.001" y="647.999" type="curve" smooth="yes"/>
      <point x="878.001" y="685.999"/>
      <point x="861.668" y="718.499"/>
      <point x="835.001" y="745.499" type="curve" smooth="yes"/>
      <point x="808.334" y="772.499"/>
      <point x="767.001" y="785.999"/>
      <point x="711.001" y="785.999" type="curve" smooth="yes"/>
      <point x="612.334" y="785.999"/>
      <point x="494.667" y="742.999"/>
      <point x="358" y="656.999" type="curve"/>
      <point x="358" y="85.999" type="line"/>
      <point x="498" y="85.999" type="line"/>
      <point x="498" y="-0.000976562" type="line"/>
      <point x="123" y="-0.000976562" type="line"/>
      <point x="123" y="85.999" type="line"/>
      <point x="266" y="85.999" type="line"/>
      <point x="266" y="763.999" type="line"/>
      <point x="248" y="759.999"/>
      <point x="229" y="755.666"/>
      <point x="209" y="750.999" type="curve" smooth="yes"/>
      <point x="189" y="746.332"/>
      <point x="171.167" y="742.999"/>
      <point x="155.5" y="740.999" type="curve" smooth="yes"/>
      <point x="139.833" y="738.999"/>
      <point x="125.666" y="737.666"/>
      <point x="112.999" y="736.999" type="curve"/>
      <point x="97.999" y="818.999" type="line"/>
      <point x="135.999" y="820.332"/>
      <point x="169.666" y="825.332"/>
      <point x="198.999" y="833.999" type="curve" smooth="yes"/>
      <point x="228.332" y="842.666"/>
      <point x="252.665" y="858.333"/>
      <point x="271.998" y="881" type="curve" smooth="yes"/>
      <point x="287.331" y="899.667"/>
      <point x="303.998" y="909"/>
      <point x="321.998" y="909" type="curve" smooth="yes"/>
      <point x="345.998" y="909"/>
      <point x="357.998" y="880.333"/>
      <point x="357.998" y="823" type="curve" smooth="yes"/>
      <point x="357.998" y="758" type="line"/>
      <point x="418.665" y="791.333"/>
      <point x="479.332" y="818.666"/>
      <point x="539.999" y="839.999" type="curve" smooth="yes"/>
      <point x="600.666" y="861.332"/>
      <point x="658.333" y="871.999"/>
      <point x="713" y="871.999" type="curve" smooth="yes"/>
      <point x="807.667" y="871.999"/>
      <point x="876.667" y="846.832"/>
      <point x="920" y="796.499" type="curve" smooth="yes"/>
      <point x="963.333" y="746.166"/>
      <point x="985" y="655.333"/>
      <point x="985" y="524" type="curve" smooth="yes"/>
      <point x="985" y="86" type="line"/>
      <point x="1128" y="86" type="line"/>
    </contour>
  </outline>
</glyph>
<glyph name="p" format="1">
  <advance width="1229"/>
  <unicode hex="0070"/>
  <outline>
    <contour>
      <point x="1051" y="426" type="curve" smooth="yes"/>
      <point x="1051" y="343.333"/>
      <point x="1032.34" y="267.498"/>
      <point x="995.003" y="198.498" type="curve" smooth="yes"/>
      <point x="957.67" y="129.498"/>
      <point x="906.003" y="74.998"/>
      <point x="840.003" y="34.998" type="curve" smooth="yes"/>
      <point x="774.003" y="-5.00195"/>
      <point x="698.67" y="-25.002"/>
      <point x="614.003" y="-25.002" type="curve" smooth="yes"/>
      <point x="538.67" y="-25.002"/>
      <point x="465.67" y="-8.33496"/>
      <point x="395.003" y="24.998" type="curve"/>
      <point x="395.003" y="-332.002" type="line"/>
      <point x="575.003" y="-332.002" type="line"/>
      <point x="575.003" y="-418.002" type="line"/>
      <point x="176.003" y="-418.002" type="line"/>
      <point x="176.003" y="-332.002" type="line"/>
      <point x="303.003" y="-332.002" type="line"/>
      <point x="303.003" y="763.998" type="line"/>
      <point x="285.003" y="759.998"/>
      <point x="266.003" y="755.665"/>
      <point x="246.003" y="750.998" type="curve" smooth="yes"/>
      <point x="226.003" y="746.331"/>
      <point x="208.17" y="742.998"/>
      <point x="192.503" y="740.998" type="curve" smooth="yes"/>
      <point x="176.836" y="738.998"/>
      <point x="162.669" y="737.665"/>
      <point x="150.002" y="736.998" type="curve"/>
      <point x="135.002" y="818.998" type="line"/>
      <point x="173.002" y="820.331"/>
      <point x="206.669" y="825.331"/>
      <point x="236.002" y="833.998" type="curve" smooth="yes"/>
      <point x="265.335" y="842.665"/>
      <point x="289.668" y="858.332"/>
      <point x="309.001" y="880.999" type="curve" smooth="yes"/>
      <point x="324.334" y="899.666"/>
      <point x="340.667" y="908.999"/>
      <point x="358" y="908.999" type="curve" smooth="yes"/>
      <point x="372" y="908.999"/>
      <point x="381.667" y="900.332"/>
      <point x="387" y="882.999" type="curve" smooth="yes"/>
      <point x="392.333" y="865.666"/>
      <point x="395" y="845.666"/>
      <point x="395" y="822.999" type="curve" smooth="yes"/>
      <point x="395" y="757.999" type="line"/>
      <point x="486.333" y="833.999"/>
      <point x="575.333" y="871.999"/>
      <point x="662" y="871.999" type="curve" smooth="yes"/>
      <point x="740" y="871.999"/>
      <point x="808.833" y="851.332"/>
      <point x="868.5" y="809.999" type="curve" smooth="yes"/>
      <point x="928.167" y="768.666"/>
      <point x="973.5" y="713.833"/>
      <point x="1004.5" y="645.5" type="curve" smooth="yes"/>
      <point x="1035.5" y="577.167"/>
      <point x="1051" y="504"/>
    </contour>
    <contour>
      <point x="952.003" y="427.998" type="curve" smooth="yes"/>
      <point x="952.003" y="472.665"/>
      <point x="945.672" y="516.167"/>
      <point x="933.005" y="558.5" type="curve" smooth="yes"/>
      <point x="920.338" y="600.833"/>
      <point x="901.671" y="639.166"/>
      <point x="877.004" y="673.499" type="curve" smooth="yes"/>
      <point x="852.337" y="707.832"/>
      <point x="821.67" y="735.165"/>
      <point x="785.003" y="755.498" type="curve" smooth="yes"/>
      <point x="748.336" y="775.831"/>
      <point x="707.336" y="785.998"/>
      <point x="662.003" y="785.998" type="curve" smooth="yes"/>
      <point x="609.336" y="785.998"/>
      <point x="558.336" y="771.498"/>
      <point x="509.003" y="742.498" type="curve" smooth="yes"/>
      <point x="459.67" y="713.498"/>
      <point x="421.67" y="676.998"/>
      <point x="395.003" y="632.998" type="curve"/>
      <point x="395.003" y="120.998" type="line"/>
      <point x="465.003" y="80.998"/>
      <point x="537.336" y="60.998"/>
      <point x="612.003" y="60.998" type="curve" smooth="yes"/>
      <point x="677.336" y="60.998"/>
      <point x="736.003" y="77.8311"/>
      <point x="788.003" y="111.498" type="curve" smooth="yes"/>
      <point x="840.003" y="145.165"/>
      <point x="880.336" y="189.998"/>
      <point x="909.003" y="245.998" type="curve" smooth="yes"/>
      <point x="937.67" y="301.998"/>
      <point x="952.003" y="362.665"/>
    </contour>
  </outline>
</glyph>
<glyph name="q" format="1">
  <advance width="1229"/>
  <unicode hex="0071"/>
  <outline>
    <contour>
      <point x="1120" y="-418" type="line"/>
      <point x="635.003" y="-417.999" type="line"/>
      <point x="635.003" y="-331.999" type="line"/>
      <point x="844.003" y="-331.999" type="line"/>
      <point x="844.003" y="-7.99902" type="line"/>
      <point x="823.336" y="-9.99902"/>
      <point x="793.003" y="-13.332"/>
      <point x="753.003" y="-17.999" type="curve" smooth="yes"/>
      <point x="713.003" y="-22.666"/>
      <point x="682.67" y="-24.999"/>
      <point x="662.003" y="-24.999" type="curve" smooth="yes"/>
      <point x="513.336" y="-24.999"/>
      <point x="399.003" y="12.501"/>
      <point x="319.003" y="87.501" type="curve" smooth="yes"/>
      <point x="239.003" y="162.501"/>
      <point x="199.003" y="271.334"/>
      <point x="199.003" y="414.001" type="curve" smooth="yes"/>
      <point x="199.003" y="518.001"/>
      <point x="220.17" y="604.668"/>
      <point x="262.503" y="674.001" type="curve" smooth="yes"/>
      <point x="304.836" y="743.334"/>
      <point x="357.669" y="793.667"/>
      <point x="421.002" y="825" type="curve" smooth="yes"/>
      <point x="484.335" y="856.333"/>
      <point x="548.002" y="872"/>
      <point x="612.002" y="872" type="curve" smooth="yes"/>
      <point x="694.669" y="872"/>
      <point x="776.002" y="848.333"/>
      <point x="856.002" y="801" type="curve"/>
      <point x="863.335" y="837.667"/>
      <point x="877.668" y="875"/>
      <point x="899.001" y="913" type="curve"/>
      <point x="981.001" y="879" type="line"/>
      <point x="962.334" y="843"/>
      <point x="950.167" y="813.667"/>
      <point x="944.5" y="791" type="curve" smooth="yes"/>
      <point x="938.833" y="768.333"/>
      <point x="936" y="740.333"/>
      <point x="936" y="707" type="curve" smooth="yes"/>
      <point x="936" y="-332" type="line"/>
      <point x="1120" y="-332" type="line"/>
    </contour>
    <contour>
      <point x="844.003" y="80.001" type="curve"/>
      <point x="844.005" y="715.002" type="line"/>
      <point x="815.338" y="735.669"/>
      <point x="779.671" y="752.669"/>
      <point x="737.004" y="766.002" type="curve" smooth="yes"/>
      <point x="694.337" y="779.335"/>
      <point x="654.004" y="786.002"/>
      <point x="616.004" y="786.002" type="curve" smooth="yes"/>
      <point x="548.004" y="786.002"/>
      <point x="490.171" y="769.002"/>
      <point x="442.504" y="735.002" type="curve" smooth="yes"/>
      <point x="394.837" y="701.002"/>
      <point x="358.67" y="654.835"/>
      <point x="334.003" y="596.502" type="curve" smooth="yes"/>
      <point x="309.336" y="538.169"/>
      <point x="297.003" y="473.669"/>
      <point x="297.003" y="403.002" type="curve" smooth="yes"/>
      <point x="297.003" y="327.669"/>
      <point x="311.67" y="264.169"/>
      <point x="341.003" y="212.502" type="curve" smooth="yes"/>
      <point x="370.336" y="160.835"/>
      <point x="412.169" y="122.668"/>
      <point x="466.502" y="98.001" type="curve" smooth="yes"/>
      <point x="520.835" y="73.334"/>
      <point x="586.002" y="61.001"/>
      <point x="662.002" y="61.001" type="curve" smooth="yes"/>
      <point x="730.669" y="61.001"/>
      <point x="791.336" y="67.334"/>
    </contour>
  </outline>
</glyph>
<glyph name="r" format="1">
  <advance width="1229"/>
  <unicode hex="0072"/>
  <outline>
    <contour>
      <point x="1079" y="725" type="curve"/>
      <point x="981.003" y="685.998" type="line"/>
      <point x="957.67" y="752.665"/>
      <point x="923.003" y="785.998"/>
      <point x="877.003" y="785.998" type="curve" smooth="yes"/>
      <point x="824.336" y="785.998"/>
      <point x="766.169" y="763.498"/>
      <point x="702.502" y="718.498" type="curve" smooth="yes"/>
      <point x="638.835" y="673.498"/>
      <point x="569.335" y="617.665"/>
      <point x="494.002" y="550.998" type="curve"/>
      <point x="494.002" y="85.998" type="line"/>
      <point x="831.002" y="85.998" type="line"/>
      <point x="831.002" y="-0.00195312" type="line"/>
      <point x="219.002" y="-0.00195312" type="line"/>
      <point x="219.002" y="85.998" type="line"/>
      <point x="401.002" y="85.998" type="line"/>
      <point x="401.002" y="763.998" type="line"/>
      <point x="383.002" y="759.998"/>
      <point x="364.002" y="755.665"/>
      <point x="344.002" y="750.998" type="curve" smooth="yes"/>
      <point x="324.002" y="746.331"/>
      <point x="306.169" y="742.998"/>
      <point x="290.502" y="740.998" type="curve" smooth="yes"/>
      <point x="274.835" y="738.998"/>
      <point x="260.668" y="737.665"/>
      <point x="248.001" y="736.998" type="curve"/>
      <point x="233.001" y="818.998" type="line"/>
      <point x="316.334" y="821.665"/>
      <point x="374.667" y="842.332"/>
      <point x="408" y="880.999" type="curve" smooth="yes"/>
      <point x="422" y="899.666"/>
      <point x="438.333" y="908.999"/>
      <point x="457" y="908.999" type="curve" smooth="yes"/>
      <point x="469.667" y="908.999"/>
      <point x="479" y="899.666"/>
      <point x="485" y="880.999" type="curve" smooth="yes"/>
      <point x="491" y="862.332"/>
      <point x="494" y="842.999"/>
      <point x="494" y="822.999" type="curve" smooth="yes"/>
      <point x="494" y="671.999" type="line"/>
      <point x="584" y="739.999"/>
      <point x="656.5" y="790.332"/>
      <point x="711.5" y="822.999" type="curve" smooth="yes"/>
      <point x="766.5" y="855.666"/>
      <point x="825.667" y="871.999"/>
      <point x="889" y="871.999" type="curve" smooth="yes"/>
      <point x="932.333" y="871.999"/>
      <point x="970" y="858.832"/>
      <point x="1002" y="832.499" type="curve" smooth="yes"/>
      <point x="1034" y="806.166"/>
      <point x="1059.67" y="770.333"/>
    </contour>
  </outline>
</glyph>
<glyph name="s" format="1">
  <advance width="1229"/>
  <unicode hex="0073"/>
  <outline>
    <contour>
      <point x="1010" y="221" type="curve" smooth="yes"/>
      <point x="1010" y="159.667"/>
      <point x="990.001" y="110.671"/>
      <point x="950.001" y="74.0039" type="curve" smooth="yes"/>
      <point x="910.001" y="37.3369"/>
      <point x="861.168" y="11.6699"/>
      <point x="803.501" y="-2.99707" type="curve" smooth="yes"/>
      <point x="745.834" y="-17.6641"/>
      <point x="686.334" y="-24.9971"/>
      <point x="625.001" y="-24.9971" type="curve" smooth="yes"/>
      <point x="569.668" y="-24.9971"/>
      <point x="514.001" y="-18.4971"/>
      <point x="458.001" y="-5.49707" type="curve" smooth="yes"/>
      <point x="402.001" y="7.50293"/>
      <point x="355.001" y="27.6699"/>
      <point x="317.001" y="55.0029" type="curve"/>
      <point x="293.001" y="-28.9971" type="line"/>
      <point x="217.001" y="-7.99707" type="line"/>
      <point x="231.001" y="50.6699"/>
      <point x="238.001" y="104.67"/>
      <point x="238.001" y="154.003" type="curve" smooth="yes"/>
      <point x="238.001" y="208.003"/>
      <point x="229.668" y="256.336"/>
      <point x="213.001" y="299.003" type="curve"/>
      <point x="305.001" y="299.003" type="line"/>
      <point x="315.001" y="241.003"/>
      <point x="331.501" y="194.836"/>
      <point x="354.501" y="160.503" type="curve" smooth="yes"/>
      <point x="377.501" y="126.17"/>
      <point x="410.001" y="101.003"/>
      <point x="452.001" y="85.0029" type="curve" smooth="yes"/>
      <point x="494.001" y="69.0029"/>
      <point x="548.668" y="61.0029"/>
      <point x="616.001" y="61.0029" type="curve" smooth="yes"/>
      <point x="661.334" y="61.0029"/>
      <point x="706.167" y="65.5029"/>
      <point x="750.5" y="74.5029" type="curve" smooth="yes"/>
      <point x="794.833" y="83.5029"/>
      <point x="832.666" y="99.6699"/>
      <point x="863.999" y="123.003" type="curve" smooth="yes"/>
      <point x="895.332" y="146.336"/>
      <point x="910.999" y="177.669"/>
      <point x="910.999" y="217.002" type="curve" smooth="yes"/>
      <point x="910.999" y="275.002"/>
      <point x="884.499" y="313.502"/>
      <point x="831.499" y="332.502" type="curve" smooth="yes"/>
      <point x="778.499" y="351.502"/>
      <point x="697.666" y="368.002"/>
      <point x="588.999" y="382.002" type="curve" smooth="yes"/>
      <point x="480.332" y="396.002"/>
      <point x="397.999" y="417.669"/>
      <point x="341.999" y="447.002" type="curve" smooth="yes"/>
      <point x="285.999" y="476.335"/>
      <point x="257.999" y="528.668"/>
      <point x="257.999" y="604.001" type="curve" smooth="yes"/>
      <point x="257.999" y="660.001"/>
      <point x="274.499" y="708.501"/>
      <point x="307.499" y="749.501" type="curve" smooth="yes"/>
      <point x="340.499" y="790.501"/>
      <point x="383.832" y="821.168"/>
      <point x="437.499" y="841.501" type="curve" smooth="yes"/>
      <point x="491.166" y="861.834"/>
      <point x="546.666" y="872.001"/>
      <point x="603.999" y="872.001" type="curve" smooth="yes"/>
      <point x="699.332" y="872.001"/>
      <point x="796.332" y="853.668"/>
      <point x="894.999" y="817.001" type="curve"/>
      <point x="917.999" y="913.001" type="line"/>
      <point x="996.999" y="899.001" type="line"/>
      <point x="989.666" y="867.001"/>
      <point x="983.499" y="832.834"/>
      <point x="978.499" y="796.501" type="curve" smooth="yes"/>
      <point x="973.499" y="760.168"/>
      <point x="970.999" y="728.668"/>
      <point x="970.999" y="702.001" type="curve" smooth="yes"/>
      <point x="982.999" y="582.001" type="line"/>
      <point x="894.999" y="584.001" type="line"/>
      <point x="888.999" y="604.001" type="line"/>
      <point x="873.666" y="672.001"/>
      <point x="847.333" y="719.334"/>
      <point x="810" y="746.001" type="curve" smooth="yes"/>
      <point x="772.667" y="772.668"/>
      <point x="708.667" y="786.001"/>
      <point x="618" y="786.001" type="curve" smooth="yes"/>
      <point x="549.333" y="786.001"/>
      <point x="488.5" y="772.501"/>
      <point x="435.5" y="745.501" type="curve" smooth="yes"/>
      <point x="382.5" y="718.501"/>
      <point x="356" y="674.001"/>
      <point x="356" y="612.001" type="curve" smooth="yes"/>
      <point x="356" y="555.334"/>
      <point x="381.5" y="518.001"/>
      <point x="432.5" y="500.001" type="curve" smooth="yes"/>
      <point x="483.5" y="482.001"/>
      <point x="564.167" y="465.501"/>
      <point x="674.5" y="450.501" type="curve" smooth="yes"/>
      <point x="784.833" y="435.501"/>
      <point x="868.333" y="412.668"/>
      <point x="925" y="382.001" type="curve" smooth="yes"/>
      <point x="981.667" y="351.334"/>
      <point x="1010" y="297.667"/>
    </contour>
  </outline>
</glyph>
<glyph name="t" format="1">
  <advance width="1229"/>
  <unicode hex="0074"/>
  <outline>
    <contour>
      <point x="1057" y="45" type="line"/>
      <point x="962.333" y="21"/>
      <point x="886.336" y="3.33203"/>
      <point x="829.003" y="-8.00098" type="curve" smooth="yes"/>
      <point x="771.67" y="-19.334"/>
      <point x="714.337" y="-25.001"/>
      <point x="657.004" y="-25.001" type="curve" smooth="yes"/>
      <point x="614.337" y="-25.001"/>
      <point x="578.67" y="-19.501"/>
      <point x="550.003" y="-8.50098" type="curve" smooth="yes"/>
      <point x="521.336" y="2.49902"/>
      <point x="497.669" y="21.332"/>
      <point x="479.002" y="47.999" type="curve" smooth="yes"/>
      <point x="460.335" y="74.666"/>
      <point x="446.835" y="109.666"/>
      <point x="438.502" y="152.999" type="curve" smooth="yes"/>
      <point x="430.169" y="196.332"/>
      <point x="426.002" y="251.665"/>
      <point x="426.002" y="318.998" type="curve" smooth="yes"/>
      <point x="426.002" y="761.998" type="line"/>
      <point x="145.002" y="761.998" type="line"/>
      <point x="145.002" y="847.998" type="line"/>
      <point x="426.002" y="847.998" type="line"/>
      <point x="426.002" y="1083" type="line"/>
      <point x="518.002" y="1083" type="line"/>
      <point x="518.002" y="847.998" type="line"/>
      <point x="985.002" y="847.998" type="line"/>
      <point x="985.002" y="761.998" type="line"/>
      <point x="518.002" y="761.998" type="line"/>
      <point x="518.002" y="318.998" type="line" smooth="yes"/>
      <point x="518.002" y="261.665"/>
      <point x="520.835" y="215.332"/>
      <point x="526.502" y="179.999" type="curve" smooth="yes"/>
      <point x="532.169" y="144.666"/>
      <point x="546.002" y="115.999"/>
      <point x="568.002" y="93.999" type="curve" smooth="yes"/>
      <point x="590.002" y="71.999"/>
      <point x="624.002" y="60.999"/>
      <point x="670.002" y="60.999" type="curve" smooth="yes"/>
      <point x="705.335" y="60.999"/>
      <point x="743.168" y="64.499"/>
      <point x="783.501" y="71.499" type="curve" smooth="yes"/>
      <point x="823.834" y="78.499"/>
      <point x="874.167" y="89.332"/>
      <point x="934.5" y="103.999" type="curve" smooth="yes"/>
      <point x="994.833" y="118.666"/>
      <point x="1026" y="126.333"/>
      <point x="1028" y="127" type="curve" smooth="yes"/>
    </contour>
  </outline>
</glyph>
<glyph name="v" format="1">
  <advance width="1229"/>
  <unicode hex="0076"/>
  <outline>
    <contour>
      <point x="1130" y="762" type="line"/>
      <point x="997" y="762" type="line"/>
      <point x="662" y="-23" type="line"/>
      <point x="565" y="-23" type="line"/>
      <point x="231" y="762" type="line"/>
      <point x="98" y="762" type="line"/>
      <point x="98" y="848" type="line"/>
      <point x="434" y="848" type="line"/>
      <point x="434" y="762" type="line"/>
      <point x="332" y="762" type="line"/>
      <point x="614" y="72" type="line"/>
      <point x="897" y="762" type="line"/>
      <point x="793" y="762" type="line"/>
      <point x="793" y="848" type="line"/>
      <point x="1130" y="848" type="line"/>
    </contour>
  </outline>
</glyph>
<glyph name="w" format="1">
  <advance width="1229"/>
  <unicode hex="0077"/>
  <outline>
    <contour>
      <point x="1192" y="762" type="line"/>
      <point x="1106" y="762" type="line"/>
      <point x="899" y="-23" type="line"/>
      <point x="784" y="-23" type="line"/>
      <point x="631" y="434" type="line"/>
      <point x="483" y="-23" type="line"/>
      <point x="365" y="-23" type="line"/>
      <point x="154" y="762" type="line"/>
      <point x="37" y="762" type="line"/>
      <point x="37" y="848" type="line"/>
      <point x="369" y="848" type="line"/>
      <point x="369" y="762" type="line"/>
      <point x="244" y="762" type="line"/>
      <point x="428" y="86" type="line"/>
      <point x="598" y="614" type="line"/>
      <point x="664" y="614" type="line"/>
      <point x="840" y="86" type="line"/>
      <point x="1020" y="762" type="line"/>
      <point x="887" y="762" type="line"/>
      <point x="887" y="848" type="line"/>
      <point x="1192" y="848" type="line"/>
    </contour>
  </outline>
</glyph>
<glyph name="x" format="1">
  <advance width="1229"/>
  <unicode hex="0078"/>
  <outline>
    <contour>
      <point x="1153" y="0" type="line"/>
      <point x="739" y="0" type="line"/>
      <point x="739" y="86" type="line"/>
      <point x="887" y="86" type="line"/>
      <point x="592" y="387" type="line"/>
      <point x="313" y="86" type="line"/>
      <point x="473" y="86" type="line"/>
      <point x="473" y="0" type="line"/>
      <point x="74" y="0" type="line"/>
      <point x="74" y="86" type="line"/>
      <point x="195" y="86" type="line"/>
      <point x="530" y="449" type="line"/>
      <point x="223" y="762" type="line"/>
      <point x="96" y="762" type="line"/>
      <point x="96" y="848" type="line"/>
      <point x="479" y="848" type="line"/>
      <point x="479" y="762" type="line"/>
      <point x="350" y="762" type="line"/>
      <point x="592" y="514" type="line"/>
      <point x="823" y="762" type="line"/>
      <point x="692" y="762" type="line"/>
      <point x="692" y="848" type="line"/>
      <point x="1081" y="848" type="line"/>
      <point x="1081" y="762" type="line"/>
      <point x="940" y="762" type="line"/>
      <point x="653" y="451" type="line"/>
      <point x="1010" y="86" type="line"/>
      <point x="1153" y="86" type="line"/>
    </contour>
  </outline>
</glyph>
<glyph name="y" format="1">
  <advance width="1229"/>
  <unicode hex="0079"/>
  <outline>
    <contour>
      <point x="1128" y="762" type="line"/>
      <point x="998.999" y="761.999" type="line"/>
      <point x="609.999" y="-133.001" type="line" smooth="yes"/>
      <point x="574.666" y="-211.668"/>
      <point x="547.166" y="-268.668"/>
      <point x="527.499" y="-304.001" type="curve" smooth="yes"/>
      <point x="507.832" y="-339.334"/>
      <point x="479.165" y="-371.167"/>
      <point x="441.498" y="-399.5" type="curve" smooth="yes"/>
      <point x="403.831" y="-427.833"/>
      <point x="356.331" y="-442"/>
      <point x="298.998" y="-442" type="curve" smooth="yes"/>
      <point x="264.331" y="-442"/>
      <point x="228.831" y="-436"/>
      <point x="192.498" y="-424" type="curve" smooth="yes"/>
      <point x="156.165" y="-412"/>
      <point x="121.998" y="-395"/>
      <point x="89.998" y="-373" type="curve"/>
      <point x="124.998" y="-295" type="line"/>
      <point x="182.998" y="-335.667"/>
      <point x="242.998" y="-356"/>
      <point x="304.998" y="-356" type="curve" smooth="yes"/>
      <point x="357.665" y="-356"/>
      <point x="399.332" y="-334"/>
      <point x="429.999" y="-290" type="curve" smooth="yes"/>
      <point x="460.666" y="-246"/>
      <point x="491.333" y="-187"/>
      <point x="522" y="-113" type="curve" smooth="yes"/>
      <point x="590" y="45" type="line"/>
      <point x="223" y="762" type="line"/>
      <point x="100" y="762" type="line"/>
      <point x="100" y="848" type="line"/>
      <point x="477" y="848" type="line"/>
      <point x="477" y="762" type="line"/>
      <point x="324" y="762" type="line"/>
      <point x="637" y="150" type="line"/>
      <point x="905" y="762" type="line"/>
      <point x="752" y="762" type="line"/>
      <point x="752" y="848" type="line"/>
      <point x="1128" y="848" type="line"/>
    </contour>
  </outline>
</glyph>
